<svg id="Слой_1" data-name="Слой 1" xmlns="http://www.w3.org/2000/svg" viewBox="0 0 514 636"><defs><style>.cls-1{fill:#fff;}.cls-2{fill:#35221e;}.cls-3{fill:#b76f4b;}.cls-4{fill:#992816;}.cls-5{fill:#872910;}.cls-6{fill:none;}</style></defs><title>bear</title><rect class="cls-1" x="-0.02" width="514" height="636"/><path class="cls-2" d="M143.89,395.25c18.32-11.35,31.61-27.25,41.54-46.17,10.48-20-.28-38.54-15.48-53.3-8-7.73-17.33-14.94-28.34-16.31-6.54-.82-13.13.5-19.71.73-10.78.38-21.42-2.16-31.91-4.67a84.48,84.48,0,0,1,46.31-40.12c10.43-3.67,21.5-5.24,32.54-5.88,6.37-.37,12.88-.47,18.86-2.67,18.38-6.77,7.47-28.65,4.69-43-.46-2.38-1.13-5-3.22-6.27a6.79,6.79,0,0,0-5.59-.11c-10.3,3.57-13.6,16.93-22.71,22.9-4.24,2.78-9.39,3.72-14.38,4.6l-25.87,4.55a3.85,3.85,0,0,1-3-.29c-1-.78-1-2.33-.87-3.63q3.64-33.39,9.09-66.54c2-12.44,4.34-25.06,10-36.34,3.06-6.13,7.5-12,9.41-18.62,1.54-5.37.13-11.23,3.9-15.85,2-2.42,5.25-4,8.28-3.21,5.43,1.35,7.27,8.7,9.55,13.14a12,12,0,0,0,1.72,2.73c3.91,4.25,12.24,4.32,17.45,5.93a175.15,175.15,0,0,1,20.15,7.74c13.2,6,25.77,13.21,38.25,20.53,72.31,42.38,148.3,93.61,173.93,173.41,7.93,24.71,10.46,50.81,11.8,76.72,1.84,35.51,1.21,71.35-4.42,106.52-3.67,22.9-9.5,45.53-18.35,67a231.91,231.91,0,0,1-15.41,30.79q-4.46,7.43-9.5,14.48c-3.43,4.79-6,10.19-9.14,15.16-1.42,2.24-3,5.45-5,7.11s-5.18,1.79-7.69,1.86q-33.1,1-66.21.38c7.63-5.55,16-11.46,21.74-19.11,5.94-8,6.77-17.51,4.72-27-3.18-14.83-12.5-32.81-26.87-39.57-6.82-3.21-14.36-4.5-21.79-5.76-30.49-5.17-63.91-10.73-90.43,8.15-21.92,15.59-36.27,45.1-64.58,50.44L136.13,556c-16.95-18.91-34.26-38.41-43.24-62.17s-7.87-53.08,9.39-71.71C113.55,409.93,129.8,404,143.89,395.25Z"/><path class="cls-3" d="M193.85,534.6a33.24,33.24,0,0,0-4.21,16.26c.13,5.45,2.39,10.61,4.81,15.5a207.82,207.82,0,0,0,26.77,41c-4.18-7.53-8.42-15.2-10.25-23.62a75.6,75.6,0,0,1-1.39-14c-.13-4.78-.13-9.64,1.12-14.26,1.88-7,7-11.1,12.38-15.42,2.63-2.09,22.67-16.28,24.22-11.37a5.61,5.61,0,0,1,.15,1.78c0,2.8.11,10.37,3.67,11.29,2.9.74,2.52-6.42,2.54-8,0-1.84-.15-4.11,1.2-5.57a2.19,2.19,0,0,1,3-.32,3.21,3.21,0,0,1,.67,1.42c.33,1.17,4.48,17.14,4.57,17.14a209.34,209.34,0,0,0,7.44,22.63c5.73,14.37,13.52,28.06,24.32,39.23-10.32-14.74-8.84-41.15-.76-56.53,4.55-8.66,12.28-15.35,15.42-24.8a72.15,72.15,0,0,0,2.77-35.32c-3.82-22.77-15.63-42.23-28.8-60.7-5.3-7.44-10.77-15-18.33-20.18s-17.78-7.36-25.93-3.23-11.9,13-13.62,21.49c-2.11,10.35-5.3,19.11-11.42,27.86-3.27,4.68-7,9.18-11.86,12.21a26.59,26.59,0,0,1-38.64-12.37,31.54,31.54,0,0,0,6.68,21.11,32.56,32.56,0,0,0,19.25,11.66,55.62,55.62,0,0,0,10.42.74c4.78,0,9.71-.19,14.3-1.65,3.78-1.2,7.36-4.34,7.55,1.12.18,4.89-3.6,10.44-6,14.4C209.79,513.94,199.57,523.61,193.85,534.6Z"/><path class="cls-4" d="M263.86,409.9c-.34-.21-.69-.4-1-.6l-.3-.17q-.66-.36-1.34-.69h0q-.7-.34-1.42-.65h0c.37,2.1.82,4.19,1.39,6.25,1.82,6.58,4.77,12.78,7.63,19,10.59,22.85,20.49,47.38,17.88,72.43-1.09,10.49-4.94,20.38-6.4,30.75a84,84,0,0,0,1.21,29.66c1.15,5.45,2.37,10.89,3.59,16.33,1.92,8.58,4,17.47,8.9,24.67-9.26-15-7.62-40.18.2-55.06,4.55-8.66,12.28-15.35,15.42-24.8q1.06-3.19,1.82-6.38c1.89-9.53,2.59-19.17,1-28.94q-.72-4.27-1.79-8.39a107.62,107.62,0,0,0-3.93-12.06q-.77-2-1.6-3.89a169.76,169.76,0,0,0-14.26-25.85q-1.16-1.77-2.36-3.53-2.39-3.52-4.86-7c-2.65-3.72-5.34-7.48-8.32-11q-.56-.65-1.13-1.29c-1.14-1.27-2.33-2.5-3.57-3.66a43.82,43.82,0,0,0-5.31-4.27C264.77,410.47,264.32,410.18,263.86,409.9Z"/><path class="cls-4" d="M249,405.39a20.69,20.69,0,0,0-9.68,2.14c-5.71,2.9-9.28,8.19-11.49,14a20.33,20.33,0,0,0,19-4.46A20.76,20.76,0,0,0,253,406,32.09,32.09,0,0,0,249,405.39Z"/><path class="cls-4" d="M227.45,439.33c1.3,11.56,2.14,23.31.24,34.79a58.47,58.47,0,0,1-6.14,18.39,7.73,7.73,0,0,0-.15-4.33,4.58,4.58,0,0,0-.17-.44,2.35,2.35,0,0,0-.33-.54,1.35,1.35,0,0,0-.95-.52,7.33,7.33,0,0,0-2.8.74c-.92.38-1.82.86-2.78,1.17-4.6,1.46-9.52,1.64-14.3,1.65a55.62,55.62,0,0,1-10.42-.74,31.41,31.41,0,0,1-3.17-.78,43.1,43.1,0,0,0,16.62-3.54c10.59-4.88,17.87-15.34,21.13-26.54"/><path class="cls-3" d="M316.83,446.32c1.08,1.46,2.14,2.95,3.14,4.47,4.27,6.5,7.64,13.61,8.91,21.25,1.5,9-1.25,16.76-7.49,23.47-3.36,3.61-8.38,9.38-13.9,8.55,3.16-3.3,6.08-6.86,7.56-11.27a18.79,18.79,0,0,0,0-12.41c-3-8.11-11.28-13.63-18.59-17.46-8-4.17-16.9-5.74-24.31-10.71-12-8-23.21-22.63-19.13-37.9.82-3.08,2.76-6.4,5.92-6.74a9,9,0,0,1,3.57.56A107.23,107.23,0,0,1,316.83,446.32Z"/><path class="cls-4" d="M289.56,420.58a59.87,59.87,0,0,0-6.63,15.26q5.57-6.12,11.74-11.66Q292.17,422.31,289.56,420.58Z"/><path class="cls-4" d="M302.12,430.27q-1.51-1.35-3.07-2.64A49.12,49.12,0,0,0,291.62,441C294.67,437,298.46,433.72,302.12,430.27Z"/><path class="cls-4" d="M268.54,456.4a1.77,1.77,0,0,0-1.17-.66c-1.09-.18-2.11.12-2.39,1.26a2.61,2.61,0,0,0,.49,2.28,2.14,2.14,0,0,0,2.55.43,2.18,2.18,0,0,0,.76-2.82,2.13,2.13,0,0,0-.2-.44Z"/><path class="cls-4" d="M240.52,458.29a1.89,1.89,0,0,0-.59-.4,2,2,0,0,0-2.88.86,2.62,2.62,0,0,0,.41,2.53,2.14,2.14,0,0,0,2.58.41,2.42,2.42,0,0,0,.87-2.58,1.87,1.87,0,0,0-.31-.72Z"/><path class="cls-5" d="M253.49,500.35a2.41,2.41,0,0,0-2.55-.55c-1.31.47-1.29,2.59-.49,3.48a2.14,2.14,0,0,0,2.65.38,2.5,2.5,0,0,0,.55-3.08A1.58,1.58,0,0,0,253.49,500.35Z"/><path class="cls-3" d="M226.78,367.8c4.74-6,12.71-8.22,20.05-6.92,9.08,1.61,14.39,7.74,17.74,16l.23.57q1.57,3.91,3,7.88c.11,0,1.87,4.75,2,5.14.28.64.51,1.52,0,1.93a1.58,1.58,0,0,1-.93.21c-2.38,0-2.83-.18-3.48,2.19a37.49,37.49,0,0,1-1.71,5.38,20.65,20.65,0,0,1-8.63,9.68,19.49,19.49,0,0,1-19.53-.42c-5.75-3.6-9.24-10.06-11.26-16.64C221.71,384.46,221.4,374.58,226.78,367.8Z"/><path d="M221.21,405.44a7.73,7.73,0,0,0-4.61,7.74,9.26,9.26,0,0,0-3.18,5.16,23,23,0,0,0-.45,6.71c0,.13-.09-.1,0-.14a10.86,10.86,0,0,0-1.71,8.33,11.94,11.94,0,0,0-4.71,10.62c0,.17-.08.16-.1.33-2.6.94-3.82,4-3.94,6.75a6.07,6.07,0,0,0-5.07,3.35c-1.12.22-2.21-.6-3.32-.85a7.71,7.71,0,0,0-4.24.23c-1-.21-1.86-1.16-2.76-1.55a4.85,4.85,0,0,0-3.85,0,7.51,7.51,0,0,0-4.76-4.66c-.34,1.93,1.21,3.63,2.62,5a13.44,13.44,0,0,0,3.13,2.49,4.41,4.41,0,0,0,3.86.23,8.67,8.67,0,0,0,3.75,2.08,4.43,4.43,0,0,0,4.09-.94,4.88,4.88,0,0,0,4.61-.08,5.23,5.23,0,0,0,2.75-3.9,7.66,7.66,0,0,0,5.24-6.68,23.25,23.25,0,0,0,3.89-5.24,10.56,10.56,0,0,0,1-6.38,12.29,12.29,0,0,0,4.35-7.78,10.37,10.37,0,0,0,4.27-11.11,11,11,0,0,0,5-4.85,21,21,0,0,0,1.59-6.54"/><path class="cls-4" d="M245.43,392.39q4.32-2.2,8.8-4.06a8,8,0,0,1,3.36-.84c.24.25-.1.63-.41.79l-13,7"/><path class="cls-4" d="M245.42,395.52l10.32-4.94a.84.84,0,0,1,.7-.11.57.57,0,0,1,.19.74,1.61,1.61,0,0,1-.6.59,55.87,55.87,0,0,1-12.87,6.41c-.74.26-1.63.66-1.68,1.45"/><path d="M170.13,406.27a8.6,8.6,0,0,0,3.37,3.08,9,9,0,0,0,7.16-.2c-.73.35,5.27,4.35,5.94,4.55a8.73,8.73,0,0,0,8.22-1.71c.18-.15,5.23.84,6,.76a14.43,14.43,0,0,0,6.69-2.42c1.17-.8,1.94-1.81,3.37-1.88,1.85-.09,3.65.88,5.65.62,2.56-.33,4.58-1.87,7.14-2.18a38.85,38.85,0,0,0,8.6-1.94,41.83,41.83,0,0,0,15.39-9.78,47.16,47.16,0,0,0,12.44-23c1.57-7-.63-13.74-8.52-14.61A38.65,38.65,0,0,0,228,362.77c-6.77,4-9.65,11.56-10.67,19.13-.91,6.7-.31,13.5.29,20.24a5.7,5.7,0,0,0-6.94,2.68c-4.89-3.09-12.06-1.68-15.2,3.18a11.62,11.62,0,0,0-11.08-1.29,3,3,0,0,1-1.72.39,3.07,3.07,0,0,1-1.43-1,10.44,10.44,0,0,0-8.15-3,5.77,5.77,0,0,1-2.69-.09c-1.11-.47-1.65-1.7-2.22-2.77A14.13,14.13,0,0,0,161.6,394c.16-2.72.22-6.13-1.82-7.92-.83-.73-2-1.2-2.39-2.21a4.58,4.58,0,0,1-.24-1.61,17.37,17.37,0,0,0-3.59-9.82,10.13,10.13,0,0,1,.46,5.17,16.66,16.66,0,0,0-.52,4.32,3.82,3.82,0,0,0,2.32,3.4,18.91,18.91,0,0,0,2.87,7.84c.58,1,1.5,1.3,1.9,2.27.6,1.47-.19,3.17.84,4.82a6.6,6.6,0,0,0,4.83,3C168,403.49,169.05,404.85,170.13,406.27Z"/><path class="cls-1" d="M233.64,376.7l.73,2.31c-2.78-.93-5.87-.91-8.49-2.22s-4.54-4.89-2.7-7.17c-.87,1.86-3.61,1.41-5.52.68l-5.29-2a6.67,6.67,0,0,1-3.12-1.93c-.74-1-.73-2.66.35-3.27-1.48,2-4.59,1-6.79-.09L188,355.38l.08-.07c11.87-1.58,23.56,3.7,33.8,9.9,1.25.76,2.48,1.53,3.66,2.39a28.55,28.55,0,0,1,8.73,10.51"/><path class="cls-6" d="M259.66,406.74a97.26,97.26,0,0,1,43.75,17.71A82,82,0,0,1,324.1,446"/><path class="cls-1" d="M235,377.4l.21,2.41c-2.51-1.52-5.52-2.18-7.8-4s-3.35-5.77-1.06-7.59c-1.26,1.62-3.83.59-5.53-.55l-4.72-3.15a6.67,6.67,0,0,1-2.62-2.57c-.5-1.13-.13-2.75,1.06-3.12-1.88,1.61-4.7,0-6.61-1.58l-12.78-10.64.09,0c11.93,1.07,22.17,8.78,30.8,17.09,1,1,2.09,2,3,3.14a28.55,28.55,0,0,1,6.21,12.18"/></svg>