<svg id="Слой_1" data-name="Слой 1" xmlns="http://www.w3.org/2000/svg" viewBox="0 0 975 1235"><defs><style>.cls-1{fill:#fff;}.cls-2{fill:#b76f4b;}.cls-3{fill:#49140f;}.cls-4{opacity:0.5;}.cls-5{fill:#362c3b;}.cls-6{opacity:0.3;}.cls-7{fill:#6d1f0f;}.cls-8{fill:#766d7c;}.cls-9{fill:#992816;}</style></defs><title>BEMSHOW</title><rect class="cls-1" x="-0.47" y="620" width="975.04" height="582.4"/><path class="cls-2" d="M671.63,1035.7c-4.7-1.89-10.3,1.67-11.26,6.5a11.75,11.75,0,0,0-.09,3.43c.22,2.23,1.17,4.2,1.54,6.35a8.51,8.51,0,0,0,1.26-.58,8,8,0,0,0,6.7,3.7,7.76,7.76,0,0,0,6.59-3.85,11.14,11.14,0,0,0,.75-7.69C676.45,1040.29,674.72,1036.94,671.63,1035.7Z"/><path class="cls-3" d="M668.25,1046.57q-1.85.07-3.69.28a3.05,3.05,0,0,0-1.28.35c0,.13.15.19.28.19l5.62-.09"/><path class="cls-3" d="M668.84,1047.61l-4.36.26a.32.32,0,0,0-.25.09.22.22,0,0,0,.08.28.62.62,0,0,0,.31.08,21.34,21.34,0,0,0,5.49-.25c.3-.05.67-.08.83.17"/><rect x="7.56" y="0.05" width="969.86" height="579.31"/><g class="cls-4"><path class="cls-5" d="M83.38,431.2c-8.73-25.55,5.88-62.84,37.78-56,9.87,2.11,16.65,10.05,27.31,10.22,6.36.1,13-2.82,16.05-8.42s1-13.76-4.85-16.23c7,2.42,10.83,10.75,9.45,18s-7.07,13.19-13.76,16.34c-6.87,3.23-15.33,3.69-22,.32A200.58,200.58,0,0,0,144.82,416c12.36,18.54,29.36,23.76,49.26,31.19,11.77,4.4,21.9,10.77,23.78,24.17a21.83,21.83,0,0,1-3.43,15.63,16.8,16.8,0,0,0-4.73-16.82c-4-3.87-9.3-6.08-14.65-7.6-13-3.7-26.71-3.84-40-6a75.27,75.27,0,0,1-42.63-21.95,61.43,61.43,0,0,1-16.17-33.7,10.69,10.69,0,0,0-2.32,3.49A38.59,38.59,0,0,0,108.15,453a29.74,29.74,0,0,1-19.41-11.39A37.16,37.16,0,0,1,83.38,431.2Z"/></g><g class="cls-6"><path class="cls-1" d="M96.56,369.1c6-35.6,46.9-70.16,80.07-41.84,10.26,8.76,13.18,22.41,25.61,29.39,7.41,4.16,17.14,5,24.23.31s9.94-15.54,4.63-22.17c6.67,7.29,5.9,19.53-.34,27.2s-16.7,11-26.57,10.46c-10.13-.57-20.37-5.41-26.07-13.63-.27,10.5-.58,21,.39,31.45,1.71,18.58,8.1,37.79,23.47,50.65,12.6,10.54,30.4,16.13,40.53,28.56l4.23,4.28c-23.57-9.14-49.61-13.52-71.53-25.42-23.2-12.6-40.37-33.49-46.7-56.8a82.14,82.14,0,0,1,2.43-49.91,14.3,14.3,0,0,0-4.95,2.63,51.59,51.59,0,0,0-14.19,66.29A39.76,39.76,0,0,1,96.22,384.8,49.69,49.69,0,0,1,96.56,369.1Z"/></g><g class="cls-4"><path class="cls-5" d="M833.24,446.2c8.73-25.55-5.88-62.84-37.78-56-9.87,2.11-16.65,10.05-27.31,10.22-6.36.1-13-2.82-16.05-8.42s-1-13.76,4.85-16.23c-7,2.42-10.83,10.75-9.45,18s7.07,13.19,13.76,16.34c6.87,3.23,15.33,3.69,22,.32A200.58,200.58,0,0,1,771.81,431c-12.36,18.54-29.36,23.76-49.26,31.19-11.77,4.4-21.9,10.77-23.78,24.17a21.83,21.83,0,0,0,3.43,15.63,16.8,16.8,0,0,1,4.73-16.82c4-3.87,9.3-6.08,14.65-7.6,13-3.7,26.71-3.84,40-6a75.27,75.27,0,0,0,42.63-21.95,61.43,61.43,0,0,0,16.17-33.7,10.69,10.69,0,0,1,2.32,3.49A38.59,38.59,0,0,1,808.47,468a29.74,29.74,0,0,0,19.41-11.39A37.16,37.16,0,0,0,833.24,446.2Z"/></g><g class="cls-6"><path class="cls-1" d="M820.06,375.1c-6-35.6-46.9-70.16-80.07-41.84-10.26,8.76-13.18,22.41-25.61,29.39-7.41,4.16-17.14,5-24.23.31s-9.94-15.54-4.63-22.17c-6.67,7.29-5.9,19.53.34,27.2s16.7,11,26.57,10.46c10.13-.57,20.37-5.41,26.07-13.63.27,10.5.58,21-.39,31.45-1.71,18.58-8.1,37.79-23.47,50.65-12.6,10.54-30.4,16.13-40.53,28.56l-4.23,4.28c23.57-9.14,49.61-13.52,71.53-25.42,23.2-12.6,40.37-33.49,46.7-56.8a82.14,82.14,0,0,0-2.43-49.91,14.3,14.3,0,0,1,4.95,2.63,51.59,51.59,0,0,1,14.19,66.29,39.76,39.76,0,0,0,15.57-25.74A49.69,49.69,0,0,0,820.06,375.1Z"/></g><path class="cls-7" d="M697.39,459.63c-6.37,3.12-12.73,6.36-18.31,10.73-9.36,7.32-13.6,15.91-14.27,27.62,2.49-6.51,8.74-10.83,15.17-13.51,9.3-3.88,19.33-6,28.52-10.07"/><path class="cls-8" d="M521.71,504.08C547.6,497,572.59,484,589.57,463.22s24.8-50.05,15.91-75.38c-10.64-30.33-46-49.64-77.25-42.21l4-5.08c29.53-7.37,60.63,9.32,80.2,32.61,9.87,11.75,17.83,25.68,19.68,40.91,3.55,29.21-16.44,57.22-41.81,72.13S535,505.61,505.85,509.84"/><path class="cls-8" d="M425.15,509.49l-38.3-11.29c-12.42-3.66-24.93-7.36-36.39-13.39A98.55,98.55,0,0,1,318,457.35c-16-21.11-22.41-52.2-7.35-74,8-11.64,21.05-19.11,34.65-23,7.9-2.28,16.62-3.76,22.39-9.62,10.07-10.22,3.46-30.37-10.4-34.09s-29,8.26-30.31,22.55c-2.24-16.92,15.39-31.92,32.43-31s31.51,14,38.94,29.41,9.11,32.79,10.48,49.8"/><path class="cls-5" d="M396.14,355.81A80.38,80.38,0,0,1,381,323.21c-1.74-8.23-2.16-16.88,0-25,2.66-10,9.13-18.78,17-25.55,11.63-10,25.41-16,40-20.06,22.34-6.16,45.88-8.52,67-18,5.24-2.34,10.49-5.27,13.76-10s4-11.65.21-16c-2.82-3.28-7.38-4.4-11.67-5-27.63-3.64-57.3,8.11-82.81-3.13-11.32-5-11.32-14.72-3.14-23.12,11-11.31,27.3-16.28,38.37-27.55a11.54,11.54,0,0,0,3.37-5.26c1-4.25-2.89-8.57-7.22-9.06s-8.57,2.12-11.12,5.66a23.11,23.11,0,0,1,11.43-8.35,15.84,15.84,0,0,1,13.74,2c6.89,5,7.43,15.31,4.83,23.44-1,3.11-2.34,6.12-2.93,9.33s-.3,6.77,1.7,9.35c3.46,4.45,15,2.54,20.2,2.9,8,.56,16.06,1,24,2.28,19.54,3.26,40.85,16.49,40.61,36.3-.18,15-12.85,26.89-26.09,33.89s-28.15,11.2-39.78,20.65c-4.93,4-9.44,10.64-6.57,16.31,1.39,2.76,4.2,4.46,6.87,6l28.92,16.92"/><path class="cls-9" d="M568.11,350.62A38.65,38.65,0,0,1,557.69,379a231.67,231.67,0,0,0-6.52-99.42c4.93,17,1.81,42.53-3,59.15-7.91-44.64-19.25-88.37-41-128.7A328.91,328.91,0,0,0,481.78,170c-6.12-8.25-15.41-16.37-23.41-22.85a122.36,122.36,0,0,1-11,141.47c5.43-15.76,7.31-34.43,1.47-50.21-5.08-13.72-12.35-28.4-24.72-37,12.39,22.39,9.52,47,0,69.94-8.6,20.88-22.18,39.32-32,59.67-9.91,20.63-18.36,46.35-17.25,69.53-8.05-15.19-9.55-33.84-8.51-50.71.87-14.17,2.22-38.78,10.37-50.86-10.57,15.67-15.79,34.24-20.84,52.44-4.72,17-9.47,34.2-9.93,51.83a109.53,109.53,0,0,0,36.67,83.88c19.69,17.29,51.45,28.64,83.16,30.55l.51,0,.61,0c1.16.07,2.32.12,3.49.16h0c45.56,1.44,84.35-23.36,100.45-67C582.21,420.42,576.91,381.26,568.11,350.62Z"/><path class="cls-3" d="M542.08,423.84c-4.06,7.46-8.05,15-12.18,22.39.84-9.55,3.11-18.24,1.95-28-1.18-9.93-5.83-17.28-8.85-26.41,5.3,16-1.28,35.22-15.3,44.62,8.48-22.35,5.37-52.93-3.43-74.75-3.88-9.61-10-18.07-14-27.45a39.65,39.65,0,0,1-7.62,42.27c1.88-12.53.06-25.39-3.55-37.54a194.18,194.18,0,0,0-8.76-23.07c-2.87-6.51-7.05-13-5.93-20.43.32-2.13.7-5.43,2.26-7.06-4.64,4.83-4.73,11.29-5.13,17.53-.54,8.51-.13,16.88-1.38,25.37-3.92,26.72-13.86,55-26.4,78.81-3.68-5.55-4.57-12.45-5-19.1a190.91,190.91,0,0,1-.19-22.72c-1,6.65-4.48,12.61-7.36,18.69-7.52,15.88-13.3,37.35-10.8,54.81-7.75-3.63-13-10.18-16.45-17.88-1.66-3.72-7.91-18.4-5.82-22.17-5.71,10.28-7.84,20.92-8.13,32.49a80,80,0,0,0,26.78,61.25c14.37,12.63,37.57,20.91,60.72,22.31l.37,0,.44,0c.85,0,1.7.09,2.55.12h0c21.95.69,43.76-7.46,58.52-24,6.06-6.8,9.08-16.46,11-25.7.52-2.46,1-4.89,1.36-7.22a117.48,117.48,0,0,0,1.69-19.81C543.38,437.61,540.57,426.61,542.08,423.84Z"/><path class="cls-1" d="M353.78,469.62a53,53,0,0,1-5.4-12.08,90.25,90.25,0,0,1,4.9-66.09A96.42,96.42,0,0,1,389,352c16.61-10.38,32.76-20.61,51.09-28.16,26.36-10.86,55-18,78.77-34.22,19.94-13.59,36.87-36.51,35.33-61.71-1.54-25.4-23.05-44-46.61-49.71-.83-.2-1.66-.38-2.49-.55l-1.28-.26c-.17,0-.34-.1-.51-.13a4.08,4.08,0,0,1-.57-.06,18.28,18.28,0,0,0-2.59-.46q-1.38-.21-2.76-.37-2.77-.32-5.56-.45t-5.57-.12q-1.46,0-2.92.06a115.57,115.57,0,0,0-17.92,2c-11.48,2.2-18.26,4.5-26.91,13-3.62,3.57-7,9.29-3.92,13.33,1.42,1.87,3.82,2.67,6.11,3.21,9.74,2.32,18.59,1.53,27.91-1.65a76.08,76.08,0,0,0,17.68-8.33c9.54-6.35,16.7-16.29,17.52-28a24.24,24.24,0,0,0-3.66-15.08c-3.14-4.77-8-8-13.11-10.32-5.69-2.58-11.46-5-17.11-7.73a33.45,33.45,0,0,1-14.74-14.18,18.23,18.23,0,0,1-1.84-4.71,17.53,17.53,0,0,1-.14-5.81A27.38,27.38,0,0,1,461.85,95c5.22-4.74,12.46-5.88,19.1-7.69a0,0,0,0,0,0,0c-12,3.27-25.63,7.32-31.43,19.46a18.55,18.55,0,0,0-.57,15.51c2.05,4.69,6,8.26,10.27,10.92,10.24,6.37,22.82,7.36,33,13.83a24.1,24.1,0,0,1,11,14.75,29.94,29.94,0,0,1-1.71,17.65c-5.1,12.89-17,20.52-29.48,25.24a195.14,195.14,0,0,1-19.39,5.9c-7.32,1.93-16.36,3.56-22.09-2.77-11.79-13,15.75-24.54,24.71-27.28,31.31-9.59,68-4.92,85.12,26.38,13.78,25.21,6.53,54.89-13,74.55-23.26,23.41-57.71,30.27-87.28,42.45-14,5.75-27.67,12.15-41,19.23-11.93,6.34-23.58,13.34-34.09,21.86-20.09,16.27-36.24,39.47-37,66.11a48.41,48.41,0,0,0,13.29,34.67,63.23,63.23,0,0,0,8.82,7.75q2.49,1.82,5.13,3.43c1.7,1,3.65,2.57,5.72,2.56.54,0-1.26-1.82-1.29-1.85a22.32,22.32,0,0,1-2.22-2.53C356.11,473.33,354.95,471.47,353.78,469.62Z"/><path class="cls-1" d="M419.81,508.49l1,.71A10.23,10.23,0,0,0,425,511c-15.12-1.08-29.94-11.79-35.12-26.14a30.33,30.33,0,0,1-1.7-13.33C389.67,457,399.48,445,411,436.64c10.93-8,23.52-13.73,36.16-18.38a322.83,322.83,0,0,1,38.63-11.09c13.11-3,26.31-5.65,39.44-8.6a363.49,363.49,0,0,0,38.6-10.51,169.94,169.94,0,0,0,35.78-16.67c10.45-6.62,20.58-15.86,22.42-28.73a24.3,24.3,0,0,0-3-16.31c-3.34-5.32-9-8.47-14.89-10.33a58.31,58.31,0,0,0-39,1.67,36.26,36.26,0,0,0-8.74,4.62c9.37-1.25,18.51-2.56,27.6,1.06,8.51,3.39,15.65,11.31,16,20.46.27,7.26-3.58,14-8.08,19.75-24,30.46-65.56,36.79-100.57,47.63-32,9.91-71.06,24.13-85.13,57.41-2.27,5.36-3.69,11.23-3,17C404.32,495.38,412.1,503.08,419.81,508.49Z"/><path class="cls-7" d="M686.77,439.5a33,33,0,0,1-6.21,7.93c-2.57,2.35-5.81,4.57-9.41,4.7-3.41.13-7-2.25-7.41-5.64a12.7,12.7,0,0,0,6.69,10.69,14.62,14.62,0,0,0,12.76.27,17.27,17.27,0,0,0,8.74-9.48,18.9,18.9,0,0,0,1.22-7.88,35.16,35.16,0,0,0-1.4-6.89c-2.35,1.26-3.58,3.85-4.9,6.16Z"/><path class="cls-2" d="M687.33,413.53c-4.68-1.88-10.25,1.66-11.2,6.47a11.69,11.69,0,0,0-.09,3.42c.22,2.21,1.16,4.17,1.53,6.31a8.47,8.47,0,0,0,1.25-.58,8,8,0,0,0,6.67,3.68,7.72,7.72,0,0,0,6.55-3.82,11.08,11.08,0,0,0,.75-7.65C692.13,418.11,690.41,414.77,687.33,413.53Z"/><path class="cls-1" d="M676.51,419.77c1.12-.17,2.25-.35,3.38-.5a108.38,108.38,0,0,1,11.94-1,14.51,14.51,0,0,1,.72,2l-15.45,1.93a5.07,5.07,0,0,1-1.12.05,10.22,10.22,0,0,1,.16-2.28l0-.16Z"/><path class="cls-3" d="M684,424.35q-1.84.07-3.67.28A3,3,0,0,0,679,425c0,.13.15.19.28.19l5.59-.09"/><path d="M713.61,415.65a3.27,3.27,0,0,1-.55,1.64,3.4,3.4,0,0,1-2.42,1.26c.31,0-.95,2.42-1.13,2.61a3.31,3.31,0,0,1-3,.95c-.09,0-1.58,1.25-1.87,1.37a5.48,5.48,0,0,1-2.67.43c-.54-.05-1-.24-1.47,0s-1.05,1-1.76,1.25c-.91.37-1.87.22-2.77.6a14.76,14.76,0,0,1-3.21.94,15.89,15.89,0,0,1-6.91-.41,17.92,17.92,0,0,1-8.37-5.33c-1.81-2-2.33-4.68.13-6.42a14.68,14.68,0,0,1,8.81-2.65c3,.08,5.34,2.06,7.07,4.38a34.57,34.57,0,0,1,3.64,6.77,2.17,2.17,0,0,1,2.8-.39,4.33,4.33,0,0,1,5.64-1.75,4.41,4.41,0,0,1,3.44-2.47,1.15,1.15,0,0,0,.64-.19,1.17,1.17,0,0,0,.28-.61,4,4,0,0,1,2.14-2.51,2.19,2.19,0,0,0,.88-.53,2.05,2.05,0,0,0,.23-1.33,5.37,5.37,0,0,1,1.05-3.25c-.55-.87-1.21-2-.86-3,.14-.39.43-.76.39-1.18a1.74,1.74,0,0,0-.22-.58,6.6,6.6,0,0,1-.62-3.92,3.85,3.85,0,0,0,.8,1.8,6.33,6.33,0,0,1,1,1.34,1.45,1.45,0,0,1-.14,1.56,7.18,7.18,0,0,1,.49,3.13c0,.44-.26.71-.21,1.11.07.6.65,1,.61,1.76a2.51,2.51,0,0,1-1,1.9A2.26,2.26,0,0,0,713.61,415.65Z"/><path class="cls-2" d="M686.89,475.49a7.07,7.07,0,0,1,.27-.73c1.37-3.11,4.22-5.6,5.92-8.53a8.85,8.85,0,0,0,1.17-3.69,13.13,13.13,0,0,0-2.33-7.85c-.17-.28-.3-.74-.68-.79a2.49,2.49,0,0,0-.43,0,3.16,3.16,0,0,1-.61-.05,11.58,11.58,0,0,1-1.51-.31,4.38,4.38,0,0,1-1.58-.84l-1.12-.94s-.58-.53-.6-.52c2.35-1.7,2.88-5,2.89-7.85s-.25-6,1.15-8.51a4.55,4.55,0,0,1,1.76-1.87,6.64,6.64,0,0,1,2.06-.58c2.94-.49,5.85-.73,8.83-.94a49.43,49.43,0,0,1,8.3,0c4.83.46,9.69,2,13.36,5.18a12.35,12.35,0,0,1,4.14,6.46,7.76,7.76,0,0,1-1.94,7.22,8,8,0,0,0-5.26-9.57c-4.8-1.41-9.45,1.95-14.32,3.41a68.35,68.35,0,0,1,6.64,7.37c2.73,3.52,5.21,7.62,5,12.07-.23,5.85-5,10.58-10.17,13.34-4.55,2.43-9.08,4.53-8.89,10.39a35,35,0,0,0,1.37,7.6c.43,1.66,2.26,6,1.34,7.53a15.81,15.81,0,0,0-3.86-6.43q-3.62-4-6.92-8.3a24.31,24.31,0,0,1-3.7-6.07A9.67,9.67,0,0,1,686.89,475.49Z"/><path class="cls-3" d="M684.56,425.39l-4.34.26a.32.32,0,0,0-.25.09.22.22,0,0,0,.08.28.61.61,0,0,0,.31.08,21.22,21.22,0,0,0,5.46-.25c.29-.05.66-.08.83.17"/><path class="cls-7" d="M686.38,450.35a2.81,2.81,0,0,1,.16,1.88l-.32-.27a2.46,2.46,0,0,0-.12-1.3Z"/><path class="cls-2" d="M689.74,433.16a.05.05,0,0,0,0-.1.05.05,0,0,0,0,.1Z"/><path d="M708.55,412.09a3.27,3.27,0,0,1-.55,1.64,3.4,3.4,0,0,1-2.42,1.26c.31,0-.95,2.42-1.13,2.61a3.31,3.31,0,0,1-3,.95c-.09,0-1.58,1.25-1.87,1.37a5.48,5.48,0,0,1-2.67.43c-.54-.05-1-.24-1.47,0-.88.43-2.56,2.43-3.59,1a1.41,1.41,0,0,1-.15-1.2,1.64,1.64,0,0,1,1.26-1.26c.15,0,2.07-.09,1.9.22a4.33,4.33,0,0,1,5.64-1.75,4.41,4.41,0,0,1,3.44-2.47,1.15,1.15,0,0,0,.64-.19,1.17,1.17,0,0,0,.28-.61,4,4,0,0,1,2.14-2.51,2.19,2.19,0,0,0,.88-.53,2.05,2.05,0,0,0,.23-1.33,5.37,5.37,0,0,1,1.05-3.25c-.55-.87-1.21-2-.86-3,.14-.39.43-.76.39-1.18a1.74,1.74,0,0,0-.22-.58,6.6,6.6,0,0,1-.62-3.92,3.85,3.85,0,0,0,.8,1.8,6.33,6.33,0,0,1,1,1.34,1.45,1.45,0,0,1-.14,1.56,7.18,7.18,0,0,1,.49,3.13c0,.44-.26.71-.21,1.11.07.6.65,1,.61,1.76a2.51,2.51,0,0,1-1,1.9A2.26,2.26,0,0,0,708.55,412.09Z"/><path d="M697.19,431.88h.08c.12,0,.22.35.28.46l.26.51q.26.52.5,1.06.48,1.07.86,2.19a28,28,0,0,1,1.14,4.63,31,31,0,0,1,.06,9.39,18.8,18.8,0,0,1-2.59,7.47,11.37,11.37,0,0,1-2.6,2.87c-1.11.85-2.56,1.68-4,1.19a4.23,4.23,0,0,1-2.32-2.51,11.89,11.89,0,0,1-.59-1.86q-.31-1.27-.49-2.56a4.81,4.81,0,0,1-.09-1.53,3,3,0,0,1,.4.16c.24.11.2.86.23,1.1q.08.61.19,1.21a20.51,20.51,0,0,0,.56,2.38,5.08,5.08,0,0,0,1.72,2.79,2.31,2.31,0,0,0,1.65.38,4.86,4.86,0,0,0,2-.89,10.39,10.39,0,0,0,2.6-2.61,17.27,17.27,0,0,0,2.7-7,30.29,30.29,0,0,0,.17-8.92,26.82,26.82,0,0,0-2.65-8.77q-.2-.39-.41-.76c-.08-.15-.15-.2,0-.28A.94.94,0,0,1,697.19,431.88Z"/><path d="M693.44,432.44a26.13,26.13,0,0,1,3.48,12.86,26.4,26.4,0,0,1-.77,6.6,25,25,0,0,1-1.06,3.3,6.65,6.65,0,0,1-1.57,2.76,1.45,1.45,0,0,1-1.9.17,4.18,4.18,0,0,1-1.17-2,10,10,0,0,1-.3-1.21c0-.13-.22-1-.09-1s.16.2.17.29,0,.32.05.48a8,8,0,0,0,.19,1,6.83,6.83,0,0,0,.75,1.81,1.34,1.34,0,0,0,1.61.73,2.41,2.41,0,0,0,1.29-1.23,21.33,21.33,0,0,0,2-5.79,26.45,26.45,0,0,0-.25-12.2,25.32,25.32,0,0,0-2.62-6.37C693.21,432.43,693.37,432.34,693.44,432.44Z"/><path class="cls-1" d="M684.52,418.18a17.13,17.13,0,0,0,3.43-2,.74.74,0,0,0,.32-.38.75.75,0,0,0-.1-.47l-.71-1.53,1.39,1.39-.93-1.69a7.39,7.39,0,0,0,1.51,1.37,17.91,17.91,0,0,0,1.89-2.06,2.12,2.12,0,0,0,.6-2c-.22-.48-.78-.79-.87-1.32l1.72,1.3a17.7,17.7,0,0,0,2.17-6.25l-.06-.1a42.75,42.75,0,0,0-12.15,13.25"/><path class="cls-7" d="M691.92,411.84a7.84,7.84,0,0,1-2.84-2.43,42.57,42.57,0,0,1,5.82-5l.06.1a17.7,17.7,0,0,1-2.17,6.25l-1.72-1.3c.09.52.65.83.87,1.32A1.36,1.36,0,0,1,691.92,411.84Z"/><path class="cls-1" d="M686.19,419.29a9.23,9.23,0,0,0,2.35,0c.36,0,.82-.25.74-.6s-.37-.49-.21-.69a1.3,1.3,0,0,0,1.22.48,3.82,3.82,0,0,0,1.29-.47,1.06,1.06,0,0,0,.48-.38c.2-.36-.07-.79-.33-1.11a1.14,1.14,0,0,0,1.1.38,3.35,3.35,0,0,0,1.12-.48l1.77-1v-.1a17.59,17.59,0,0,0-10.28,3.17"/><path class="cls-7" d="M695.72,415.28v.1l-1.77,1a3.35,3.35,0,0,1-1.12.48,1.14,1.14,0,0,1-1.1-.38c.26.32.53.75.33,1.11a1.06,1.06,0,0,1-.48.38h0a2.86,2.86,0,0,1-.6-.48,2.57,2.57,0,0,1-.64-1.47A17.48,17.48,0,0,1,695.72,415.28Z"/><path d="M659.22,452.08a7.91,7.91,0,0,1-.22,4,8.45,8.45,0,0,1-.43,1c-.33.67-.24.52-1.24.54s-1.08,0-1.24-1a4.34,4.34,0,0,1,0-1.15c0-.32-.47-.32-.5,0-.12,1.28.73,4.61,2.62,3,1.72-1.44,1.88-4.61,1.51-6.61-.06-.32-.54-.18-.48.13Z"/><g class="cls-6"><path class="cls-1" d="M766.8,269.12a39.25,39.25,0,0,1-9.62,28.12l-.12-.13a43.12,43.12,0,0,0-3.66-3.65A39.44,39.44,0,0,0,758,262.66a35.5,35.5,0,0,1-8.73,27.5c-.21-.56,0-1.32.67-2.91l-.1-.15q-.87.52-1.68,1.13l-.28.23c-.44.34-.87.69-1.28,1.06l-.17.17a21.2,21.2,0,0,0-4.53-1.46c0-.49.06-1,.06-1.48a6.58,6.58,0,0,0-.39-2.48l0,0a3.33,3.33,0,0,0-.2-.4l-.09-.12a2.69,2.69,0,0,0-.19-.27,2.45,2.45,0,0,0-.35-.34,5.39,5.39,0,0,0-1.28-.64,4.25,4.25,0,0,1-.56-.27,2.1,2.1,0,0,1-.53-.44l3.42.67a36.61,36.61,0,0,0-1.22-5.77q-.42-1.43-1-2.84T738.41,271l-.12-.08,0,0c-.32,1.07-.61,2.17-.87,3.27-.1.4-.18.8-.27,1.2-.16.7-.31,1.41-.44,2.12-.09.5-.18,1-.26,1.51s-.2,1.25-.29,1.88-.15,1.09-.21,1.64c0,.22-.06.45-.07.68-.2,1.87-.34,3.75-.4,5.66-.2.09-.39.19-.58.3a18.85,18.85,0,0,0-8.43,11c-1,3.45.5,6.37,3.08,8.36.11.32.22.64.35,1l.11.28c.17.41.37.81.57,1.2l.24.46.36.63a32.3,32.3,0,0,0,2,3.07c2.43,3.26,5.52,5.57,8.07,8.59a11.55,11.55,0,0,0,1-1.88c4,2.37,8.62,2.57,11.92.47a10.83,10.83,0,0,0,4.58-8.81c.07-1.9-.67-3.57-.77-5.41a28.76,28.76,0,0,1,.45-4.16,28.81,28.81,0,0,0,8.46-12.72A36.94,36.94,0,0,0,766.8,269.12Z"/></g><path d="M660.13,452.2c.68.05.9,2.4.94,2.81a10.26,10.26,0,0,1-.08,2.53c0,.29-.1.57-.17.85-.18.74-.09.8-.91,1s-.92-.06-1.3-.74a4.65,4.65,0,0,1-.52-1.67c0-.31-.54-.32-.5,0a4.72,4.72,0,0,0,1.62,3.2c.81.59,1.43.21,1.79-.65a9.86,9.86,0,0,0,.52-5c-.11-.87-.24-2.76-1.39-2.85-.32,0-.32.48,0,.5Z"/><g class="cls-6"><path class="cls-5" d="M788.75,476.21a.25.25,0,0,0,0-.5.25.25,0,0,0,0,.5Z"/></g><g class="cls-4"><path class="cls-5" d="M803.37,360.49V359a.05.05,0,0,0-.1,0v1.48a.05.05,0,0,0,.1,0Z"/></g><path class="cls-9" d="M681.74,1082c-6.4,3.13-12.8,6.4-18.41,10.79-9.41,7.36-13.67,16-14.35,27.77,2.5-6.54,8.79-10.89,15.25-13.59,9.35-3.9,19.43-6,28.67-10.13"/><path class="cls-8" d="M516.43,1126.73c26-7.09,51.15-20.19,68.23-41.08s24.93-50.32,16-75.78C590,979.37,554.45,960,523,967.43l4-5.11c29.68-7.41,61,9.36,80.63,32.79,9.93,11.81,17.92,25.81,19.79,41.13,3.57,29.37-16.52,57.53-42,72.51s-55.62,19.52-84.89,23.77"/><path class="cls-8" d="M419.35,1132.17l-38.5-11.35c-12.49-3.68-25.07-7.4-36.59-13.46a99.07,99.07,0,0,1-32.6-27.61c-16.13-21.22-22.53-52.48-7.38-74.42,8.08-11.7,21.17-19.22,34.83-23.16,7.95-2.29,16.71-3.78,22.51-9.67,10.12-10.27,3.48-30.53-10.45-34.28S322,946.53,320.7,960.89c-2.25-17,15.47-32.09,32.6-31.14s31.68,14.12,39.15,29.57,9.16,33,10.53,50.07"/><path class="cls-5" d="M390.19,977.66A80.81,80.81,0,0,1,375,944.89c-1.75-8.28-2.17-17,0-25.14,2.68-10.09,9.18-18.88,17.09-25.69,11.69-10.06,25.54-16.12,40.23-20.17,22.46-6.19,46.13-8.57,67.41-18.06,5.27-2.35,10.55-5.3,13.83-10s4-11.71.21-16.08c-2.84-3.29-7.42-4.42-11.73-5-27.78-3.66-57.61,8.15-83.25-3.14-11.38-5-11.38-14.8-3.15-23.24,11.08-11.37,27.45-16.37,38.57-27.7a11.6,11.6,0,0,0,3.38-5.29c1-4.27-2.9-8.62-7.26-9.11s-8.61,2.13-11.18,5.69a23.23,23.23,0,0,1,11.49-8.39,15.93,15.93,0,0,1,13.81,2c6.93,5.06,7.46,15.39,4.86,23.56-1,3.13-2.36,6.15-2.94,9.38s-.3,6.81,1.71,9.4c3.47,4.48,15.07,2.55,20.31,2.92,8.06.56,16.15,1,24.13,2.3,19.64,3.28,41.07,16.58,40.83,36.5-.18,15.06-12.92,27-26.23,34.07s-28.31,11.26-40,20.76c-5,4-9.49,10.7-6.61,16.4,1.4,2.77,4.22,4.49,6.9,6.06l29.07,17"/><path class="cls-9" d="M563.09,972.45A38.85,38.85,0,0,1,552.61,1001a232.91,232.91,0,0,0-6.56-100c5,17.05,1.82,42.76-3,59.47-8-44.88-19.35-88.85-41.17-129.39a330.67,330.67,0,0,0-25.57-40.27c-6.15-8.29-15.49-16.46-23.53-23a123,123,0,0,1-11,142.23c5.46-15.84,7.35-34.61,1.48-50.48-5.11-13.8-12.42-28.55-24.85-37.17,12.46,22.51,9.57,47.21,0,70.31-8.65,21-22.3,39.53-32.13,60-10,20.74-18.46,46.6-17.34,69.9-8.1-15.27-9.6-34-8.55-51,.88-14.24,2.23-39,10.43-51.13-10.62,15.75-15.87,34.42-21,52.72-4.74,17.08-9.52,34.38-10,52.1a110.12,110.12,0,0,0,36.87,84.33c19.79,17.38,51.73,28.79,83.6,30.72l.51,0,.61,0c1.17.07,2.34.12,3.51.16h0c45.8,1.44,84.8-23.49,101-67.36C577.26,1042.62,571.93,1003.25,563.09,972.45Z"/><path class="cls-3" d="M536.91,1046.06c-4.08,7.5-8.09,15-12.25,22.51.85-9.6,3.12-18.34,2-28.16-1.18-10-5.86-17.37-8.9-26.55,5.33,16.12-1.29,35.4-15.38,44.86,8.52-22.47,5.4-53.21-3.45-75.14-3.9-9.66-10-18.17-14.11-27.6a39.86,39.86,0,0,1-7.67,42.5c1.89-12.6.06-25.53-3.57-37.74a195.22,195.22,0,0,0-8.8-23.2c-2.89-6.55-7.09-13.07-6-20.54.32-2.14.7-5.46,2.27-7.1-4.67,4.86-4.76,11.35-5.15,17.62-.54,8.55-.13,17-1.38,25.51-3.94,26.87-13.93,55.26-26.54,79.23-3.7-5.58-4.6-12.52-5.05-19.2a191.93,191.93,0,0,1-.19-22.84c-1,6.68-4.51,12.68-7.4,18.79-7.57,16-13.38,37.55-10.86,55.1-7.8-3.65-13.1-10.24-16.54-18-1.66-3.74-7.95-18.5-5.85-22.29-5.74,10.34-7.88,21-8.18,32.66a80.4,80.4,0,0,0,26.92,61.57c14.45,12.69,37.77,21,61,22.43l.37,0,.45,0c.85,0,1.71.09,2.56.12h0c22.07.7,44-7.5,58.83-24.14,6.09-6.83,9.13-16.55,11.09-25.83.52-2.47,1-4.91,1.37-7.26a118.11,118.11,0,0,0,1.7-19.92C538.22,1059.9,535.39,1048.85,536.91,1046.06Z"/><path d="M347.61,1092.09a53.26,53.26,0,0,1-5.43-12.14,90.73,90.73,0,0,1,4.92-66.44A96.94,96.94,0,0,1,383,973.86c16.7-10.43,32.93-20.72,51.36-28.31,26.5-10.91,55.26-18.08,79.19-34.4,20-13.67,37.06-36.71,35.52-62-1.55-25.54-23.18-44.26-46.86-50-.83-.2-1.67-.38-2.51-.55l-1.29-.26c-.17,0-.34-.1-.51-.13a4.1,4.1,0,0,1-.57-.06,18.38,18.38,0,0,0-2.6-.47q-1.38-.21-2.77-.37-2.79-.32-5.59-.45t-5.6-.12q-1.47,0-2.93.06a116.19,116.19,0,0,0-18,2.05c-11.54,2.21-18.35,4.53-27.06,13.12-3.63,3.59-7,9.34-3.94,13.4,1.43,1.88,3.84,2.68,6.14,3.23,9.79,2.33,18.69,1.54,28.06-1.66a76.48,76.48,0,0,0,17.77-8.38c9.59-6.38,16.79-16.38,17.62-28.12a24.37,24.37,0,0,0-3.68-15.16c-3.16-4.79-8-8-13.18-10.37-5.72-2.59-11.52-5-17.2-7.77a33.63,33.63,0,0,1-14.81-14.26,18.32,18.32,0,0,1-1.85-4.74,17.63,17.63,0,0,1-.14-5.84,27.52,27.52,0,0,1,8.69-16.86c5.25-4.76,12.53-5.91,19.2-7.73a0,0,0,0,0,0,0c-12,3.29-25.77,7.36-31.59,19.57a18.65,18.65,0,0,0-.58,15.59c2.06,4.71,6,8.3,10.33,11,10.3,6.41,22.94,7.4,33.17,13.91a24.23,24.23,0,0,1,11,14.83,30.1,30.1,0,0,1-1.72,17.75c-5.13,13-17.07,20.63-29.63,25.38A196.18,196.18,0,0,1,447,831.6c-7.36,1.94-16.45,3.58-22.21-2.78-11.85-13.09,15.84-24.67,24.84-27.43,31.48-9.64,68.37-4.95,85.58,26.52,13.85,25.34,6.56,55.18-13.07,74.94-23.38,23.53-58,30.43-87.75,42.67-14,5.78-27.82,12.22-41.22,19.34-12,6.37-23.7,13.41-34.28,22-20.2,16.35-36.44,39.68-37.17,66.46A48.67,48.67,0,0,0,335,1088.14a63.57,63.57,0,0,0,8.87,7.79q2.5,1.83,5.16,3.45c1.71,1,3.66,2.58,5.75,2.57.54,0-1.27-1.83-1.3-1.86a22.43,22.43,0,0,1-2.23-2.54C349.95,1095.82,348.78,1093.95,347.61,1092.09Z"/><path d="M414,1131.16l1,.72a10.28,10.28,0,0,0,4.17,1.83c-15.21-1.09-30.1-11.86-35.3-26.28a30.49,30.49,0,0,1-1.71-13.41c1.5-14.67,11.35-26.7,22.9-35.1,11-8,23.64-13.8,36.36-18.48a324.55,324.55,0,0,1,38.84-11.15c13.18-3.05,26.45-5.68,39.65-8.64a365.44,365.44,0,0,0,38.81-10.57,170.85,170.85,0,0,0,36-16.76c10.51-6.65,20.69-15.95,22.54-28.89a24.43,24.43,0,0,0-3-16.39c-3.35-5.35-9.09-8.51-15-10.38A58.62,58.62,0,0,0,560,939.34a36.46,36.46,0,0,0-8.79,4.65c9.42-1.26,18.61-2.57,27.75,1.06,8.55,3.4,15.73,11.37,16.08,20.57.28,7.3-3.6,14.12-8.12,19.86-24.12,30.63-65.91,37-101.11,47.89-32.18,10-71.44,24.26-85.59,57.71-2.28,5.39-3.71,11.29-3,17.1C398.42,1118,406.24,1125.72,414,1131.16Z"/><path class="cls-9" d="M670.05,1061.81a33.18,33.18,0,0,1-6.25,8c-2.58,2.37-5.84,4.59-9.46,4.73-3.43.13-7-2.27-7.45-5.67a12.77,12.77,0,0,0,6.72,10.75,14.7,14.7,0,0,0,12.83.27,17.36,17.36,0,0,0,8.79-9.53,19,19,0,0,0,1.23-7.92,19.61,19.61,0,0,0-.37-2.75c-.22-1.09-.51-2.17-.79-3.24,0-.16-.08-.61-.26-.68s-.38.16-.52.26a10.4,10.4,0,0,0-1.09,1,22.19,22.19,0,0,0-3.31,4.73Z"/><path class="cls-1" d="M660.75,1042c1.13-.17,2.26-.35,3.39-.51a109,109,0,0,1,12-1,14.59,14.59,0,0,1,.72,2l-15.53,1.94a5.09,5.09,0,0,1-1.13.05,10.28,10.28,0,0,1,.16-2.3l0-.16Z"/><path d="M698,1037.82a3.28,3.28,0,0,1-.55,1.65,3.42,3.42,0,0,1-2.43,1.26c.31,0-1,2.43-1.14,2.62a3.33,3.33,0,0,1-3.06,1c-.09,0-1.59,1.25-1.88,1.38a5.51,5.51,0,0,1-2.68.43c-.54-.05-1-.24-1.47,0s-1.06,1-1.77,1.26c-.92.37-1.88.23-2.79.6a14.84,14.84,0,0,1-3.23.95,16,16,0,0,1-7-.41,18,18,0,0,1-8.41-5.35c-1.82-2-2.34-4.7.13-6.46a14.76,14.76,0,0,1,8.85-2.67c3,.08,5.37,2.07,7.11,4.41a34.76,34.76,0,0,1,3.66,6.81,2.18,2.18,0,0,1,2.81-.39,4.35,4.35,0,0,1,5.67-1.76,4.44,4.44,0,0,1,3.46-2.49,1.16,1.16,0,0,0,.65-.19,1.17,1.17,0,0,0,.29-.61,4,4,0,0,1,2.16-2.53,2.2,2.2,0,0,0,.88-.53,2.06,2.06,0,0,0,.23-1.34,5.4,5.4,0,0,1,1.06-3.27c-.56-.88-1.21-2-.86-3,.14-.4.43-.76.39-1.18a1.75,1.75,0,0,0-.22-.58,6.63,6.63,0,0,1-.63-3.94,3.87,3.87,0,0,0,.81,1.81,6.36,6.36,0,0,1,1,1.35,1.46,1.46,0,0,1-.14,1.57,7.22,7.22,0,0,1,.5,3.15c0,.44-.26.71-.21,1.11.07.6.65,1,.62,1.76a2.52,2.52,0,0,1-1.05,1.91A2.27,2.27,0,0,0,698,1037.82Z"/><path class="cls-2" d="M671.18,1098a7.11,7.11,0,0,1,.28-.73c1.38-3.12,4.24-5.63,6-8.57a8.9,8.9,0,0,0,1.18-3.71,13.2,13.2,0,0,0-2.34-7.89c-.17-.28-.3-.74-.68-.79a2.51,2.51,0,0,0-.43,0,3.18,3.18,0,0,1-.61-.05,11.65,11.65,0,0,1-1.52-.31,4.41,4.41,0,0,1-1.59-.84l-1.13-.94s-.59-.53-.6-.52c2.36-1.71,2.89-5,2.91-7.89s-.25-6,1.16-8.56a4.58,4.58,0,0,1,1.77-1.88,6.67,6.67,0,0,1,2.08-.58c3-.49,5.89-.73,8.88-.95a49.69,49.69,0,0,1,8.35,0c4.86.46,9.74,2,13.43,5.21a12.41,12.41,0,0,1,4.16,6.5,7.8,7.8,0,0,1-1.95,7.25,8.08,8.08,0,0,0-5.29-9.63c-4.83-1.42-9.5,2-14.39,3.43a68.71,68.71,0,0,1,6.67,7.4c2.75,3.54,5.24,7.66,5.06,12.14-.23,5.88-5,10.63-10.23,13.41-4.57,2.44-9.13,4.55-8.93,10.44a35.18,35.18,0,0,0,1.38,7.65c.44,1.67,2.27,6,1.35,7.57a15.89,15.89,0,0,0-3.88-6.46q-3.64-4-7-8.35a24.44,24.44,0,0,1-3.72-6.1A9.72,9.72,0,0,1,671.18,1098Z"/><path class="cls-9" d="M670.66,1072.71a2.83,2.83,0,0,1,.16,1.89l-.32-.27a2.47,2.47,0,0,0-.12-1.3Z"/><path class="cls-2" d="M674,1055.43a.05.05,0,0,0,0-.1.05.05,0,0,0,0,.1Z"/><path d="M693,1034.25a3.28,3.28,0,0,1-.55,1.65,3.42,3.42,0,0,1-2.43,1.26c.31,0-1,2.43-1.14,2.62a3.33,3.33,0,0,1-3.06,1c-.09,0-1.59,1.25-1.88,1.38a5.51,5.51,0,0,1-2.68.43c-.54-.05-1-.24-1.47,0-.88.44-2.57,2.44-3.61,1a1.42,1.42,0,0,1-.15-1.21,1.65,1.65,0,0,1,1.27-1.27c.15,0,2.08-.09,1.91.22a4.35,4.35,0,0,1,5.67-1.76,4.44,4.44,0,0,1,3.46-2.49,1.16,1.16,0,0,0,.65-.19,1.17,1.17,0,0,0,.29-.61,4,4,0,0,1,2.16-2.53,2.2,2.2,0,0,0,.88-.53,2.06,2.06,0,0,0,.23-1.34,5.4,5.4,0,0,1,1.06-3.27c-.56-.88-1.21-2-.86-3,.14-.4.43-.76.39-1.18a1.75,1.75,0,0,0-.22-.58,6.63,6.63,0,0,1-.63-3.94,3.87,3.87,0,0,0,.81,1.81,6.36,6.36,0,0,1,1,1.35,1.46,1.46,0,0,1-.14,1.57,7.22,7.22,0,0,1,.5,3.15c0,.44-.26.71-.21,1.11.07.6.65,1,.62,1.76a2.52,2.52,0,0,1-1.05,1.91A2.27,2.27,0,0,0,693,1034.25Z"/><path d="M681.54,1054.14h.08c.12,0,.22.35.28.46l.27.51q.26.53.5,1.07.48,1.08.86,2.2a28.18,28.18,0,0,1,1.15,4.65,31.2,31.2,0,0,1,.06,9.44,18.9,18.9,0,0,1-2.61,7.51,11.43,11.43,0,0,1-2.61,2.89c-1.12.86-2.58,1.68-4,1.19a4.25,4.25,0,0,1-2.33-2.53,12,12,0,0,1-.59-1.87q-.31-1.27-.49-2.57a4.84,4.84,0,0,1-.09-1.54,3,3,0,0,1,.4.16c.24.11.2.87.23,1.11q.08.61.19,1.22a20.62,20.62,0,0,0,.57,2.39,5.11,5.11,0,0,0,1.73,2.8,2.32,2.32,0,0,0,1.65.39,4.89,4.89,0,0,0,2-.89,10.45,10.45,0,0,0,2.61-2.63,17.36,17.36,0,0,0,2.71-7.08,30.45,30.45,0,0,0,.17-9,27,27,0,0,0-2.67-8.82q-.2-.39-.41-.77c-.08-.15-.15-.21,0-.28A.94.94,0,0,1,681.54,1054.14Z"/><path d="M677.76,1054.71a26.26,26.26,0,0,1,3.5,12.92,26.54,26.54,0,0,1-.77,6.63,25.16,25.16,0,0,1-1.07,3.31,6.69,6.69,0,0,1-1.58,2.78,1.46,1.46,0,0,1-1.91.17,4.2,4.2,0,0,1-1.18-2,10.08,10.08,0,0,1-.31-1.22c0-.13-.22-1-.09-1s.16.2.17.29,0,.32.05.48a8.06,8.06,0,0,0,.19,1,6.86,6.86,0,0,0,.75,1.82,1.34,1.34,0,0,0,1.62.74,2.42,2.42,0,0,0,1.29-1.23,21.44,21.44,0,0,0,2-5.82,26.59,26.59,0,0,0-.25-12.27,25.45,25.45,0,0,0-2.63-6.4C677.53,1054.69,677.7,1054.6,677.76,1054.71Z"/><path class="cls-1" d="M668.79,1040.37a17.22,17.22,0,0,0,3.45-2,.74.74,0,0,0,.32-.38.76.76,0,0,0-.1-.48l-.71-1.54,1.4,1.4-.94-1.7a7.43,7.43,0,0,0,1.52,1.38,18,18,0,0,0,1.9-2.07,2.13,2.13,0,0,0,.6-2.05c-.22-.49-.78-.8-.87-1.32l1.73,1.31a17.8,17.8,0,0,0,2.18-6.28l-.06-.1A43,43,0,0,0,667,1039.87"/><path class="cls-7" d="M676.23,1034a7.88,7.88,0,0,1-2.86-2.45,42.79,42.79,0,0,1,5.85-5l.06.1a17.8,17.8,0,0,1-2.18,6.28l-1.73-1.31c.09.53.65.84.87,1.32A1.37,1.37,0,0,1,676.23,1034Z"/><path class="cls-1" d="M670.47,1041.48a9.28,9.28,0,0,0,2.36,0c.36,0,.82-.25.75-.61s-.37-.5-.21-.7a1.3,1.3,0,0,0,1.23.49,3.84,3.84,0,0,0,1.3-.47,1.06,1.06,0,0,0,.49-.38c.2-.36-.07-.8-.33-1.12a1.15,1.15,0,0,0,1.11.38,3.37,3.37,0,0,0,1.13-.48l1.78-1v-.1a17.68,17.68,0,0,0-10.34,3.19"/><path class="cls-7" d="M680.06,1037.46v.1l-1.78,1a3.37,3.37,0,0,1-1.13.48,1.15,1.15,0,0,1-1.11-.38c.26.32.53.76.33,1.12a1.06,1.06,0,0,1-.49.38h0a2.88,2.88,0,0,1-.61-.48,2.58,2.58,0,0,1-.65-1.47A17.57,17.57,0,0,1,680.06,1037.46Z"/><path d="M654.73,1074.47a.15.15,0,0,0,0,.11,8.35,8.35,0,0,1-.25,3.88,8.5,8.5,0,0,1-.43,1.05,4.16,4.16,0,0,1-.57.87,1.5,1.5,0,0,1-.41.36.7.7,0,0,1-.52.07.91.91,0,0,1-.4-.29,3.38,3.38,0,0,1-.65-2c0-.34,0-.47-.27-.7s-.2.31-.2.43a4.94,4.94,0,0,0,.06.66c.19,1.26,1.07,3.32,2.59,2a3.82,3.82,0,0,0,.87-1.09,7,7,0,0,0,.77-2.74,10.54,10.54,0,0,0,0-1.44q0-.34-.05-.68c0-.12,0-.57-.13-.63a.21.21,0,0,0-.11,0C654.92,1074.39,654.78,1074.39,654.73,1074.47Z"/><path d="M655.6,1074.57c.68.05.91,2.42.94,2.83a10.32,10.32,0,0,1-.08,2.55c0,.29-.1.57-.17.86a3.73,3.73,0,0,1-.2.66,1.31,1.31,0,0,1-.63.69.47.47,0,0,1-.42,0,2.29,2.29,0,0,1-1-1.08,4.13,4.13,0,0,1-.33-.78q-.06-.2-.11-.41c0-.09,0-.28-.1-.35l-.05,0-.27-.14-.08,0a.07.07,0,0,0-.07,0,.21.21,0,0,0,0,.11,5,5,0,0,0,1.05,2.59,2,2,0,0,0,.56.52,1.16,1.16,0,0,0,.83.07,1.63,1.63,0,0,0,.69-.44,3,3,0,0,0,.67-1.49,9.65,9.65,0,0,0,.22-1.7,11.69,11.69,0,0,0-.09-2.07l0-.3a8.29,8.29,0,0,0-.24-1.33,2.84,2.84,0,0,0-.25-.62c-.07-.11-.26-.45-.41-.42a3.87,3.87,0,0,0-.53.11C655.32,1074.42,655.45,1074.56,655.6,1074.57Z"/><g class="cls-6"><path class="cls-5" d="M773.58,1098.71a.25.25,0,0,0,0-.5.25.25,0,0,0,0,.5Z"/></g><g class="cls-4"><path class="cls-5" d="M788.28,982.37v-1.49a.05.05,0,0,0-.1,0v1.49a.05.05,0,0,0,.1,0Z"/></g><path class="cls-7" d="M248.48,437.49a36,36,0,0,0,4.53,10c2.11,3.16,5,6.34,8.74,7.41,3.58,1,8-.58,9.3-4.06a13.84,13.84,0,0,1-9.84,9.59,15.93,15.93,0,0,1-13.58-3,18.82,18.82,0,0,1-6.81-12.29,20.6,20.6,0,0,1,.74-8.66,38.31,38.31,0,0,1,3.26-6.93c2.16,1.94,2.8,5,3.6,7.79Z"/><path class="cls-7" d="M227.27,462.42c-3.12-1.18-6.59.27-9.49,1.92s-5.91,3.61-9.24,3.48c-3.61-.15-6.69-2.77-8.68-5.79a10.55,10.55,0,0,1-2.06-6.76c-2.14,3.46-1.85,7.94-.52,11.78a23,23,0,0,0,15.13,14.56,19.92,19.92,0,0,0,19.92-5.68"/><path class="cls-2" d="M257.85,472.66a7.7,7.7,0,0,0-.46-.71c-3.57-4.87-10.45-7.13-11.53-13.69a20.91,20.91,0,0,1-.11-4.3l.56-12.73c.14-3.21,1.55-8.6-.69-11.15a5,5,0,0,0-2.31-1.57,7.23,7.23,0,0,0-2.33-.13c-3.24.17-6.4.6-9.62,1.06a53.86,53.86,0,0,0-8.84,1.93c-5,1.62-9.84,4.4-13,8.64a13.45,13.45,0,0,0-2.89,7.85,8.45,8.45,0,0,0,3.75,7.23,8.76,8.76,0,0,1,3.35-11.42c4.78-2.62,10.51-.14,16,.28a74.47,74.47,0,0,0-5.34,9.39c-2.08,4.38-3.76,9.33-2.53,14,1.61,6.17,7.8,10.08,13.95,11.81,5.4,1.52,10.72,2.69,11.89,9a38.13,38.13,0,0,1,.32,8.41c-.07,1.87-1,6.92.33,8.33a17.22,17.22,0,0,1,2.6-7.74q2.92-5.11,5.42-10.45a26.49,26.49,0,0,0,2.52-7.32A10.54,10.54,0,0,0,257.85,472.66Z"/><path class="cls-2" d="M244.89,428.28a.05.05,0,0,0,0-.1.05.05,0,0,0,0,.1Z"/><path class="cls-2" d="M233.28,409.43c3.25-4.1,10-3.69,13.24.22a12.3,12.3,0,0,1,1.78,3.08c.9,2.14,1,4.41,1.77,6.55a8.48,8.48,0,0,1-1.41.11,8.39,8.39,0,0,1-4.14,6.75,7.75,7.75,0,0,1-7.77-.17c-2.29-1.43-3.67-4-4.48-6.62C231.26,416.05,231.14,412.12,233.28,409.43Z"/><path class="cls-7" d="M240.89,417.62q1.72-.87,3.5-1.62a3.18,3.18,0,0,1,1.34-.33c.1.1,0,.25-.16.31l-5.16,2.77"/><path class="cls-7" d="M240.89,418.86l4.1-2a.33.33,0,0,1,.28,0,.23.23,0,0,1,.07.3.64.64,0,0,1-.24.23,22.22,22.22,0,0,1-5.12,2.55c-.3.1-.65.26-.67.58"/><path d="M246.11,409.11l2.09,2.39a10.31,10.31,0,0,0-1.83-3,20.5,20.5,0,0,1,3.84,3.47,13.47,13.47,0,0,0-7.34-6.84,12.22,12.22,0,0,0-10.52,1.34c-4.62,2.73-8.19,8.29-11.65,12.32a1.16,1.16,0,0,0-.36.68c0,.38.34.66.66.87l.41.27a87.48,87.48,0,0,0,14.15,7.6l10-16.85c.64-1.08,1.29-2.36.81-3.52a4.07,4.07,0,0,0-1.52-1.59,9.79,9.79,0,0,0-2.16-1.18"/><path class="cls-1" d="M236.48,411.59l.22.7a19.27,19.27,0,0,1-2.58-.68c-.8-.4-1.38-1.49-.82-2.18-.27.56-1.1.43-1.68.21L230,409a2,2,0,0,1-.95-.59.7.7,0,0,1,.11-1c-.45.6-1.4.32-2.07,0l-4.51-2.3,0,0c3.61-.48,7.17,1.12,10.28,3,.38.23.76.46,1.11.73a8.69,8.69,0,0,1,2.66,3.2"/><path class="cls-7" d="M222.61,405.09l0,0,4.51,2.3c.67.34,1.62.63,2.07,0a.7.7,0,0,0-.11,1,2,2,0,0,0,.95.59l.36.14a9.62,9.62,0,0,0,.47-1.08c.12-.31.23-.63.34-1C228.5,405.71,225.58,404.69,222.61,405.09Z"/><path class="cls-9" d="M244.79,1056.17a35.29,35.29,0,0,0,4.45,9.81c2.07,3.1,4.88,6.22,8.58,7.27,3.51,1,7.85-.57,9.12-4a13.58,13.58,0,0,1-9.66,9.41,15.64,15.64,0,0,1-13.32-3,18.47,18.47,0,0,1-6.68-12.06,20.21,20.21,0,0,1,.73-8.5,37.6,37.6,0,0,1,3.2-6.8c2.12,1.91,2.75,4.91,3.53,7.65Z"/><path class="cls-9" d="M224,1080.64c-3.06-1.16-6.47.26-9.32,1.89s-5.8,3.54-9.07,3.41c-3.54-.14-6.56-2.72-8.51-5.68a10.36,10.36,0,0,1-2-6.63c-2.1,3.39-1.82,7.79-.51,11.56a22.54,22.54,0,0,0,14.84,14.29,19.55,19.55,0,0,0,19.55-5.58"/><path class="cls-2" d="M254,1090.69a7.56,7.56,0,0,0-.45-.7c-3.5-4.78-10.25-7-11.31-13.43a20.52,20.52,0,0,1-.11-4.22l.55-12.49c.14-3.15,1.53-8.44-.68-10.94a4.87,4.87,0,0,0-2.27-1.54,7.1,7.1,0,0,0-2.29-.13c-3.18.17-6.28.59-9.44,1a52.85,52.85,0,0,0-8.67,1.9c-4.94,1.59-9.66,4.31-12.76,8.48a13.2,13.2,0,0,0-2.84,7.7,8.3,8.3,0,0,0,3.68,7.09,8.6,8.6,0,0,1,3.29-11.21c4.69-2.57,10.31-.14,15.73.27a73.08,73.08,0,0,0-5.24,9.22c-2,4.3-3.69,9.16-2.49,13.77,1.58,6.06,7.66,9.89,13.68,11.59,5.3,1.49,10.52,2.64,11.67,8.8a37.42,37.42,0,0,1,.32,8.26c-.07,1.84-1,6.79.33,8.18a16.9,16.9,0,0,1,2.55-7.6q2.86-5,5.31-10.26a26,26,0,0,0,2.47-7.18A10.34,10.34,0,0,0,254,1090.69Z"/><path class="cls-2" d="M241.28,1047.14a.05.05,0,0,0,0-.1.05.05,0,0,0,0,.1Z"/><path class="cls-2" d="M229.89,1028.64c3.19-4,9.81-3.62,13,.22a12.07,12.07,0,0,1,1.75,3c.89,2.1,1,4.33,1.73,6.43a8.33,8.33,0,0,1-1.38.11,8.23,8.23,0,0,1-4.06,6.63,7.61,7.61,0,0,1-7.62-.16,11.38,11.38,0,0,1-4.39-6.49C227.91,1035.14,227.79,1031.28,229.89,1028.64Z"/><path class="cls-9" d="M238.34,1037.68q1.69-.86,3.43-1.59a3.12,3.12,0,0,1,1.31-.33c.1.1,0,.24-.16.31l-5.06,2.72"/><path class="cls-9" d="M238.34,1038.9l4-1.93a.33.33,0,0,1,.27,0,.22.22,0,0,1,.07.29.63.63,0,0,1-.24.23,21.8,21.8,0,0,1-5,2.5c-.29.1-.64.26-.66.57"/><path d="M243.46,1029.31l2.05,2.34a10.11,10.11,0,0,0-1.79-3,20.12,20.12,0,0,1,3.77,3.4,13.22,13.22,0,0,0-7.2-6.71,12,12,0,0,0-10.32,1.31c-4.54,2.68-8,8.14-11.44,12.09a1.14,1.14,0,0,0-.35.67c0,.37.34.65.65.85l.4.27a85.85,85.85,0,0,0,13.89,7.46l9.79-16.53c.63-1.06,1.27-2.32.8-3.45a4,4,0,0,0-1.5-1.56,9.61,9.61,0,0,0-2.12-1.15"/><path class="cls-1" d="M233,1030.76l.22.69a18.91,18.91,0,0,1-2.54-.66c-.78-.39-1.36-1.46-.81-2.14-.26.55-1.08.42-1.65.2l-1.58-.61a2,2,0,0,1-.93-.58.69.69,0,0,1,.1-1c-.44.59-1.37.31-2,0l-4.42-2.26,0,0c3.54-.47,7,1.1,10.09,3,.37.23.74.46,1.09.71a8.52,8.52,0,0,1,2.61,3.14"/><g class="cls-6"><path class="cls-1" d="M176.22,279.09c-2-7-5.72-12.91-10.13-15.61-4.91-3-10.1-1.26-14.51,3.05-.36.35-.72.73-1.07,1.12-4.2-4.13-8.94-7.53-13.76-6.47l0,0,6.22,5.26c.92.78,2.23,1.44,2.85.06a2.36,2.36,0,0,0-.15,2.27,3.06,3.06,0,0,0,1.31,1.34l1.06.68c-4.72,6.74-8.66,16.4-12.51,23.81a3.47,3.47,0,0,0-.49,1.56,2.91,2.91,0,0,0,.91,2l.56.62A119.48,119.48,0,0,0,156,316.18l2.09-5.85a7.08,7.08,0,0,0,8.89-1.07c3.28-3,5.5-9.09,5.71-15.41a7.21,7.21,0,0,0,1.94-.25c-1-4.9-1.19-10.08-2.44-15a45.17,45.17,0,0,0-1.37-4.46c.05-.25.1-.49.14-.74l2.48,4.69a29.64,29.64,0,0,0-2.33-6.54c0-.06,0-.11,0-.17A40.68,40.68,0,0,1,176.22,279.09Z"/></g></svg>