<svg id="Слой_1" data-name="Слой 1" xmlns="http://www.w3.org/2000/svg" viewBox="0 0 966 577"><defs><style>.cls-1{fill:#766d7c;}.cls-2{fill:#872910;}.cls-3{fill:#362c3b;}.cls-4{fill:#992816;}.cls-5{fill:#020101;}.cls-6{fill:#b76f4b;}.cls-7{fill:#5e302b;}.cls-8{fill:#824b33;}.cls-9{fill:none;}.cls-10{fill:#fff;}.cls-11{fill:#6d1f0f;}</style></defs><title>indians_2</title><path class="cls-1" d="M567.06,275.63h0q-1.08-.63-2.2-1.21h0q-1.11-.57-2.24-1.09l0,0q-1.13-.51-2.28-1l0,0-1.07-.4c.35-1.52-.36-2.55-3.41-3.32a53.65,53.65,0,0,0-10.26-1.08c-6.27-.34-13.19-.46-18.14-4.89-3.61-3.23-5.32-8.17-5.62-13s.65-9.65,1.6-14.41c1.73-8.68,5.38-18.75,5-28q1.34-3.51,2.71-7h0c3.83-9.83,7.59-19.65,9.36-29.62,3.39-19.09,1.35-45.24-15.14-58.25,4.81,12.62,6.79,24.67,3,38.3-2.61,9.39-7.1,18.1-12,26.48-.46.79-.94,1.54-1.42,2.27-.1-.24-.21-.47-.31-.72l-.41-.08a72.57,72.57,0,0,1-59.3,33.59c.15-1.28.3-2.56.47-3.84q.31-2.36.65-4.71c.36.1.72.17,1.08.26l.09,0q.61.14,1.23.24l.22,0a22.26,22.26,0,0,0,2.34.24h.19c.36,0,.72,0,1.07,0h.52a20.46,20.46,0,0,0,4.46-.62,19.11,19.11,0,0,0,11.81-8.93,24.28,24.28,0,0,0,2.73-10.22c.24-3.29-1.06-6.12,2.71-7.26,1.08-.33.75-.64.25-1.43s-.83-1.35-1.23-2c-.81-1.42-1.55-2.86-2.3-4.31a49.59,49.59,0,0,0-5-8.17q-.75-.94-1.55-1.85l-.07-.08c-.5-.56-1-1.11-1.55-1.64-.19-.19-.39-.35-.58-.53-.38-.36-.76-.72-1.16-1.06s-1.1-.87-1.67-1.28l-.2-.15-.18-.11c-.27-.18-.53-.35-.8-.52l-.34-.2a1.14,1.14,0,0,0-.3-.32c-.66-.5-1.32-1-2-1.44v0c.09-1.92-7.66-4-9.2-4.57a100.81,100.81,0,0,0-10.94-3.19,132.08,132.08,0,0,0-22.31-3.11c-14.44-.84-28.91.2-43.33,1.24l-13.62,1a71.3,71.3,0,0,0,25.54,9c4.43.65,8.91.88,13.38,1.11l30.19,1.56,1.72.06a20.87,20.87,0,0,0-2.42,2.24,502.12,502.12,0,0,0-55.54,2.75,6.48,6.48,0,0,0-2.42.45.57.57,0,0,0,.36.31,96.55,96.55,0,0,0,18.85,4.47c8.86,1.1,17.83.64,26.75.19,2.36-.12,4.73-.2,7.1-.28-.36.9-.67,1.83-.95,2.76l-8.79.84c-4.1.46-8.22.76-12.34,1.1-2.32.2-4.65.41-7,.68-4.28.5-9.19.56-13.29,1.84.1.86.81,1,1.53,1.46a43.9,43.9,0,0,0,3.86,2.24c2.62,1.36,5.35,2.51,8.07,3.66a22.25,22.25,0,0,0,4.35,1.49,18.12,18.12,0,0,0,5.46,0,80.54,80.54,0,0,0,16.76-4.15q-.07,2.37.08,4.75-12.22,5.72-24.41,11.51a40.28,40.28,0,0,0,7.82,2.21,14.53,14.53,0,0,0,5,.19,14,14,0,0,0,5.38-2.44,53.16,53.16,0,0,0,6.82-5.72q.25,1.81.55,3.61a9.32,9.32,0,0,0,.22,3.27c0,.31.09.62.13.93l1,6.77a37.33,37.33,0,0,0,.72,4c.13.52.15,1.18.71,1.22l.24,1.43q-1.41-.42-2.81-.9c-7-2.41-13.55-5.86-20.08-9.3-10.25-5.39-20.61-10.86-29.2-18.63-3.8-3.44-7.21-7.3-11-10.78l-.68-.16c0,.75,0,1.5,0,2.25-8.24-9.67-14.31-21.3-12-33.65-4.79,4.58-4.34,18-3.81,24.29a66.27,66.27,0,0,0,7.52,25.14c-2.18,7-4.54,13.89-7.26,20.68-2.83,7.05-6,13.95-8.94,21A269.19,269.19,0,0,0,323,332.91a6.36,6.36,0,0,0,.66,3.41,6.29,6.29,0,0,0,3,2.12,29.89,29.89,0,0,0,8.72,2.43c.18,2.35.41,4.67.7,7v0c1.21,9.45,25.31,9.48,32.91,10.23,11.71,1.15,23.45,2.29,35.22,2.31A174.58,174.58,0,0,0,426.92,359c-.21.53-.42,1.06-.64,1.58l-.06.14c-.31.73-.63,1.46-1,2.18s-.67,1.4-1,2.09c-9.63,18-22.93,33.12-28.27,53.26,8.27-11.18,22-16.67,33.39-24.58,15-10.39,26.32-25.15,37.6-39.53h0l1.12-1.42.56-.71,1.28-1.62.81-1,1.06-1.32.93-1.14c22.19-9,44.69-22.64,62.2-40.35.63,0,1.25-.09,1.89-.11h.34c.89,0,1.79,0,2.71,0H540c1,0,1.93,0,2.9.1s1.86.12,2.8.22c6.58.66,13.35,2,18.64,6,5.76,4.34,9,11.27,10.74,18.28a56.67,56.67,0,0,1-9.19,46.12c12.51-6.15,18.82-20.28,22.57-33.72a94,94,0,0,0,3.14-15.3c1.53-14.45-2.21-29.61-11.25-41A48.06,48.06,0,0,0,567.06,275.63Z"/><path class="cls-1" d="M499.81,111.18l16.66,5.54A105.07,105.07,0,0,1,524,97.2l0-.43A35,35,0,0,0,499.26,91l-.1.64A71.22,71.22,0,0,1,499.81,111.18Z"/><path class="cls-1" d="M587.77,137.91c-.47,1.47-.9,3-1.31,4.44l-19.61-5.72,2.11.61-13.63-4,31.13,9.08A133.59,133.59,0,0,0,583,158.55l-8.28,14.23,3.43,1.06-3.27,2.11a1.32,1.32,0,0,0-.8,1.3l-.21,2.73c0,.07,0,.13,0,.2h0c0,.14,0,.28,0,.42s0,.13,0,.2,0,.19,0,.29,0,.19,0,.28,0,.14,0,.2a2,2,0,0,0,.18.46h0a1.5,1.5,0,0,0,1.29.74.91.91,0,0,0,.24-.05.86.86,0,0,0,.22-.12,32.73,32.73,0,0,0-1.9,4.67c-.31,1-.59,1.93-.81,2.92h0a7.86,7.86,0,0,0,3.59-1.38q.32-.22.63-.47a13.24,13.24,0,0,0,2.66-3,19.89,19.89,0,0,0,1.87-3.63q.28-.7.52-1.4l.06-.19c.14-.41.27-.82.39-1.24l0-.07c.21-.73.39-1.46.56-2.2l.07.26,0,.15h0a6.25,6.25,0,0,0,.22.69l0,.06a2.26,2.26,0,0,0,.34.59,1,1,0,0,0,.6.36.53.53,0,0,0,.29,0,.45.45,0,0,0,.21-.21q0,.75,0,1.51c0,1,0,2,.15,3.07q.07.77.19,1.54a3.43,3.43,0,0,0,.77-.52c1.4-1.25,2-3.67,2.06-6.11,0-.41,0-.82,0-1.22h0q0-1.13-.13-2.27c0-.12,0-.24,0-.35-.07-.64-.14-1.28-.24-1.93h0a49.94,49.94,0,0,0-4.2-13.13l-.06,0c0-.24-.07-.48-.11-.71l-.29-.21-.27.47,3.74-16.12,12.06,3.52-12.06-3.52Zm-3.61,34c0-.14,0-.27,0-.41l.2,0Z"/><path class="cls-1" d="M562.2,254.85c.95,9.4-7.37,18-16.66,19.66-9.8,1.78-19.88-2.28-28.22-7.12a91.32,91.32,0,0,1-21.51-17.73l-.3-.33c-4.94-5.47-9.82-11.72-16.91-13.74,0,.11,0,.22,0,.34a9.53,9.53,0,0,0-1.34-.5,18.18,18.18,0,0,0-5.87-.34.27.27,0,0,0-.46,0c-3.12.17-6.21.43-9.3.76a.8.8,0,0,0-.27-.08,2.59,2.59,0,0,0-.95.05.54.54,0,0,0-.2.07.45.45,0,0,0-.11.13c-4.39.5-8.77,1.1-13.19,1.74a156,156,0,0,0-15.84,3,16.73,16.73,0,0,0-.42-1.9,16.94,16.94,0,0,1-.46,2.12c-1.92.5-3.83,1-5.72,1.65a75.33,75.33,0,0,0-22.15,11.15c-6.65-2.45-12.72-7.36-17.71-12.05l-29.66-27.88a25.86,25.86,0,0,0-2.85-2.31,17,17,0,0,0-2.43-2.11c-.32-.23-.66-.41-1-.61a9.51,9.51,0,0,0-3.8-2.66.5.5,0,0,0-.11-.06l-1.16-.35a.52.52,0,0,0-.27,0c-9.78-2.11-19.75,2.7-29.5,3.34-10.31.68-23.38-.58-31.14-8.18a.54.54,0,0,0-.76,0l.76-.62a3.24,3.24,0,0,0,1.39-1.88,2.91,2.91,0,0,0-1.22-2.35,13.6,13.6,0,0,0-12-3.15H270l.81.07-.82.47a10.7,10.7,0,0,1,7.09,6.74,3.47,3.47,0,0,0,1.16,2c1,.62,2.3-.17,3.24-.93l.45-.37a.47.47,0,0,0-.11.48,44.69,44.69,0,0,0,7.63,14.21,155.23,155.23,0,0,0-33.28,12.22c-11.65,6.06-22.91,14-25.76,27.77-1.76,8.48,1.22,18.27,8.58,22.83-3.86-5.77-3.92-13.67-.74-19.84a23.78,23.78,0,0,1,8.57-9.1c9.54-6,23.05-5.68,33.89-7.16,9.42-1.29,5.46,11.58,3.26,16.46-11.83,26.21-30.54,53-57.56,65-8.45,3.76-18.81,8-28.08,8.38-6.33.28-23.94-2.26-25.85-10.39,2.28,9.69,10.15,17.39,19.24,21.43,30,13.35,60.15-3.37,89.49-10,5.13-1.16,12-3.27,17.25-2.64a5.62,5.62,0,0,1,.65.13l.92,0c.83,0,1.64,0,2.45,0l-3.06.13a4,4,0,0,1,2.17,1.5c1.09,1.59.56,3.74,0,5.58l-1.84,6a7.55,7.55,0,0,0-.48,3,2.57,2.57,0,0,0,1.71,2.28c1.31.34,2.53-.76,3.41-1.8a56.11,56.11,0,0,0,8-12.4,31.13,31.13,0,0,1,1.63-3.18c15.19,2.8,28.18,10.48,41.94,18.63,1,.59,2,1.22,3,1.85q1,1.67,2,3.24a60.08,60.08,0,0,0,23.72,20.28c6.93,9.58,11.22,20.62,10.35,32.62,6.65-7.45,7.3-17.53,5.43-27.77a50.75,50.75,0,0,0,48.34-20,72.19,72.19,0,0,0,9.47,3.39c8.58,2.41,18.07,4,24.23,10.41,10.34,10.83,5.47,33.25,4.75,46.72-.16,3,0,6.64,3,8.2-.72-7.31,3-13.59,6.47-19.69q7.41-13,13.75-26.55c2.79-6,5.45-12.08,6.39-18.59.84-5.79.18-12-2.72-17a19.56,19.56,0,0,0-1.17-1.81c-5.55-7.58-14.73-12.62-21.07-19.53a24.49,24.49,0,0,1-5.36-9.26,25.43,25.43,0,0,1-.87-3.91c2.87,1,6,1.29,8.66-.33,2.85-1.72,4.19-5,4.78-8.17a32.91,32.91,0,0,0,.48-5.38q.08-3.61-.19-7.21a15.37,15.37,0,0,0-.55-3.84A45.28,45.28,0,0,0,516.15,296c11.93,2.54,25.07-.36,34.32-8.3S564.63,266.8,562.2,254.85ZM283.49,203.1c7.12,5.8,17.51,7.25,26.38,7.25a56.75,56.75,0,0,0,5.78-.31c-8.41,1.62-16.82,3.3-25.1,5.39A44.12,44.12,0,0,1,283.49,203.1ZM389.93,349.8l-.22-.53c-7-16.89-16.66-32.65-22.14-50.17-3.21-10.28-4.13-20.28-4.89-30.85-.27-3.7-.58-7.4-.91-11.09A126.42,126.42,0,0,0,384,264.92c2.07.54,4.16,1,6.27,1.45-3.64,5.41-6.12,11.7-6.13,18.2,0,7.2,3.36,14.61,9.52,18.35-5.34-9.83-1.29-23.62,8.51-29,12.15-6.66,26.69-.35,40.72.71a189.12,189.12,0,0,0-13.55,23.85c-4.12,8.68-7.61,18.24-7.47,27.69-4.59,2.08-8.78,5.62-12.4,9.22C403.63,341.16,397.76,347.67,389.93,349.8Zm107.9-58.24q.14,1.69.22,3.38a56.76,56.76,0,0,1-.11,6.76c-.23,3-.9,6.32-3,8.55a6.38,6.38,0,0,1-4.22,2,12.53,12.53,0,0,1-5.22-.94,33.21,33.21,0,0,1,.26-7.25l.09.05c1.81.91,3.87,1,5.24-.66s1.76-4.1,2-6.2a27.72,27.72,0,0,0,.1-3.46c0-.36,0-2.73-.37-2.8-.55-.1-.31.62-.28.89q.09.66.15,1.33a22.17,22.17,0,0,1,.06,2.68,18.89,18.89,0,0,1-1,5.33c-.62,1.82-1.86,3.13-3.92,2.94a4.87,4.87,0,0,1-2-.66,51.32,51.32,0,0,1,2.36-9.15c.3-.86.37-2.17,1.36-2.53a6.87,6.87,0,0,1,1.17-.22,8.75,8.75,0,0,0,1.61-.51,32.1,32.1,0,0,0,3.9-1.72,12.11,12.11,0,0,0,2.21-1.56l.12.09c-.27.17-.53.35-.78.54C497.21,288.87,497.77,290.89,497.82,291.56Z"/><path class="cls-1" d="M299.41,330.89l-.32-.08"/><path class="cls-1" d="M251.13,344.47l2-2.74a3.38,3.38,0,0,0-1.15.77A4.54,4.54,0,0,0,251.13,344.47Z"/><path class="cls-1" d="M303.35,170.34c3.2.43,6.69-.79,9.48-2.25H313q-3.27,2.7-6.58,5.36c-1,.82-2.35,1.29-2.44,2.63s1.29,3.21,2,4.34c4.79,7.23,10,14.12,15.38,20.88.86,1.07,2,2.26,3.36,2a3.79,3.79,0,0,0,1.69-1l6.83-6.16a47.76,47.76,0,0,0-2.77,4.27,39.6,39.6,0,0,0-2.56,5.18,20.93,20.93,0,0,0,5-5.66l2.19-3.2.17.22.08.1q.43.56.9,1.09l.05.06q.49.56,1,1.08h0q.55.55,1.13,1.06h0a23.93,23.93,0,0,0,12.3,5.9,20.23,20.23,0,0,0,16.54-5.3A22.7,22.7,0,0,0,373,190.51a42.16,42.16,0,0,0,1.23-6c.09-.64,0-1.94.39-2.46s2.23-.61,3-1a.59.59,0,0,0,.29-.24.64.64,0,0,0-.09-.54c-1.4-2.83-2.71-5.9-4.18-8.9h0c-.76-1.54-1.56-3.05-2.43-4.51l0-.06a29.45,29.45,0,0,0-5-6.4,19.73,19.73,0,0,1,1.58-1.3,30.07,30.07,0,0,0-16.93-8.72c-4.87-.62-9.59.57-14.12,2.22-1.91.7-3.75,1.4-5.55,2.2a140.32,140.32,0,0,0-16.72-11.07l-.27.17,8.25,16.08c-5.06,3.51-10.1,7.24-16.18,8.6l-.45.1a8.85,8.85,0,0,1-5.3-.25C300.77,169.58,302.13,170.17,303.35,170.34Z"/><path class="cls-1" d="M398.28,176.37a19.88,19.88,0,0,0,.53,8.76c.28,1.17,1.12,1.76,1.23,2.86.16,1.66-1.15,3.14-.61,5.11a6.94,6.94,0,0,0,4,4.5c1.71.71,2.33,2.39,3,4.15a9,9,0,0,0,2.46,4.11,9.41,9.41,0,0,0,7.28,2c-.85.13,4,6,4.61,6.37a9.17,9.17,0,0,0,8.8.75c.22-.1,5,2.43,5.86,2.59a15.18,15.18,0,0,0,7.47-.42c1.42-.45,2.5-1.24,4-.88,1.89.47,3.42,2,5.5,2.33,2.68.45,5.18-.5,7.85,0a41.45,41.45,0,0,0,8.67.65,22.57,22.57,0,0,0,3.74,5.85,21.35,21.35,0,0,0,20,6.44,22.12,22.12,0,0,0,15.83-13.9,23.45,23.45,0,0,0,3.73.81c-.26-6,1.12-11.86.39-18a32.35,32.35,0,0,0-2.28-9.17c-.27-.62-.58-1.23-.91-1.82,1.08-5-.49-9.69-6.19-12.1a40.63,40.63,0,0,0-25.38-1.94c-8,2-13.2,8.74-16.51,16.05a58.93,58.93,0,0,0-2.8,7.67c-4.15-3.87-11.16-4.3-15.51-.59a12.22,12.22,0,0,0-10.77-4.64,3.19,3.19,0,0,1-1.85-.12,3.23,3.23,0,0,1-1.13-1.48,11,11,0,0,0-7.29-5.52,6.06,6.06,0,0,1-2.68-.9c-1-.81-1.14-2.21-1.4-3.45a14.85,14.85,0,0,0-4.78-8.17c1-2.69,2.07-6.1.55-8.53-.61-1-1.61-1.8-1.74-2.95a4.81,4.81,0,0,1,.25-1.7,18.26,18.26,0,0,0-.65-11,10.64,10.64,0,0,1-1.09,5.35,17.51,17.51,0,0,0-1.82,4.2,4,4,0,0,0,1.31,4.13,19.88,19.88,0,0,0,.53,8.76c.28,1.17,1.12,1.76,1.23,2.86.16,1.66-1.15,3.14-.61,5.11a6.94,6.94,0,0,0,4,4.5c1.71.71,2.33,2.39,3,4.15a9,9,0,0,0,2.46,4.11,9.41,9.41,0,0,0,7.28,2c-.85.13,4,6,4.61,6.37a9.17,9.17,0,0,0,8.8.75c.22-.1,5,2.43,5.86,2.59a15.18,15.18,0,0,0,7.47-.42,16.65,16.65,0,0,1,2.83-.94c-.67,2.76-1.25,5.56-1.82,8.34a6,6,0,0,0-7.79.6c-4-4.59-11.64-5.33-16.27-1.38a12.22,12.22,0,0,0-10.77-4.64,3.19,3.19,0,0,1-1.85-.12,3.23,3.23,0,0,1-1.13-1.48,11,11,0,0,0-7.29-5.52,6.06,6.06,0,0,1-2.68-.9c-1-.81-1.14-2.21-1.4-3.45a14.85,14.85,0,0,0-4.78-8.17c1-2.69,2.07-6.1.55-8.53-.61-1-1.61-1.8-1.74-2.95a4.81,4.81,0,0,1,.25-1.7,18.26,18.26,0,0,0-.65-11A10.64,10.64,0,0,1,398.8,168a17.51,17.51,0,0,0-1.82,4.2A4,4,0,0,0,398.28,176.37Z"/><path class="cls-2" d="M672,21.8a.25.25,0,0,0,0-.5.25.25,0,0,0,0,.5Z"/><path class="cls-3" d="M414.06,299.63h0q-1.08-.63-2.2-1.21h0q-1.11-.57-2.24-1.09l0,0q-1.13-.51-2.28-1l0,0-1.07-.4c.35-1.52-.36-2.55-3.41-3.32a53.65,53.65,0,0,0-10.26-1.08c-6.27-.34-13.19-.46-18.14-4.89-3.61-3.23-5.32-8.17-5.62-13s.65-9.65,1.6-14.41c1.73-8.68,5.38-18.75,5-28q1.34-3.51,2.71-7h0c3.83-9.83,7.59-19.65,9.36-29.62,3.39-19.09,1.35-45.24-15.14-58.25,4.81,12.62,6.79,24.67,3,38.3-2.61,9.39-7.1,18.1-12,26.48-.46.79-.94,1.54-1.42,2.27-.1-.24-.21-.47-.31-.72l-.41-.08a72.57,72.57,0,0,1-59.3,33.59c.15-1.28.3-2.56.47-3.84q.31-2.36.65-4.71c.36.1.72.17,1.08.26l.09,0q.61.14,1.23.24l.22,0a22.26,22.26,0,0,0,2.34.24h.19c.36,0,.72,0,1.07,0h.52a20.46,20.46,0,0,0,4.46-.62,19.11,19.11,0,0,0,11.81-8.93,24.28,24.28,0,0,0,2.73-10.22c.24-3.29-1.06-6.12,2.71-7.26,1.08-.33.75-.64.25-1.43s-.83-1.35-1.23-2c-.81-1.42-1.55-2.86-2.3-4.31a49.59,49.59,0,0,0-5-8.17q-.75-.94-1.55-1.85l-.07-.08c-.5-.56-1-1.11-1.55-1.64-.19-.19-.39-.35-.58-.53-.38-.36-.76-.72-1.16-1.06s-1.1-.87-1.67-1.28l-.2-.15-.18-.11c-.27-.18-.53-.35-.8-.52l-.34-.2a1.14,1.14,0,0,0-.3-.32c-.66-.5-1.32-1-2-1.44v0c.09-1.92-7.66-4-9.2-4.57a100.81,100.81,0,0,0-10.94-3.19,132.08,132.08,0,0,0-22.31-3.11c-14.44-.84-28.91.2-43.33,1.24l-13.62,1a71.3,71.3,0,0,0,25.54,9c4.43.65,8.91.88,13.38,1.11l30.19,1.56,1.72.06a20.87,20.87,0,0,0-2.42,2.24,502.12,502.12,0,0,0-55.54,2.75,6.48,6.48,0,0,0-2.42.45.57.57,0,0,0,.36.31,96.55,96.55,0,0,0,18.85,4.47c8.86,1.1,17.83.64,26.75.19,2.36-.12,4.73-.2,7.1-.28-.36.9-.67,1.83-.95,2.76l-8.79.84c-4.1.46-8.22.76-12.34,1.1-2.32.2-4.65.41-7,.68-4.28.5-9.19.56-13.29,1.84.1.86.81,1,1.53,1.46a43.9,43.9,0,0,0,3.86,2.24c2.62,1.36,5.35,2.51,8.07,3.66a22.25,22.25,0,0,0,4.35,1.49,18.12,18.12,0,0,0,5.46,0,80.54,80.54,0,0,0,16.76-4.15q-.07,2.37.08,4.75-12.22,5.72-24.41,11.51a40.28,40.28,0,0,0,7.82,2.21,14.53,14.53,0,0,0,5,.19,14,14,0,0,0,5.38-2.44,53.16,53.16,0,0,0,6.82-5.72q.25,1.81.55,3.61a9.32,9.32,0,0,0,.22,3.27c0,.31.09.62.13.93l1,6.77a37.33,37.33,0,0,0,.72,4c.13.52.15,1.18.71,1.22l.24,1.43q-1.41-.42-2.81-.9c-7-2.41-13.55-5.86-20.08-9.3-10.25-5.39-20.61-10.86-29.2-18.63-3.8-3.44-7.21-7.3-11-10.78l-.68-.16c0,.75,0,1.5,0,2.25-8.24-9.67-14.31-21.3-12-33.65-4.79,4.58-4.34,18-3.81,24.29a66.27,66.27,0,0,0,7.52,25.14c-2.18,7-4.54,13.89-7.26,20.68-2.83,7.05-6,13.95-8.94,21A269.19,269.19,0,0,0,170,356.91a6.36,6.36,0,0,0,.66,3.41,6.29,6.29,0,0,0,3,2.12,29.89,29.89,0,0,0,8.72,2.43c.18,2.35.41,4.67.7,7v0c1.21,9.45,25.31,9.48,32.91,10.23,11.71,1.15,23.45,2.29,35.22,2.31A174.58,174.58,0,0,0,273.92,383c-.21.53-.42,1.06-.64,1.58l-.06.14c-.31.73-.63,1.46-1,2.18s-.67,1.4-1,2.09c-9.63,18-22.93,33.12-28.27,53.26,8.27-11.18,22-16.67,33.39-24.58,15-10.39,26.32-25.15,37.6-39.53h0l1.12-1.42.56-.71,1.28-1.62.81-1,1.06-1.32.93-1.14c22.19-9,44.69-22.64,62.2-40.35.63,0,1.25-.09,1.89-.11h.34c.89,0,1.79,0,2.71,0H387c1,0,1.93,0,2.9.1s1.86.12,2.8.22c6.58.66,13.35,2,18.64,6,5.76,4.34,9,11.27,10.74,18.28a56.67,56.67,0,0,1-9.19,46.12c12.51-6.15,18.82-20.28,22.57-33.72a94,94,0,0,0,3.14-15.3c1.53-14.45-2.21-29.61-11.25-41A48.06,48.06,0,0,0,414.06,299.63Z"/><path class="cls-3" d="M434.77,161.91c-.47,1.47-.9,3-1.31,4.44l-19.61-5.72,2.11.61-13.63-4,31.13,9.08A133.59,133.59,0,0,0,430,182.55l-8.28,14.23,3.43,1.06-3.27,2.11a1.32,1.32,0,0,0-.8,1.3l-.21,2.73c0,.07,0,.13,0,.2h0c0,.14,0,.28,0,.42s0,.13,0,.2,0,.19,0,.29,0,.19,0,.28,0,.14,0,.2a2,2,0,0,0,.18.46h0a1.5,1.5,0,0,0,1.29.74.91.91,0,0,0,.24-.05.86.86,0,0,0,.22-.12,32.73,32.73,0,0,0-1.9,4.67c-.31,1-.59,1.93-.81,2.92h0a7.86,7.86,0,0,0,3.59-1.38q.32-.22.63-.47a13.24,13.24,0,0,0,2.66-3,19.89,19.89,0,0,0,1.87-3.63q.28-.7.52-1.4l.06-.19c.14-.41.27-.82.39-1.24l0-.07c.21-.73.39-1.46.56-2.2l.07.26,0,.15h0a6.25,6.25,0,0,0,.22.69l0,.06a2.26,2.26,0,0,0,.34.59,1,1,0,0,0,.6.36.53.53,0,0,0,.29,0,.45.45,0,0,0,.21-.21q0,.75,0,1.51c0,1,0,2,.15,3.07q.07.77.19,1.54a3.43,3.43,0,0,0,.77-.52c1.4-1.25,2-3.67,2.06-6.11,0-.41,0-.82,0-1.22h0q0-1.13-.13-2.27c0-.12,0-.24,0-.35-.07-.64-.14-1.28-.24-1.93h0a49.94,49.94,0,0,0-4.2-13.13l-.06,0c0-.24-.07-.48-.11-.71l-.29-.21-.27.47,3.74-16.12,12.06,3.52-12.06-3.52Zm-3.61,34c0-.14,0-.27,0-.41l.2,0Z"/><path class="cls-3" d="M721,306.55m-48.76,4.07a14.68,14.68,0,0,0-.52-3.66m-4.32,23.49,18.93,33.27M466,225.74c6.8,5.54,16.72,6.93,25.2,6.92a54.2,54.2,0,0,0,5.52-.3c-8,1.55-16.06,3.16-24,5.15A42.14,42.14,0,0,1,466,225.74Zm96,59a120.74,120.74,0,0,1-21.19-7.41c.31,3.53.62,7.06.87,10.6.73,10.1,1.61,19.64,4.67,29.46,5.23,16.74,14.46,31.79,21.14,47.92l.21.5s.25-.07.3,0a1.42,1.42,0,0,1,.1.27l.15.34.57,1.29q.56,1.29,1.08,2.59,1,2.58,1.93,5.22t1.68,5.28q.79,2.66,1.49,5.34t1.36,5.42q.55,2.29,1.08,4.58a33.81,33.81,0,0,1,.73,13.73,25.58,25.58,0,0,1-2.13,6.83c-.61,1.26-3.39,4-3.48,5.2,1-13.14-4.72-23.07-12-33.23a73.69,73.69,0,0,0-26-22.52c-6.67-3.45-12.9-7.65-19.73-10.85-1.89-.89-18.59-8.39-19.71-6.58a29.73,29.73,0,0,0-1.56,3A53.59,53.59,0,0,1,486,363.61c-.84,1-2,2-3.26,1.72a2.46,2.46,0,0,1-1.63-2.18,7.21,7.21,0,0,1,.46-2.84l1.76-5.76c.54-1.76,1-3.81,0-5.33a3.81,3.81,0,0,0-2.07-1.43l2.92-.12c-.78,0-1.55,0-2.34,0l-.88,0a5.37,5.37,0,0,0-.62-.13c-5-.6-11.57,1.41-16.47,2.52-28,6.34-56.78,22.32-85.47,9.56-8.68-3.86-16.2-11.22-18.38-20.47,1.83,7.77,18.64,10.19,24.69,9.93,8.85-.39,18.74-4.41,26.82-8,25.81-11.48,43.68-37.07,55-62.1,2.1-4.66,5.88-17-3.11-15.72-10.35,1.41-23.25,1.12-32.37,6.84a22.71,22.71,0,0,0-8.18,8.69c-3,5.89-3,13.44.7,19-7-4.35-9.87-13.71-8.19-21.81,2.72-13.13,13.47-20.74,24.6-26.52a148.26,148.26,0,0,1,31.79-11.67,42.68,42.68,0,0,1-7.29-13.57.45.45,0,0,1,.11-.46l-.43.35c-.89.72-2.11,1.48-3.09.89A3.31,3.31,0,0,1,459.9,223a10.22,10.22,0,0,0-6.77-6.44l.78-.45-.78-.07H454a13,13,0,0,1,11.43,3,2.78,2.78,0,0,1,1.16,2.25,3.09,3.09,0,0,1-1.33,1.79l-.73.59a.52.52,0,0,1,.72,0c7.41,7.27,19.89,8.46,29.74,7.82,9.32-.61,18.83-5.21,28.18-3.19a.5.5,0,0,1,.26,0l1.1.33.1.05a9.08,9.08,0,0,1,3.63,2.54c.32.19.64.37,1,.59a16.26,16.26,0,0,1,2.33,2,24.7,24.7,0,0,1,2.72,2.21l28.33,26.62a73.88,73.88,0,0,0,8.45,7,43.76,43.76,0,0,0,4.75,2.89,5.32,5.32,0,0,1,3.1,3.73,4.5,4.5,0,0,1-.31,2.15,9.93,9.93,0,0,1-6.37,5.82c-.74.24-1.5.4-2.24.64s-1.46.95-2.15,1.16-2-.33-2.71-.49Q563.56,285.2,562,284.79Zm99.56,28.12c.29-.82.36-2.07,1.3-2.42a6.56,6.56,0,0,1,1.11-.21,8.36,8.36,0,0,0,1.54-.48,30.66,30.66,0,0,0,3.72-1.64,11.56,11.56,0,0,0,2.11-1.49l.11.08c-.26.16-.51.34-.75.52-.55.41,0,2.33,0,3q.14,1.61.21,3.23a54.21,54.21,0,0,1-.1,6.45c-.22,2.82-.86,6-2.86,8.17m-1.8-12.39a26.48,26.48,0,0,0,.09-3.3c0-.34,0-2.61-.35-2.68s-.3.6-.26.85q.09.63.14,1.27a21.18,21.18,0,0,1,.06,2.56"/><path class="cls-3" d="M481.25,347.79l-.3-.07"/><path class="cls-3" d="M435.13,360.76l1.93-2.62a3.23,3.23,0,0,0-1.1.74A4.34,4.34,0,0,0,435.13,360.76Z"/><path class="cls-3" d="M485,194.45c3.05.41,6.39-.75,9.06-2.15h.12q-3.12,2.58-6.28,5.12c-1,.78-2.25,1.23-2.33,2.51s1.23,3.07,1.94,4.14C492.08,211,497,217.55,502.2,224c.82,1,1.92,2.16,3.21,1.9a3.62,3.62,0,0,0,1.61-1l6.53-5.88a45.62,45.62,0,0,0-2.64,4.08,37.82,37.82,0,0,0-2.44,5,20,20,0,0,0,4.77-5.4l2.09-3.06.17.21.08.1q.41.53.86,1l.05.06q.47.53,1,1h0q.52.52,1.08,1h0a22.86,22.86,0,0,0,11.75,5.64,19.32,19.32,0,0,0,15.8-5.06,21.68,21.68,0,0,0,5.48-9.92,40.26,40.26,0,0,0,1.18-5.76c.08-.61,0-1.86.38-2.35s2.13-.59,2.86-.94a.56.56,0,0,0,.28-.23.61.61,0,0,0-.08-.52c-1.34-2.7-2.59-5.64-4-8.5h0c-.72-1.47-1.49-2.92-2.32-4.31l0-.06a28.12,28.12,0,0,0-4.8-6.12,18.85,18.85,0,0,1,1.51-1.25,28.71,28.71,0,0,0-16.17-8.33c-4.65-.59-9.15.54-13.49,2.12-1.82.67-3.58,1.33-5.3,2.1a134,134,0,0,0-16-10.58l-.26.16,7.88,15.36c-4.83,3.36-9.65,6.91-15.46,8.21l-.43.09a8.45,8.45,0,0,1-5.06-.24C482.54,193.73,483.84,194.29,485,194.45Z"/><path class="cls-4" d="M545.09,245a29.19,29.19,0,0,0,1.53,6.62c7,20.25,27.86,28.78,47.06,33.8,12.08,3.16,25.11,4.73,35.89-3.15a22.83,22.83,0,0,0,8.26-11.42,17.41,17.41,0,0,0,.85-6.82c-.35-3.45-1.75.83-2.25,1.82a18.8,18.8,0,0,1-2.77,4,19.72,19.72,0,0,1-7.71,5.29c-12,4.48-23.38-4-31.65-11.73l-28.22-26.52c-6.09-5.72-16.42-9.45-20.25,1.22A15.74,15.74,0,0,0,545.09,245Z"/><path class="cls-5" d="M252.46,208.28a330.39,330.39,0,0,1-10.72,32.52c-2.69,6.71-5.74,13.27-8.5,19.95a256.07,256.07,0,0,0-19.4,98.75,6.05,6.05,0,0,0,.63,3.24,6,6,0,0,0,2.87,2c5.5,2.37,12.7,4,16.85-.29,1.93-2,2.65-4.87,3.18-7.61,1.65-8.65,2.07-17.48,3.14-26.22,4.44-36.45,20.08-71.47,19.26-108.18-.08-3.38-.42-7.08-2.78-9.51s-7.37-2.26-8.37,1Z"/><path class="cls-6" d="M567,366.84c19.22,11.4,38.93,31.32,37.2,55.17,13.36-15,1.26-41.08-5.06-56.34-6.66-16.07-15.85-31.06-21.06-47.73-3.05-9.78-3.93-19.29-4.65-29.34-.76-10.58-1.89-21.15-2.83-31.72a62,62,0,0,0-2.15-13.24c-1.35-4.27-3.74-8.35-7.41-10.93-4.08-2.87-9.4-3.61-14.33-2.84l-.35.07a.87.87,0,0,1,.33-.23c-25.25,5.23-51.45,8.51-74.59,20.54-11.08,5.76-21.79,13.34-24.5,26.42-1.67,8.07,1.16,17.38,8.16,21.72-3.67-5.49-3.73-13-.7-18.88a22.62,22.62,0,0,1,8.15-8.65c9.14-5.73,22-5.15,32.43-5.1a15.43,15.43,0,0,1,5.65.77,5.58,5.58,0,0,1,3.63,4.09c.25,1.74-.62,3.43-1.47,5-14.09,25.37-32.15,53.74-59.65,66-8,3.58-17.9,7.58-26.71,8-6,.27-22.77-2.15-24.59-9.89,2.17,9.21,9.66,16.54,18.31,20.39,28.57,12.7,57.22-3.21,85.13-9.53a104.63,104.63,0,0,1,13.59-2.6c4.24-.39,21.83-1.6,21.89,4.52a12.37,12.37,0,0,1-1.23,4.48,32.48,32.48,0,0,0-1.39,4.56,4.25,4.25,0,0,0,.15,3.13,2.88,2.88,0,0,0,2.6,1.23,5.89,5.89,0,0,0,2.8-1,22.46,22.46,0,0,0,5.85-6c1.48-2,2.21-5.06,4.9-3.86,3,1.36,6,2.87,8.92,4.45s5.92,3.31,8.85,5Z"/><path class="cls-7" d="M446,305a43.15,43.15,0,0,0-18.05-5.85,23.67,23.67,0,0,0-8.61,1.51,20.18,20.18,0,0,1-3.41-1.54c-2.85-.32-5.17-1.41-7.78-4.39A27.16,27.16,0,0,1,401,278c-.77-12.63,3.1-24.84,7.69-37,1-2.59,2-5.18,3-7.77-3-6.07-8.23-11.12-10.71-17.49l-.39-.08A69.34,69.34,0,0,1,319.55,244c-2.2-.76-4.35-1.63-6.47-2.57-15.35-4.88-30.59-12.13-42.82-22.09-2.87-2.34-5.88-5-8.78-7.87A126.46,126.46,0,0,1,258,234.86c9,10.64,20.41,19.48,30.36,28.85,14.29,13.45,28.39,27.1,34.76,46.22,4.75,14.25,3.8,29.68.85,44.2-1.26,6.18-3.26,10.73-5.9,16.27-2.73,5.71-4.3,11.84-7,17.6a173.88,173.88,0,0,0,39.66-8.33l1.06-1.35c18.43-23.43,39.64-45.79,71.24-43.93A169.21,169.21,0,0,0,446,305Z"/><path class="cls-6" d="M408.71,241.06c-4.59,12.12-8.46,24.33-7.69,37a27.16,27.16,0,0,0,7.13,16.71c4.34,5,7.87,4.7,14.38,4.34,13.8-.77,27.56,6.06,36.15,16.88s12.16,25.24,10.7,39a89.4,89.4,0,0,1-3,14.55c-3.57,12.78-9.56,26.22-21.47,32.07a53.91,53.91,0,0,0,8.74-43.87c-1.62-6.67-4.74-13.26-10.22-17.39-5-3.78-11.47-5.09-17.73-5.72-33.09-3.32-55,19.65-73.91,43.72-11.09,14.1-22.08,28.75-36.83,39-10.88,7.53-23.9,12.74-31.76,23.38,5.08-19.17,17.73-33.5,26.89-50.67,3.37-6.31,5-13.21,8-19.58,2.64-5.54,4.64-10.09,5.9-16.27,3-14.52,3.91-29.94-.85-44.2-6.38-19.12-20.47-32.77-34.76-46.22-13.47-12.68-29.56-24.37-38.86-40.88a63.42,63.42,0,0,1-8.06-25.61c-.51-6-.94-18.74,3.62-23.1-3.33,18.15,12.25,34.67,25.16,45.18,15.08,12.29,34.75,20.45,53.54,25.12,16.37,4.08,34.54,1.27,48.55-8.28a99.17,99.17,0,0,0,9.41-7.5c6.37-5.59,11.6-10,15.89-17.33,4.67-8,8.94-16.25,11.42-25.19,3.61-13,1.72-24.43-2.85-36.43,15.69,12.38,17.63,37.25,14.4,55.41C418.47,217.22,413.24,229.09,408.71,241.06Z"/><path class="cls-4" d="M291.11,385.67A172.82,172.82,0,0,0,353,374.06c32.89-12.6,67.16-36.23,83.48-68.4,2-4,3.79-6-1.29-7.34a51,51,0,0,0-9.76-1c-6-.33-12.54-.43-17.26-4.66-3.44-3.07-5.06-7.77-5.35-12.37s.62-9.18,1.52-13.7c2-10.18,6.82-22.35,3.82-32.57-2.31-7.85-9.22-13.57-12.19-21.2l-.39-.08A69.34,69.34,0,0,1,314.55,241c-6.64-2.29-12.89-5.57-19.11-8.84-9.75-5.13-19.61-10.33-27.77-17.72-3.62-3.27-6.86-6.94-10.44-10.26l-.64-.15c0,27.37-11.77,53.13-19.5,79.39-8.22,27.9-14.54,61.14-10.79,90.32v0c1.15,9,24.07,9,31.31,9.73C268.75,384.56,279.92,385.65,291.11,385.67Z"/><path class="cls-6" d="M320,198.55c5.36-12.14,22.37-15.7,33-8.4a30.77,30.77,0,0,1,6.45,6.26,47.17,47.17,0,0,1,4.76,7.77c.72,1.37,1.42,2.75,2.19,4.1.37.66.76,1.3,1.17,1.94s.79,1.05-.24,1.36c-3.59,1.09-2.35,3.78-2.58,6.91a23.1,23.1,0,0,1-2.6,9.72,18.18,18.18,0,0,1-11.23,8.5,21,21,0,0,1-14.11-1.47C324.56,229.44,314.16,211.81,320,198.55Z"/><path class="cls-8" d="M332.43,232.61l16-28.11c-7.84,7-14.71,15-21.39,23.12A34.3,34.3,0,0,0,332.43,232.61Z"/><path class="cls-4" d="M347.69,237.25q3.12-12.72,5.95-25.52c-2.61,2.08-4.4,5-6.14,7.84l-9.79,16A21.31,21.31,0,0,0,347.69,237.25Z"/><path d="M335.27,315.34l-.19,6.77c-10.25-31.59-15-63.9-20.61-96.45-1.12-6.46-1.87-13.09-.73-19.54s4.37-12.78,9.82-16.41a26.48,26.48,0,0,1,14.92-4.28c3.24,0,7.33,0,10.18,1.67a31.37,31.37,0,0,1,2.8,2,.57.57,0,0,1,.28.82c-6.34,16.32-9.82,33.82-12.09,51.14-2.31,17.61-3.23,35.36-3.78,53.1q-.13,4.21-.24,8.42-.21,7.9-.24,15.81"/><path class="cls-4" d="M700.08,270.91a86.87,86.87,0,0,0,20.46,16.86c7.93,4.6,17.52,8.46,26.84,6.77,8.84-1.6,16.75-9.76,15.85-18.7,2.32,11.37-2.34,23.71-11.15,31.26s-21.3,10.32-32.65,7.9-21.41-9.76-27.83-19.42A49.76,49.76,0,0,1,684,276c-1-6.27-.52-12.25-.3-18.49,6.74,1.92,11.39,7.87,16.09,13.07Z"/><path class="cls-9" d="M487.32,358.09a4.32,4.32,0,0,1,.83-1.87,3.22,3.22,0,0,1,1.09-.74"/><path class="cls-4" d="M538,261.2a2.36,2.36,0,0,0-2.66,3,2.4,2.4,0,0,0,4.07.2,2.44,2.44,0,0,0-2.26-3.43"/><path class="cls-4" d="M569.85,266.15a2.39,2.39,0,0,0-2.7,3.07,2.43,2.43,0,0,0,4.12.2A2.47,2.47,0,0,0,569,266"/><path d="M556.38,229.53c-9.74-2.81-19.69,2.22-29.42,2.85s-22.24-.55-29.62-7.78a.5.5,0,0,0-.84.49c4,12.82,14.61,23.28,27,28.29,12.13,4.93,31.28,5.61,37.9-8.31,2.85-6,1-14.1-6.08-15.86a.5.5,0,0,0-.27,1l1.1.33a.5.5,0,0,0,.27-1l-1.1-.33-.27,1c4.6,1.14,7.14,5.66,6.66,10.22-.51,4.81-3.78,8.86-7.73,11.42-7.25,4.69-16.55,4.6-24.65,2.47-14.42-3.79-27.29-15.09-31.82-29.45l-.84.49c6.75,6.62,17.5,8.21,26.57,8.2a68.75,68.75,0,0,0,15.36-2c5.8-1.33,11.68-2.71,17.55-1A.5.5,0,0,0,556.38,229.53Z"/><path class="cls-6" d="M587.69,205.62a.56.56,0,0,0,.28-.23.61.61,0,0,0-.08-.51c-3.42-6.93-6.29-15.38-12.64-20.22a20.34,20.34,0,0,0-17.57-3.34q-.63.18-1.24.4c-6.2,2.22-10.84,7.64-13.07,13.72-2.62,7.15-1.54,14.9,1.75,21.68a23.44,23.44,0,0,0,17,12.43,19.24,19.24,0,0,0,15.73-5,21.59,21.59,0,0,0,5.46-9.88,40.1,40.1,0,0,0,1.17-5.74c.08-.61,0-1.85.37-2.34S587,206,587.69,205.62Z"/><path class="cls-4" d="M559.4,199l-12.88,20.56a23.25,23.25,0,0,0,3.88,4.4l.08,0a1,1,0,0,0,.6-.3l16.25-13.5q8.29-6.88,16.58-13.76a41.69,41.69,0,0,0-5.1-8.28Q569.14,193.63,559.4,199Z"/><path class="cls-10" d="M578.84,197.62c.09.1-.18.4-.25.48a2.84,2.84,0,0,1-2.12.92,3.1,3.1,0,0,1-1.4-.4c-.36-.2-1-.6-1.05-1,0,0,2.16,0,2.36,0l1.67,0C578.18,197.6,578.73,197.53,578.84,197.62Z"/><path d="M526.14,193.31q-3.11,2.57-6.26,5.1c-1,.78-2.24,1.22-2.32,2.5s1.22,3.06,1.93,4.12c4.55,6.88,9.47,13.43,14.63,19.86.82,1,1.92,2.15,3.2,1.89a3.61,3.61,0,0,0,1.6-1l7.15-6.45c-.56,0-2.93,4.06-3.28,4.65a37.67,37.67,0,0,0-2.44,4.93,19.91,19.91,0,0,0,4.75-5.38c7.12-10.4,14.31-21.33,23.13-30.41-.22,8.27-.27,15.5,5.68,22.22-2-5.37-4-11-3.47-16.67a19.76,19.76,0,0,1,7.83-14,28.6,28.6,0,0,0-16.1-8.3c-4.63-.59-9.12.54-13.44,2.12a50.12,50.12,0,0,0-9.85,4.5c-6.15,3.87-11.87,9.06-19.15,10.69l-.43.09a8.42,8.42,0,0,1-5-.24c.27,1.14,1.56,1.7,2.72,1.86,3,.41,6.36-.75,9-2.14"/><path class="cls-10" d="M555.35,195.93l-4.49,1.67c-.38.14-.86.26-1.13,0a1,1,0,0,1-.19-.61l-.27-2.88-2.86,3.24a16.19,16.19,0,0,1-4.28-1.17,1.16,1.16,0,0,1-.66-.52,1.21,1.21,0,0,1,.16-1q1.43-3,2.93-6l-6.88,1.81L527.3,170.26l.26-.16a132.83,132.83,0,0,1,16,10.59,44.43,44.43,0,0,1,12.21,14.6"/><path class="cls-10" d="M486.13,219a12.94,12.94,0,0,1,11.39,3,2.77,2.77,0,0,1,1.16,2.24,3.08,3.08,0,0,1-1.33,1.79l-1.17.95c-.89.72-2.1,1.47-3.08.88a3.3,3.3,0,0,1-1.11-1.93,10.18,10.18,0,0,0-6.74-6.41l.78-.45-.77-.07"/><path class="cls-6" d="M681.36,205c11-7.47,27.29-1.52,32.44,10.29A30.77,30.77,0,0,1,716,224c.69,5.81-.62,11.39-.37,17.09a22.29,22.29,0,0,1-3.55-.77A21,21,0,0,1,697,253.6a20.31,20.31,0,0,1-19-6.13c-4.6-5.14-6.17-12.35-6.26-19.24C671.62,219.5,674.15,209.95,681.36,205Z"/><path class="cls-10" d="M712.72,215c-3,.19-6,.38-9,.61a285.26,285.26,0,0,0-31.25,4.22,38.2,38.2,0,0,0-.71,5.58l40.8-3.78a13.33,13.33,0,0,0,2.91-.5,26.91,26.91,0,0,0-1.71-5.78c-.06-.13-.13-.26-.19-.39Z"/><path class="cls-4" d="M696.11,230.94q4.77-.87,9.6-1.37a8,8,0,0,1,3.46.16c.16.31-.28.57-.62.64l-14.43,2.95"/><path class="cls-4" d="M695.2,233.94l11.3-1.78a.84.84,0,0,1,.7.1.57.57,0,0,1,0,.77,1.61,1.61,0,0,1-.75.39,55.87,55.87,0,0,1-14.17,2.45c-.79,0-1.75.17-2,.91"/><path d="M615,225.33a8.6,8.6,0,0,0,2.34,3.91,9,9,0,0,0,6.92,1.86c-.8.13,3.8,5.68,4.39,6.06a8.73,8.73,0,0,0,8.37.72c.21-.09,4.77,2.31,5.57,2.46a14.43,14.43,0,0,0,7.11-.4c1.35-.43,2.38-1.18,3.77-.83,1.8.45,3.25,1.89,5.23,2.22,2.55.42,4.93-.48,7.47,0a38.85,38.85,0,0,0,8.8.61,41.83,41.83,0,0,0,17.54-5A47.16,47.16,0,0,0,711,218.52c3.51-6.25,3.34-13.34-4-16.43a38.65,38.65,0,0,0-24.14-1.84c-7.64,1.89-12.56,8.31-15.71,15.27-2.79,6.16-4.17,12.85-5.52,19.47a5.7,5.7,0,0,0-7.41.57c-3.8-4.37-11.08-5.07-15.48-1.31a11.62,11.62,0,0,0-10.24-4.41,3,3,0,0,1-1.76-.12,3.07,3.07,0,0,1-1.08-1.41,10.44,10.44,0,0,0-6.93-5.25,5.77,5.77,0,0,1-2.55-.86c-.93-.77-1.09-2.1-1.33-3.29a14.13,14.13,0,0,0-4.55-7.77c.93-2.56,2-5.8.53-8.11-.58-.93-1.54-1.71-1.66-2.81a4.58,4.58,0,0,1,.23-1.61,17.37,17.37,0,0,0-.62-10.44,10.13,10.13,0,0,1-1,5.09,16.66,16.66,0,0,0-1.73,4,3.82,3.82,0,0,0,1.25,3.93,18.91,18.91,0,0,0,.5,8.33c.27,1.12,1.07,1.67,1.17,2.72.15,1.58-1.1,3-.58,4.86a6.6,6.6,0,0,0,3.76,4.28C613.79,222.06,614.38,223.66,615,225.33Z"/><path class="cls-4" d="M638.84,342c-8-.79-15.21,4.78-20.93,10.46s-11.5,12.14-19.37,13.93c-8.51,1.93-17.35-2.25-23.88-8-4.35-3.85-8.16-8.73-9.06-14.47-2.81,9.41.68,19.69,6.2,27.8,9.89,14.54,26.86,24.33,44.45,24.44s35.14-10,42.87-25.8"/><path class="cls-6" d="M717.55,364a18.61,18.61,0,0,0-1.12-1.72c-5.28-7.21-14-12-20-18.57a23.3,23.3,0,0,1-5.09-8.81c-2.19-7.07-.85-14.67,1.55-21.5.29-.82.36-2.06,1.3-2.41a6.56,6.56,0,0,1,1.11-.21,8.32,8.32,0,0,0,1.53-.48,30.49,30.49,0,0,0,3.71-1.64,11.54,11.54,0,0,0,3.58-3q1.19-1.51,2.35-3c.08-.1,1.2-1.7,1.25-1.68-7-3-10.2-11.1-11.88-18.54S693,266.89,688,261.16a12,12,0,0,0-5.59-3.8,17.47,17.47,0,0,0-5.64-.32c-7.82.41-15.46,1.45-23.23,2.56a130.11,130.11,0,0,0-21.34,4.67c-12.16,3.91-23.78,10.62-31.4,20.87-4.09,5.5-7,12.11-7,19s3.2,13.9,9.06,17.45c-5.08-9.35-1.23-22.47,8.1-27.59,11.55-6.34,25.38-.34,38.73.68a179.9,179.9,0,0,0-12.89,22.69c-5,10.59-9.08,22.54-6.12,33.89,3.9,14.91,18.85,24.36,33.69,28.53,13.06,3.67,25.91,6.5,28.72,21.67,1.24,6.7,1,13.54.78,20.32-.17,4.52-2.41,16.72.81,20.13.48-7,2.74-12.48,6.29-18.7q7-12.36,13.08-25.25c2.65-5.67,5.18-11.49,6.08-17.68C720.93,374.73,720.31,368.83,717.55,364Z"/><path class="cls-4" d="M704.65,299.13a7.4,7.4,0,0,0,.66,4.91l.68-.88a6.46,6.46,0,0,1-.44-3.39C705.24,299.56,704.94,299.35,704.65,299.13Z"/><path class="cls-6" d="M686.24,256.77a.05.05,0,0,0,0-.1.05.05,0,0,0,0,.1Z"/><path d="M666.4,257.76a.52.52,0,0,0-.19.07c-.29.2-.36,1-.45,1.33q-.2.73-.39,1.46-.38,1.5-.69,3-.62,3-1,6.1a73.77,73.77,0,0,0-.33,12.54,81.7,81.7,0,0,0,5.15,24.19c2.47,6.5,5.92,12.8,10.89,17.74a29.92,29.92,0,0,0,8.31,5.91c3.34,1.57,7.53,2.86,11,.79,2.71-1.64,4-4.79,4.54-7.77a31.3,31.3,0,0,0,.46-5.11q.07-3.43-.18-6.86a12.66,12.66,0,0,0-.63-4,7.91,7.91,0,0,0-.93.63c-.55.41,0,2.32,0,3q.14,1.61.2,3.22a54,54,0,0,1-.1,6.43c-.22,2.81-.85,6-2.85,8.14a6.07,6.07,0,0,1-4,1.92,12.8,12.8,0,0,1-5.62-1.15,27.35,27.35,0,0,1-8.16-5.24c-4.92-4.51-8.42-10.44-10.91-16.58a79.73,79.73,0,0,1-5.47-22.84,70.58,70.58,0,0,1,1.86-24q.29-1.1.62-2.2c.13-.42.28-.61-.24-.7A2.46,2.46,0,0,0,666.4,257.76Z"/><path d="M626,213.33a8.6,8.6,0,0,0,2.34,3.91,9,9,0,0,0,6.92,1.86c-.8.13,3.8,5.68,4.39,6.06a8.73,8.73,0,0,0,8.37.72c.21-.09,4.77,2.31,5.57,2.46a14.43,14.43,0,0,0,7.11-.4c1.35-.43,2.38-1.18,3.77-.83,2.5.62,8,4.79,9.78.52a3.72,3.72,0,0,0-.3-3.17,4.32,4.32,0,0,0-4-2.54c-.41,0-5.36.94-4.75,1.64-3.8-4.37-11.08-5.07-15.48-1.31a11.62,11.62,0,0,0-10.24-4.41,3,3,0,0,1-1.76-.12,3.07,3.07,0,0,1-1.08-1.41,10.44,10.44,0,0,0-6.93-5.25,5.77,5.77,0,0,1-2.55-.86c-.93-.77-1.09-2.1-1.33-3.29a14.13,14.13,0,0,0-4.55-7.77c.93-2.56,2-5.8.53-8.11-.58-.93-1.54-1.71-1.66-2.81a4.58,4.58,0,0,1,.23-1.61,17.37,17.37,0,0,0-.62-10.44,10.13,10.13,0,0,1-1,5.09,16.66,16.66,0,0,0-1.73,4,3.82,3.82,0,0,0,1.25,3.93,18.91,18.91,0,0,0,.5,8.33c.27,1.12,1.07,1.67,1.17,2.72.15,1.58-1.1,3-.58,4.86a6.6,6.6,0,0,0,3.76,4.28C624.79,210.06,625.38,211.66,626,213.33Z"/><path d="M676.38,257.1a68.76,68.76,0,0,0-1.68,35,69.48,69.48,0,0,0,5.71,16.52,65.86,65.86,0,0,0,4.6,7.87c1.49,2.19,3.16,5,5.6,6.21,1.72.87,3.68,1,5-.63s1.68-3.9,1.86-5.9a26.38,26.38,0,0,0,.09-3.29c0-.34,0-2.6-.35-2.67s-.3.59-.26.85q.09.63.14,1.26a21.1,21.1,0,0,1,.06,2.55,18,18,0,0,1-.91,5.07c-.59,1.73-1.77,3-3.73,2.8a6.34,6.34,0,0,1-4-2.43A56.14,56.14,0,0,1,680,306.59a69.62,69.62,0,0,1-6.25-31.51,66.64,66.64,0,0,1,3.13-17.85C677,256.92,676.47,256.79,676.38,257.1Z"/><path class="cls-10" d="M691.24,215.39a45.09,45.09,0,0,1-9.94-3.13,1.94,1.94,0,0,1-1-.8,2,2,0,0,1,0-1.28l1-4.34-2.79,4.37,1.44-4.87a19.44,19.44,0,0,1-3.11,4.37,47.15,47.15,0,0,1-6-4.21c-1.52-1.25-3.1-3-2.7-4.91.29-1.37,1.55-2.48,1.48-3.88L665.81,201a46.6,46.6,0,0,1-9.11-14.84l.09-.28a112.53,112.53,0,0,1,38.73,27.19"/><path class="cls-4" d="M668.63,203.27a20.63,20.63,0,0,0,5.93-7.86,112,112,0,0,0-17.77-9.49l-.09.28A46.6,46.6,0,0,0,665.81,201l3.69-4.32c.06,1.4-1.2,2.51-1.48,3.88A3.58,3.58,0,0,0,668.63,203.27Z"/><path class="cls-10" d="M687.57,219.18a24.29,24.29,0,0,1-6,1.33c-.94.08-2.24-.19-2.25-1.13,0-.67.67-1.48.14-1.9a3.41,3.41,0,0,1-2.86,1.94,10,10,0,0,1-3.58-.47,2.78,2.78,0,0,1-1.46-.71c-.71-.82-.26-2.08.22-3a3,3,0,0,1-2.62,1.59,8.83,8.83,0,0,1-3.15-.6l-5.12-1.64-.05-.25A46.29,46.29,0,0,1,689,216.62"/><path class="cls-4" d="M660.79,214.27l.05.25,5.12,1.64a8.82,8.82,0,0,0,3.15.6,3,3,0,0,0,2.62-1.59c-.48,1-.93,2.23-.22,3a2.78,2.78,0,0,0,1.46.71H673a7.53,7.53,0,0,0,1.28-1.58,6.75,6.75,0,0,0,.82-4.13A46,46,0,0,0,660.79,214.27Z"/><path class="cls-2" d="M505.07,434a.25.25,0,0,0,0-.5.25.25,0,0,0,0,.5Z"/><path class="cls-10" d="M328.88,229.26c3.5-3.5,6.95-7.05,10.31-10.73l10.32-11.3,5.16-5.65c.72-.78,3.83-5.21,4.76-5.21a30.7,30.7,0,0,0-6.42-6.22,20.14,20.14,0,0,0-1.89-1.15c-.88-.47-17.47,17.23-19.27,18.95-3.33,3.17-6.8,6.19-10.15,9.34-1.69,1.59-3.34,3.22-4.92,4.91a14.07,14.07,0,0,0-2.3,2.56c-.44.85,0,2.45.11,3.38,0,.3.08.59.13.89l.93,6.44a35.51,35.51,0,0,0,.69,3.81c.13.52.14,1.2.76,1.17s1.12-.7,1.46-1C322,236,325.47,232.68,328.88,229.26Z"/><path class="cls-10" d="M309.17,177.32c-13.73-.8-27.5.19-41.22,1.18l-13,.94A67.83,67.83,0,0,0,279.3,188c4.21.62,8.47.84,12.72,1.06l28.72,1.48c8.24.43,16.44.29,24.65.45a4.48,4.48,0,0,0,1.37-.12,4.63,4.63,0,0,0,2.15-1.86,2.52,2.52,0,0,0,.64-1.33c.09-1.82-7.29-3.82-8.76-4.35a95.92,95.92,0,0,0-10.4-3A125.66,125.66,0,0,0,309.17,177.32Z"/><path class="cls-10" d="M340.39,193.24a475.85,475.85,0,0,0-73.15,2.08,6.16,6.16,0,0,0-2.3.43.54.54,0,0,0,.34.29,91.84,91.84,0,0,0,17.93,4.25c8.43,1,17,.61,25.44.18,8.27-.43,16.61-.32,24.82-1.58,3-.46,6.11-1.14,8.37-3.14a2.35,2.35,0,0,0,.79-1.1c.26-1-.57-1.34-1.35-1.35"/><path class="cls-9" d="M260.58,212.22l1.48-.3"/><path class="cls-10" d="M358.39,206.56a3.33,3.33,0,0,1-2.58,1.62,12.48,12.48,0,0,1-3.22.22l0-.07,5.92-2.11"/><path class="cls-10" d="M294.4,204.69c3.92-.33,7.83-.61,11.74-1l28.24-2.71a6,6,0,0,1-3,4.31,20.17,20.17,0,0,1-5.05,2c-9.68,2.87-19,7.22-29.07,8.35a17.24,17.24,0,0,1-5.19,0,21.15,21.15,0,0,1-4.14-1.42c-2.59-1.09-5.18-2.19-7.68-3.48a41.74,41.74,0,0,1-3.67-2.13c-.68-.45-1.36-.57-1.46-1.39,3.9-1.22,8.58-1.27,12.65-1.75C290,205.07,292.2,204.87,294.4,204.69Z"/><path class="cls-10" d="M323.79,211.21q-16.91,7.84-33.72,15.86a38.3,38.3,0,0,0,7.44,2.11,13.82,13.82,0,0,0,4.74.18,13.34,13.34,0,0,0,5.12-2.32,63.44,63.44,0,0,0,8.57-7.46l7.85-7.71"/><path d="M377.37,148.48l19.38,5.62,19.38,5.62,19.38,5.62L455,171l19.38,5.62,2.4.7a.8.8,0,0,0,.43-1.54l-19.38-5.62-19.38-5.62L419,158.91l-19.47-5.65-19.38-5.62-2.4-.7a.8.8,0,0,0-.43,1.54Z"/><path d="M397.87,153.84A100,100,0,0,1,405,135.28l0-.41a33.33,33.33,0,0,0-23.48-5.53l-.09.61a67.74,67.74,0,0,1,.62,18.63"/><path d="M434.71,170l13,3.78.24-.87-2-.58-.24.87,23.69,6.91,6.69,2a.45.45,0,0,0,.24-.87L452.6,174.3l-6.69-2a.45.45,0,0,0-.24.87l2,.58a.45.45,0,0,0,.24-.87l-13-3.78a.45.45,0,0,0-.24.87Z"/><path class="cls-10" d="M461.4,193.19l-8.13,14,3.26,1-3.11,2a1.25,1.25,0,0,0-.76,1.23l-.2,2.59a3.5,3.5,0,0,0,.22,2,1.21,1.21,0,0,0,1.67.54,31.15,31.15,0,0,0-2.58,7.22c4-.46,6.82-4.29,8.31-8.06,2.77-7,2.88-14.84,1.6-22.27"/><path class="cls-11" d="M460.08,215.65a32.66,32.66,0,0,0,1.61-5.46,76.14,76.14,0,0,0-9.24,4,3.2,3.2,0,0,0,.23,1.76,1.21,1.21,0,0,0,1.67.54,31.15,31.15,0,0,0-2.58,7.22C455.8,223.26,458.58,219.43,460.08,215.65Z"/><path class="cls-10" d="M460.87,195.51l3.68,11.33,1.94-.67-.32,2.38a1.16,1.16,0,0,0,0,.56,1.69,1.69,0,0,0,.29.46l1.25,1.6a3.61,3.61,0,0,0,1.11,1.06c.44.22,1,.11,1-.33a30.18,30.18,0,0,0,2.6,5.23c1.53-1.82.76-5.14-.54-7.93a43.12,43.12,0,0,0-10.82-13.67"/><path class="cls-11" d="M471.92,209.19a32.41,32.41,0,0,0-2.12-3.82,39.57,39.57,0,0,0-2,5.91,3.28,3.28,0,0,0,1,.94c.44.22,1,.11,1-.33a30.17,30.17,0,0,0,2.6,5.23C474,215.3,473.22,212,471.92,209.19Z"/><path d="M464.92,173.79a128.27,128.27,0,0,0-4.56,19.67.83.83,0,0,0,.56,1,.81.81,0,0,0,1-.56,128.27,128.27,0,0,1,4.56-19.67c.31-1-1.23-1.4-1.54-.43Z"/><path class="cls-3" d="M608.41,263.14a.25.25,0,0,0,0-.5.25.25,0,0,0,0,.5Z"/><path class="cls-1" d="M496.48,111.1l19.38,5.62,19.38,5.62L554.61,128l19.47,5.65,19.38,5.62,2.4.7a.4.4,0,0,0,.21-.77l-19.38-5.62-19.38-5.62-19.38-5.62-19.47-5.65L499.09,111l-2.4-.7a.4.4,0,0,0-.21.77Z"/><path d="M367.24,251.3l78.92,38.77,78.92,38.77,44.39,21.81c1.73.85,3.25-1.74,1.51-2.59l-78.92-38.77-78.92-38.77L368.76,248.7c-1.73-.85-3.25,1.74-1.51,2.59Z"/><path d="M585.45,358a42.71,42.71,0,0,1-4.76-1c-5.21-1.35-10.69-2.33-15.9-3.68a70.23,70.23,0,0,1,6.74-11.54C576.11,347.23,581.32,352.17,585.45,358Z"/><path class="cls-4" d="M547,316.52a4.39,4.39,0,0,0-6.5,3.67c0,3.59,3.69,5.25,6.77,4.17a7.38,7.38,0,0,0-1-14.23c-3.61-.74-7.24,1.48-9.43,4.21a10.92,10.92,0,0,0-2.17,9.95,9.31,9.31,0,0,0,7.28,6.58,14.72,14.72,0,0,0,11.08-3.4,13.08,13.08,0,0,0,.21-19.91c-.73-.62-1.8.44-1.06,1.06a11.76,11.76,0,0,1,3.15,13.58,12.5,12.5,0,0,1-5.8,5.76c-2.79,1.42-6.5,2.25-9.43.78-5.53-2.79-5.34-10.13-1.46-14.19,2-2.1,5.12-3.78,8.05-2.75a5.92,5.92,0,0,1,4,6.21c-.4,3-3.29,5.91-6.46,5.07a2.86,2.86,0,1,1,2-5.27c.86.44,1.62-.85.76-1.3Z"/><path d="M745.58,294.55c.08,5.44,2.29,11.73,6.66,15.24,1.62,1.3,3.63,1.33,4.86-.48,1.51-2.23,1.16-5.44.32-7.85-.11-.3-.59-.17-.48.13.77,2.2,1.15,5.07-.09,7.18-1.8,3.08-4.65.53-6.17-1.36a21,21,0,0,1-4.59-12.87.25.25,0,0,0-.5,0Z"/><path d="M744.08,294.52c-1.07,0-1.43,1-1.58,2a23,23,0,0,0-.12,5.52,28,28,0,0,0,2.78,10.12c.83,1.69,3,5.76,5.28,3.41s3-6.13,2.63-9.19c0-.32-.54-.32-.5,0a12,12,0,0,1-1.66,7.7c-.45.73-.89,1.46-1.8,1.57s-1.67-.61-2.21-1.39a20.53,20.53,0,0,1-1.77-3.31,27.52,27.52,0,0,1-2.15-7.85c-.16-1.3-.88-8,1.1-8a.25.25,0,0,0,0-.5Z"/></svg>