<svg id="Слой_1" data-name="Слой 1" xmlns="http://www.w3.org/2000/svg" viewBox="0 0 975 1184"><defs><style>.cls-1{opacity:0.3;}.cls-2{fill:#fff;}.cls-3{fill:#020101;}.cls-4{fill:#992816;}.cls-5{fill:none;}.cls-6{fill:#b76f4b;}.cls-7{fill:#681810;}</style></defs><title>Bem-hakaton</title><rect x="-1.05" y="3.96" width="975.04" height="582.4"/><g class="cls-1"><path class="cls-2" d="M770.8,315.94c12.61,3.58,25.44,7.69,35.73,15.8-10.32-22.35-33.37-35.79-56.79-44q11.54-13.17,23.44-26c1.19-1.29,2.35-2.6,3.53-3.91a11.45,11.45,0,0,1,2.28-2.26,23.93,23.93,0,0,1,3.08-1.13c3.91-1.64,7.3-4.13,9.27-8,.53-1-.12-.77-1-.76a17.16,17.16,0,0,1-2.48-.13.53.53,0,0,1-.3-.11.54.54,0,0,1-.12-.28c-.27-1.16-.63-2.34-.78-3.52-3.43,2.21-6.05,6.57-7.48,10.29-.35.9-.46,2.07-.89,2.91a14.4,14.4,0,0,1-2.48,2.74q-2.64,2.82-5.26,5.66-9.8,10.61-19.35,21.44l-2.34,2.68c-1-.36-2.07-.7-3.11-1-9.31-3-18.79-5.45-28.24-8-5.23-2.34-10.87-4.24-15.95-6.7a59.32,59.32,0,0,1-27.62-28c-6.28-13.43-7.63-29.43-15.76-41.49l0-.07q-.42-.62-.87-1.23l-.13-.18q-.41-.55-.85-1.1l-.2-.25c-.35-.43-.71-.85-1.08-1.27l-.34-.36q12.1-7.13,24.37-14c1.53-.86,3-1.75,4.56-2.63a11.45,11.45,0,0,1,2.86-1.44,23.89,23.89,0,0,1,3.28-.12c4.22-.36,8.22-1.68,11.27-4.71.82-.82.12-.77-.73-1a17.14,17.14,0,0,1-2.32-.89.53.53,0,0,1-.25-.2.54.54,0,0,1,0-.3c.1-1.19.12-2.42.34-3.59-3.95,1-7.78,4.39-10.29,7.49-.61.75-1.08,1.83-1.74,2.5a14.39,14.39,0,0,1-3.2,1.84q-3.38,1.87-6.75,3.76-11.06,6.21-22,12.67-1.19-1.21-2.48-2.29Q664,180.46,677,166.49c1.19-1.29,2.35-2.6,3.53-3.91a11.45,11.45,0,0,1,2.28-2.26,23.93,23.93,0,0,1,3.08-1.13c3.91-1.64,7.3-4.13,9.27-8,.53-1-.12-.77-1-.76a17.16,17.16,0,0,1-2.48-.13.53.53,0,0,1-.3-.11.54.54,0,0,1-.12-.28c-.27-1.16-.63-2.34-.78-3.52-3.43,2.21-6.05,6.57-7.48,10.29-.35.9-.46,2.07-.89,2.91a14.4,14.4,0,0,1-2.48,2.74q-2.64,2.82-5.26,5.66-9.8,10.61-19.35,21.44c-1.39,1.58-2.77,3.18-4.16,4.77l-.81-.64q.74-.84,1.44-1.71c-.72-.43-1.43-.89-2.13-1.35l-.59-.4q-.78-.53-1.55-1.09l-.57-.42q-.86-.65-1.7-1.33l-.28-.22q-1-.85-2-1.75h0a54.91,54.91,0,0,1-4.41-4.49,17.61,17.61,0,0,1-2.58-3.77h0a9.53,9.53,0,0,1-.78-2.21v0c0-.22-.08-.45-.1-.67,0-.06,0-.12,0-.17s0-.35,0-.52,0-.15,0-.23,0-.31,0-.47,0-.16,0-.24.07-.32.11-.48,0-.14.06-.21a5.15,5.15,0,0,1,.27-.67,6.09,6.09,0,0,1,.44-.74l.09-.14c.16-.22.32-.43.5-.64l.17-.2.41-.45c1.53-1.63,3.32-3.09,3.07-5.19-.19-1.56-1.52-2.71-2.83-3.56-3.41-2.22-7.29-3.55-10.88-5.42a32.42,32.42,0,0,1-4.74-3.1,9,9,0,0,0,1-1c2-2.3,2.45-6.06.4-8.28-1.38-1.5-3.51-2-5.51-2.39l-9.45-2c-3.21-3.92-6.14-8-9.78-11.61C589.5,118,577.87,113.43,566.58,109l-14-5.46c-3.78-1.47-15.93-8.29-19.22-4.4l-.21-.43-.19.18a3.12,3.12,0,0,0-.5,2.34v.05c-.54,2.59-.2,6.19-.25,8.44a96.12,96.12,0,0,0,.32,9.91,7.05,7.05,0,0,0,1,3.65A53.64,53.64,0,0,0,537,142.42a22.93,22.93,0,0,1,3.58-13.53l5.72,3.66a24.87,24.87,0,0,1,2.47,1.84c-.39-.29-.79-.54-1.19-.82s-1-.65-1.44-1a.21.21,0,0,0-.09,0c0,.14.29.48.39.59s.32.39.47.59c.3.4.59.81.87,1.23,1.76,2.68,3.08,5.57,2.79,8.87a10.57,10.57,0,0,1-7.38,8.69,10.32,10.32,0,0,1-1.92.41c-.36,0-.8,0-1.2,0a4.88,4.88,0,0,1-.53-.86,9.31,9.31,0,0,1-.9-3.68c0-.44,0-3.33.26-3.44a21.52,21.52,0,0,0-4.21,2.64c-1.16.93-1.82,2.28-3.45,1.81-1.45-.42-2-2.28-2.19-3.65a6.45,6.45,0,0,1,1-4.44c-.16.24-.87.46-1.13.62a13.88,13.88,0,0,0-1.19.82A14.16,14.16,0,0,0,524,147.2a1.36,1.36,0,0,0-.19,1.3,18.4,18.4,0,0,0,1.27,2.56,19.51,19.51,0,0,1,1.12,2.85c.61,2,1,4,1.51,5.94,1.5,5.72,6.71,9.43,11.69,12.78h0l0,0,1.28.86c7.61,5.1,16.4,11.57,20,20.4a23.68,23.68,0,0,1,1.08,3.79,26.5,26.5,0,0,1,.35,7.37,44.87,44.87,0,0,1-1.2,7.59q-.32,1.34-.71,2.67a56,56,0,0,1-4.95,11.89,25,25,0,0,0,8.75-5.42v5.3a.88.88,0,0,0,.17.63c.28.28.75.08,1.07-.14a19.39,19.39,0,0,0,2.93-2.45c0,.17,0,.34,0,.51q0,.71,0,1.41s0,.06,0,.08q0,.66,0,1.32c0,.14,0,.28,0,.42,0,.34,0,.67,0,1,0,.49-.07,1-.13,1.47-.08.7-.18,1.38-.3,2.06l-.09.48c-.13.67-.26,1.32-.42,2h0c-.16.64-.35,1.26-.55,1.87l-.12.37c-.21.61-.43,1.21-.67,1.79a28.71,28.71,0,0,1-13,14.1l-.6.28v0c-8.1,4.37-18.38,6.19-28.61,6.54l.6-.45q-5.17.27-10.35.08l-.27.28a132.38,132.38,0,0,1-19.53-2.48c-3.33-.69-6.63-1.53-9.92-2.45q-.3-8.78-1.22-17.53v-.1h0c-.07-.66-.13-1.32-.2-2v-.11h0v0c-.49-4.34-1.13-8.73-2.85-12.74a18,18,0,0,0-7.53-8.79,13.15,13.15,0,0,0-1.31-.62c-7.64-3.13-16.9-1.91-24.09-5.74l-.81-.46h0a16.93,16.93,0,0,1-1.62-1.11h0q-.36-.28-.71-.58a16.85,16.85,0,0,1-1.73-1.72,23.6,23.6,0,0,1-2.13-2.94c-.64-1-1.23-2.07-1.81-3.12l-.05-.1-5.52-10a30.86,30.86,0,0,0,15.26.62,27.17,27.17,0,0,0,18.66-14.62,23.91,23.91,0,0,0,2.17-9.87l4.52,2.19,28.06,13.58c-.44.85-.9,1.69-1.38,2.51a96,96,0,0,0,15.08,4.35l3,.65a46.84,46.84,0,0,0,4.71.86c-.16,0-.5-.4-.65-.5a6.69,6.69,0,0,0-.84-.49,10.07,10.07,0,0,1-1.22-.82l-3.34-2.23-6.67-4.46-6.54-4.37,0,.06c-.4,1-.83,1.92-1.28,2.86L468.58,162.3a22.36,22.36,0,0,0-4.09-11.47,11.44,11.44,0,0,1,.54,9.75l-20.57-10-19.61-9.49-.27-.74-.24-.66c-.11-.29-.22-.57-.33-.86l-.23-.59c-.13-.31-.27-.62-.41-.93s-.14-.32-.22-.48c-.22-.46-.46-.92-.73-1.37h0l-.17-.28q-.46-.77-1-1.51c.28-.37.57-.73.84-1.1a14,14,0,0,0,2-3.51,7.48,7.48,0,0,0-.59-6.81,8,8,0,0,1-.17,4.61,5.6,5.6,0,0,1-3.12,3.3,5.27,5.27,0,0,0-5.61-8.92,2.55,2.55,0,0,1,2.23,0,2.18,2.18,0,0,1,.53,3.32,3.56,3.56,0,0,1-2.56.63c-.69,0-1.37-.07-2-.14,0,0,0-.06,0-.09.08-1.62-6.49-3.41-7.8-3.87a85.4,85.4,0,0,0-9.26-2.71,111.91,111.91,0,0,0-18.91-2.63q-2.32-.14-4.63-.2L340,100.08c-1-.5-1.93,1-.9,1.54l28.85,14c-9.3,0-18.6.64-27.88,1.31l-11.54.83a60.41,60.41,0,0,0,21.64,7.6c3.75.55,7.55.75,11.33.94l25.58,1.32c2,.11,4.08.17,6.11.21l3.6,1.74-.19.16a424.6,424.6,0,0,0-57.16,2.17,5.49,5.49,0,0,0-2,.38.48.48,0,0,0,.3.26,81.8,81.8,0,0,0,16,3.79c7.51.93,15.11.55,22.66.16,4.63-.24,9.29-.29,13.93-.58l-1.81,2-14.36,1.38c-3.48.39-7,.64-10.45.93-2,.17-3.94.35-5.9.57-3.62.42-7.79.47-11.26,1.55.09.73.69.84,1.3,1.23a37.19,37.19,0,0,0,3.27,1.9c2.22,1.16,4.53,2.13,6.84,3.1a18.85,18.85,0,0,0,3.69,1.26,12.26,12.26,0,0,0,2.8.17,34.22,34.22,0,0,1,7.51,4.4q-6.05,2.85-12.1,5.73a34.11,34.11,0,0,0,6.62,1.88,12.32,12.32,0,0,0,4.22.16,11.89,11.89,0,0,0,4.56-2.06c.73-.49,1.42-1,2.11-1.57a41.6,41.6,0,0,0,4.37,2.86l.07.49.82,5.74a31.63,31.63,0,0,0,.61,3.39c.12.47.12,1.07.68,1s1-.63,1.3-.92q3.23-3.15,6.43-6.3a16.65,16.65,0,0,0,13.78-4.64c.16.08.3.18.47.25A13.21,13.21,0,0,0,419,159a14.3,14.3,0,0,0,5.5-12.33,14.48,14.48,0,0,0,2.36-.5c-.43-.87-.8-1.77-1.14-2.68l38.61,18.69a14.42,14.42,0,0,1-4.54,5.27c-5.49,3.81-12.78,4.14-19.22,3.5a61.3,61.3,0,0,1-18.07-4.85l-.28-.12c-1.17-.51-2.35-1-3.54-1.41a7.24,7.24,0,0,0-2.08-1.06,8.45,8.45,0,0,0-4.76-.22l-.12,0a3.51,3.51,0,0,0-.75.24c-8,2.73-15,11.29-20.41,20.39h0a131,131,0,0,0-8.93,18.58c-5.4,13.88-8.06,28.68-9.82,43.47a97.82,97.82,0,0,1,25.08-41q1.26-1.23,2.57-2.42c.44-.4.89-.78,1.33-1.17q1.33-1.17,2.7-2.28c.49-.4,1-.8,1.47-1.19.1.8.19,1.54.26,2.19.59,5.24.31,10.91,1.31,16.05.88,8.23,2.86,16.91,8.83,22.64a21.81,21.81,0,0,0,7.08,4.49c-22.75,2-46.23,12.94-67.41,19.44-17,5.23-34.25,10.36-52,12.25-4.21.45-8.47.7-12.72.73h0q-2.16,0-4.32-.11s0,0,0,.07c-12.2-.37-24.28-2.71-35.29-7.88-6.73-3.16-12.95-7.31-19.38-11.06q-2.73-1.59-5.52-3.08v0l-1.29-.64A140,140,0,0,0,185,239.2a107.65,107.65,0,0,0-25.73-1.65c-4.73.29-18.28-.51-21.08,3.68l28.64,6.65c12.75,3,25.63,6,37.42,11.66v0l1.83.87c18,9.18,32.72,24.4,51.71,31.25,15.34,5.53,32.19,5.09,48.36,3,10.9-1.43,21.69-3.61,32.59-5.1,3.36-.46,7.6-1.45,11.95-2.09-3.17,3.18-6,6-8.24,7.5-13.64,9.08-31.71,6-47.76,9.33-18.89,3.86-34.61,16.41-51.62,25.49a149.44,149.44,0,0,1-45.51,15.49A192.6,192.6,0,0,0,296.19,331c4.15-1.79,8.33-3.75,12.82-4.29s9,.39,13.51,1c17.44,2.39,34.17,1.12,46.63-8.09a32.48,32.48,0,0,1-8.5,9.87c-7,5.34-15,7.71-23.34,9.73-8.1,2-13.27,7-18.5,13.49-13.6,17-25.68,36.54-45.08,46.4-13.89,7.06-29.94,8.23-45.5,9.11,17.22,6,36.13,9.61,53.65,4.54,7.17-2.08,13.85-5.54,20.48-9l17.45-9a195.58,195.58,0,0,0,17.81-10c5.67-3.74,10-9.58,15.7-12.9,4.08-2.38,6.13-.63,10.43,1.14,4.94,2,9.93,4.08,15.2,4.95l1,.14h0a62.82,62.82,0,0,0,11.26.33l1.61-.07c7.81-.38,15.72-1,23.06-3.69.77-.28,1.53-.59,2.29-.91l.69-.3q.83-.36,1.64-.75l.66-.31q1-.47,1.9-1l1.11-.62.81-.47c9.75-5.71,18-13.9,26.49-21.27,11.05-9.56,24.46-12.32,38.85-10.63,12.25,1.44,24,5.53,36,8.32a172.41,172.41,0,0,0,42.49,4.42h0c1.34,0,2.68,0,4-.11.76,0,1.51-.09,2.26-.16l.31,0c.71-.07,1.41-.16,2.1-.26l.38-.06q1-.16,2.05-.35l.33-.07c.7-.14,1.4-.29,2.1-.45l.08,0q1-.24,2.08-.52l.24-.06,2-.56.34-.1,2-.59.33-.1,2-.62h0c7.59-2.38,15.1-4.91,23.58-4.69,49.76,1.29,92.2,48.62,110.62,91.2,2.77-34.21-17.67-68.78-40.06-93.15-5.22-5.68-10.88-11.18-14.3-18.09q-.36-.74-.68-1.46h0c-.32-.71-.59-1.4-.84-2.08l-.17-.46c-.09-.24-.16-.48-.24-.71s-.12-.36-.17-.54-.12-.44-.18-.66-.1-.37-.15-.56-.1-.42-.14-.63-.08-.38-.12-.56-.07-.4-.1-.59-.06-.37-.08-.55,0-.38-.06-.57,0-.37,0-.55,0-.36,0-.54,0-.36,0-.54,0-.34,0-.51,0-.35,0-.53,0-.33,0-.49,0-.35.08-.52.05-.31.08-.46.08-.34.12-.51.07-.29.11-.42.11-.34.17-.5.09-.26.14-.39.15-.34.23-.5.1-.23.16-.34.2-.35.31-.53l.16-.27c.17-.26.35-.51.55-.75,2.14-2.67,5.86-4.4,11.19-4.93.87-.09,1.75-.15,2.62-.2l.81,0,1.87-.07h3.51q1.33,0,2.66.1h.19q1.24.07,2.47.17l.68.06,2.06.2.66.07,2.42.3.21,0,2.81.41h0c4.43.68,8.83,1.54,13.17,2.4Q744.55,308.49,770.8,315.94ZM397.43,127.87l1.69,0-.52.34-.18.13Zm46,116.41c.9-.2,1.79-.42,2.67-.67,7.6-2.16,14.9-4.6,21.32-.84l.45.27h0a15.68,15.68,0,0,1,1.76,1.32l.36.31h0a19,19,0,0,1,1.37,1.38,49.05,49.05,0,0,1,5.46,7.59C465.78,250.17,454.78,246.24,443.47,244.28Zm113-102.07c0,.11.09.23.13.34Zm.21.54a9.27,9.27,0,0,1,.38,1.46A11.22,11.22,0,0,0,556.72,142.75Zm.43,1.73c0,.08,0,.15,0,.23C557.17,144.64,557.16,144.56,557.15,144.48Z"/><path class="cls-2" d="M400.26,406l1.53-2.07a2.56,2.56,0,0,0-.87.59A3.44,3.44,0,0,0,400.26,406Z"/><path class="cls-2" d="M413.36,122.27a5.08,5.08,0,0,1,1.22-1A2.88,2.88,0,0,0,413.36,122.27Z"/></g><path class="cls-2" d="M492.5,179c-.24,7.82.57,15.75,3.52,23.09a22.9,22.9,0,0,1,5-15.55"/><rect class="cls-2" y="601.64" width="975.04" height="582.4"/><path d="M400.46,790.66a68.83,68.83,0,0,0,20.29,5.44c7.23.71,15.41.34,21.58-3.93,5.85-4.06,8.87-12.54,5.29-18.69,5.4,7.44,6.1,17.87,2.23,26.2a30.5,30.5,0,0,1-21,16.42,36,36,0,0,1-26.45-4.87,39.43,39.43,0,0,1-11.9-11.62c-1.46-2.2-5.95-8-4.25-10.75,1-1.6,3.27-1.61,5.1-1.26a41.43,41.43,0,0,1,8.76,2.92Z"/><path d="M306.61,728.64l75.47,36.53,75,36.31,42.23,20.44c1.73.84,3.25-1.75,1.51-2.59l-75.47-36.53-75-36.31-42.23-20.44c-1.73-.84-3.25,1.75-1.51,2.59Z"/><path class="cls-3" d="M814.6,880.93c.59-1.16-.14-.86-1.14-.85a19.28,19.28,0,0,1-2.78-.15.59.59,0,0,1-.34-.12.61.61,0,0,1-.14-.31c-.3-1.3-.71-2.63-.88-4-3.86,2.48-6.8,7.38-8.4,11.56-.39,1-.52,2.32-1,3.27a16.16,16.16,0,0,1-2.78,3.08q-3,3.17-5.91,6.35-11,11.91-21.72,24.08-4.78,5.43-9.5,10.9c-.42.49.28,1.2.7.71q16.41-19,33.5-37.45c1.34-1.45,2.64-2.92,4-4.38a12.86,12.86,0,0,1,2.56-2.53,26.86,26.86,0,0,1,3.46-1.26C808.58,888,812.39,885.23,814.6,880.93Z"/><path class="cls-3" d="M713.13,800.45c.92-.92.13-.86-.82-1.16a19.28,19.28,0,0,1-2.6-1,.59.59,0,0,1-.29-.22.61.61,0,0,1,0-.34c.12-1.33.14-2.72.38-4-4.43,1.17-8.74,4.92-11.55,8.41-.68.84-1.21,2.05-2,2.8a16.16,16.16,0,0,1-3.6,2.07q-3.8,2.1-7.58,4.22-14.14,7.94-28.08,16.21-6.22,3.69-12.4,7.45c-.55.33-.1,1.23.45.89q21.47-13,43.41-25.3c1.72-1,3.42-2,5.12-3a12.86,12.86,0,0,1,3.22-1.62,26.86,26.86,0,0,1,3.68-.14C705.22,805.35,709.71,803.86,713.13,800.45Z"/><path class="cls-3" d="M706.6,773.93c.59-1.16-.14-.86-1.14-.85a19.28,19.28,0,0,1-2.78-.15.59.59,0,0,1-.34-.12.61.61,0,0,1-.14-.31c-.3-1.3-.71-2.63-.88-4-3.86,2.48-6.8,7.38-8.4,11.56-.39,1-.52,2.32-1,3.27a16.16,16.16,0,0,1-2.78,3.08q-3,3.17-5.91,6.35-11,11.91-21.72,24.08-4.78,5.43-9.5,10.9c-.42.49.28,1.2.7.71q16.41-19,33.5-37.45c1.34-1.45,2.64-2.92,4-4.38a12.86,12.86,0,0,1,2.56-2.53,26.86,26.86,0,0,1,3.46-1.26C700.58,781,704.39,778.23,706.6,773.93Z"/><path class="cls-3" d="M603.59,758.15l15.69,3.24c2.24.46,4.63,1,6.18,2.69,2.3,2.49,1.75,6.71-.45,9.3s-5.59,3.82-8.91,4.51"/><path d="M343.92,909.49c-11.85,1.75-25.64,20.73-33.3,25.83C295.3,945.51,275,942.1,257,945.79c-21.21,4.33-38.86,18.43-58,28.62a167.79,167.79,0,0,1-51.1,17.39,216.25,216.25,0,0,0,110.73-16c4.66-2,9.35-4.21,14.4-4.81s10.13.44,15.17,1.13c28.3,3.87,55-.8,67.83-28.65,4-8.66,4.72-19.35-.32-27.45C352.33,910.51,348.25,908.85,343.92,909.49Z"/><path d="M638.19,828.06c9.15,1.75,18.13,6.66,27.26,4.82l.62-.15a43.18,43.18,0,0,0-4.58-6.16,38.84,38.84,0,0,0-5.56-5.07q.83-.94,1.61-1.92a62.51,62.51,0,0,1-9.93-7.38l-.09,0c-7.13,2.59-15,2.2-22.36,4.09-11.38,2.93-20.6,11-29.35,18.87l.43-.12C609.77,830.26,624.09,825.37,638.19,828.06Z"/><path class="cls-4" d="M691.47,940.63c13.57-1.36,27.32,1.23,40.58,3.88q30,6,59.48,14.34c14.16,4,28.56,8.63,40.12,17.74-12.25-26.53-40.46-41.88-68.27-50.87-10.45-3.38-21.1-6.12-31.71-9-5.88-2.63-12.21-4.76-17.91-7.52a66.6,66.6,0,0,1-31-31.45c-7.88-16.86-8.84-37.34-21.27-51.19a38.84,38.84,0,0,0-5.56-5.07q.83-.94,1.61-1.92a62.29,62.29,0,0,1-14.88-12.42c-2.64-3-5.1-7.23-3.33-10.84,1.48-3,5.65-4.92,5.25-8.25-.21-1.75-1.7-3-3.18-4-3.83-2.49-8.18-4-12.21-6.09-6.59-3.44-12.71-10-17.67-15.47s-8.69-11.32-13.82-16.35c-9.71-9.52-22.77-14.69-35.44-19.61l-15.77-6.13c-4.24-1.65-17.88-9.31-21.58-4.94l-.24-.48-.21.2a3.5,3.5,0,0,0-.57,2.63v.06c-.61,2.91-.23,6.94-.28,9.48A107.77,107.77,0,0,0,528.31,761c-1.11-3.6.37-11.75,2.5-14.74,1.46,1,1.39,3.06,1.42,4.66a25.72,25.72,0,0,0,3.09,12.51c-1-1.78.67-9.24,2.42-10.36,2-1.29,5.78,3.09,7.61,4.61a25,25,0,0,1,4.78,4.64c2.72,3.95,2,10.21-1.25,13.65a11.32,11.32,0,0,1-10.09,3c-2.7-.47-5.64-1.32-6.9-4a10.46,10.46,0,0,1-1-4.13c0-.5,0-3.74.3-3.86a24.17,24.17,0,0,0-4.73,3c-1.3,1-2,2.56-3.87,2-1.63-.47-2.25-2.56-2.45-4.1a7.24,7.24,0,0,1,1.1-5c-.18.27-1,.52-1.27.7a15.51,15.51,0,0,0-1.33.92,15.9,15.9,0,0,0-4.19,4.89,1.53,1.53,0,0,0-.21,1.46,20.66,20.66,0,0,0,1.42,2.87,21.9,21.9,0,0,1,1.25,3.2c.68,2.19,1.11,4.45,1.69,6.67,1.83,7,8.59,11.3,14.6,15.33,8.54,5.73,18.42,13,22.4,22.9a26.58,26.58,0,0,1,1.21,4.26,29.76,29.76,0,0,1,.39,8.28,50.37,50.37,0,0,1-1.35,8.52q-.36,1.51-.8,3a62.91,62.91,0,0,1-5.55,13.35,28.08,28.08,0,0,0,9.82-6.08v5.95a1,1,0,0,0,.19.71c.31.31.84.09,1.2-.16a21.77,21.77,0,0,0,3.29-2.75,41.45,41.45,0,0,1-.16,7c-4.18,37.38-56.29,35.71-82.94,30.21-23.48-4.85-45.7-16.32-69.66-17.06-28.82-.92-59.34,13.83-86.47,22.16-19.13,5.88-38.45,11.63-58.35,13.76s-40.63.42-58.75-8.08c-7.56-3.55-14.54-8.21-21.75-12.41-16.07-9.37-33.67-16.45-52-19.79A120.87,120.87,0,0,0,105,870.82c-5.32.32-20.52-.57-23.66,4.13l32.15,7.47c14.79,3.44,29.73,6.93,43.31,13.71,20.53,10.26,37.22,27.7,58.82,35.48,17.22,6.21,36.14,5.72,54.3,3.33,12.24-1.61,24.36-4,36.59-5.72,9.22-1.26,24.41-6.1,32.57.09,4.58,3.48,6.29,9.64,6.34,15.39A37.2,37.2,0,0,1,331,974.11c-7.82,6-16.82,8.66-26.2,10.93-9.1,2.2-14.9,7.81-20.77,15.15-15.27,19.06-28.83,41-50.61,52.09-15.6,7.93-33.61,9.24-51.08,10.23,19.33,6.77,40.56,10.79,60.24,5.09,8.05-2.33,15.56-6.21,23-10.07l19.59-10.15a219.59,219.59,0,0,0,20-11.25c6.37-4.2,11.23-10.76,17.63-14.49,4.58-2.67,6.89-.71,11.71,1.28,5.54,2.28,11.15,4.58,17.06,5.56a73.22,73.22,0,0,0,15.54.44c8.77-.43,17.65-1.14,25.89-4.15,15.74-5.74,27.56-18,40-28.75s27.46-13.83,43.62-11.94c13.75,1.62,27,6.21,40.44,9.35a193.57,193.57,0,0,0,52.23,4.84c16.83-.74,30.35-10.14,47.38-9.7,55.86,1.45,103.52,54.59,124.2,102.39,3.11-38.41-19.84-77.23-45-104.58C690,980,683.67,973.81,679.82,966c-4.17-8.43-4.54-15.36-.92-19.88C681.32,943.17,685.48,941.23,691.47,940.63Z"/><path d="M385.32,980.36c-11.21-11-23.41-22.85-25.64-38.37-3.6,6.65-2.32,14.78-.94,22.22,1.67,9,3.37,18.1,7.3,26.36,2,4.3,4.73,8.53,4.9,13.29.27,7.44-5.58,13.55-11.24,18.39a93.49,93.49,0,0,0-7,6.38,77.83,77.83,0,0,0,14.45.28c8.77-.43,17.65-1.14,25.89-4.15a67.94,67.94,0,0,0,15.21-8.06C406.52,1002.45,395.76,990.57,385.32,980.36Z"/><path d="M639,802.68a5.35,5.35,0,0,0,.78.25c-1.05-2.17-1.48-4.49-.44-6.6,1.24-2.52,4.35-4.27,5.1-6.72-3,.4-6.57-1-8.88,1-1.88,1.6-1.74,4.58-.89,6.9A8.54,8.54,0,0,0,639,802.68Z"/><path d="M558.75,808.94c-8-5.51-17.85-7.71-27-11l1.47,1c8.54,5.73,18.42,13,22.4,22.9a26.58,26.58,0,0,1,1.21,4.26,29.76,29.76,0,0,1,.39,8.28,50.37,50.37,0,0,1-1.35,8.52c-.2.82-.42,1.63-.65,2.45,2.17-2.66,4.28-5.38,6.3-8.16,3.47-4.79,6.84-10.37,6-16.22C566.71,815.91,562.94,811.82,558.75,808.94Z"/><path d="M620.52,822.32c-7.15,9.39-15.31,18.53-26,23.49-9.7,4.49-20.92,5.28-30.2,10.58l0,.46-.33.61a41,41,0,0,1-.18,6.43,35,35,0,0,1-2.41,9.58C588.5,869.21,612.45,848.59,620.52,822.32Z"/><path d="M678.91,946.17c2.41-3,6.58-4.94,12.56-5.54a102.63,102.63,0,0,1,25.8,1.18c-10.42-4.73-23.44-3.31-32.55-10.27-5.4-4.12-8.53-10.67-9.85-17.33s-1-13.53-.71-20.31c-2.9,10.63-3.34,21.77-3.36,32.79,0,13.09.81,27,8.26,37.73C675.62,956.72,675.52,950.39,678.91,946.17Z"/><path d="M590.18,993.81a76.37,76.37,0,0,1,.61-9.43c.8-4.59,3-8.79,4.75-13.09a80.54,80.54,0,0,0,1.6-56.74,70,70,0,0,1-6.71,43.77c-7.24,14-19.37,26-25.67,40,1.51,0,3-.05,4.52-.12C576.7,997.93,583.47,995.92,590.18,993.81Z"/><path class="cls-3" d="M524.46,715.2a3.5,3.5,0,0,0-.57,2.63c.24,4.14.27,10.12,1.09,15.62l10.79-17.32C531,714.47,526.12,713.39,524.46,715.2Z"/><path d="M135.64,873.58c-1.55-.28-3.11-.53-4.67-.75A54.64,54.64,0,0,0,129.32,886q3.88-6.18,8.31-12Z"/><path d="M157.66,896.61c-.2-5.88-1.46-12-1.15-17.57l-1.12-.38.07,16.9Q156.57,896.07,157.66,896.61Z"/><path d="M179.65,889q-2.94-1.52-5.93-2.94a55,55,0,0,1,.69,6c.52,4.4,2.34,8.52,4.14,12.57l3.08,6.93,4,2.85A110.47,110.47,0,0,0,179.65,889Z"/><path d="M171.35,885.46l.17-.46-.35-.16A1.79,1.79,0,0,0,171.35,885.46Z"/><path d="M220.36,910c-2-.63-4-1.34-6-2.11a37.1,37.1,0,0,0,.39,13.26A73.18,73.18,0,0,0,220.36,910Z"/><path d="M231.28,935.21q3.47.58,7,.9a39.53,39.53,0,0,0-1.45-9.25A25.52,25.52,0,0,0,231.28,935.21Z"/><path d="M250.22,935.76c.84-5.74,0-11.61.77-17.36a23.47,23.47,0,0,1,1.09-4.62q-2.43,0-4.85-.13A52.18,52.18,0,0,0,250.22,935.76Z"/><path d="M271.66,934.06c7.79-1,15.53-2.38,23.29-3.67-4.22-5.24-5.37-13-2.21-19-3.26-.54-5.52,3-7.29,5.76-2.86,4.46-6.73,8.16-10.57,11.82l-5.71,5.44Z"/><path d="M384.17,890c.31,7.44-1.11,14.83-2.52,22.15L376.86,937c7.72-17.38,15.54-35.15,17.27-54.08a26.21,26.21,0,0,0,.1-4.49c-3.83.63-7.67,1.43-11.5,2.38A39.88,39.88,0,0,1,384.17,890Z"/><path d="M503.1,896.57a88.66,88.66,0,0,0-14.78,19.16c-6.66,11.39-11.28,23.84-15.8,36.24l17.24-29.87c3.44-6,7-12,12.17-16.54,3.92-3.4,8.74-5.88,12.79-9.07Q508.91,896.79,503.1,896.57Z"/><path d="M546.83,932.22c7.46-13,5-29.23,2.32-44q-1.49.72-3,1.41c1.79,5.41,1.78,11.71,1.57,17.53Z"/><path d="M512.64,945.81a106.9,106.9,0,0,0,4.79-24.08A344,344,0,0,0,494.8,964.4a28.7,28.7,0,0,0-2.6,8c-.72,5.78,1.87,11,5.66,15.58l2.57.67-1.4-1.75a60.38,60.38,0,0,0,5.63,2.88c4.34,1.17,8.69,2.35,13.06,3.39.34-8-7-14.6-9.1-22.49C506.4,962.43,510,953.92,512.64,945.81Z"/><path d="M421.37,906.66a46.18,46.18,0,0,0-9.72,35.73c.74,4.81,2.25,9.48,2.92,14.3,1.54,11-1.28,22.61,2.24,33.16a82,82,0,0,0,.62-38c-.85-3.81-2-7.58-2.32-11.47-.61-6.79,1.14-13.54,2.88-20.13l3.46-13.09"/><path d="M537.13,927.13a43.23,43.23,0,0,0-1.95,19.5q2.31-8.1,3.82-16.4c.32-1.76-.21-4.41-2-4.07"/><path class="cls-5" d="M375.51,1059.92a3.86,3.86,0,0,1,.74-1.67,2.87,2.87,0,0,1,1-.66"/><path class="cls-3" d="M545.39,757.57c-1-.82-2-1.69-3-2.49-.46-.36-1-.65-1.43-1s-1.07-.73-1.62-1.08a.24.24,0,0,0-.1,0c-.05.16.33.54.43.67s.36.44.53.66c.34.45.66.91,1,1.39,2,3,3.46,6.26,3.13,10-.4,4.53-4,8.41-8.28,9.76a11.58,11.58,0,0,1-2.15.46,9.46,9.46,0,0,0-2,.15c.27.37.77.45,1.17.69s.67.41,1,.61a13.72,13.72,0,0,0,12.91.65,11.77,11.77,0,0,0,1.84-1.15,7,7,0,0,0,1.62-1.65c1.37-2.06,1.61-4.79,1.51-7.2a11.66,11.66,0,0,0-2.45-6.88A20.39,20.39,0,0,0,546,758Z"/><path class="cls-3" d="M587.22,754.24a43.85,43.85,0,0,0-3.82-3.11q-.6-.41-1.21-.8c-.29-.19-.77-.61-1.1-.62.06.31.56.76.77,1s.51.72.79,1.06c.49.6,1,1.18,1.45,1.82,2.67,3.86,4.17,8.4,5.52,12.85,1.85,6.12,2.59,12.59,5.32,18.43,3.26,7,9.3,12.21,15.16,17.22-.46-8.78-1-17.81-4.61-25.82-2.85-6.28-7.47-11.59-12.41-16.4C591.14,758,589.24,756.06,587.22,754.24Z"/><path class="cls-2" d="M591.22,759.12a6.1,6.1,0,0,0,6.69,6.85"/><path class="cls-6" d="M468.11,869.33c-.56-4.93-1.26-9.91-3.22-14.46a20.17,20.17,0,0,0-8.46-9.87,14.72,14.72,0,0,0-1.47-.7c-10.69-4.37-24.19-1.17-32.51-10.8a40,40,0,0,1-4.48-6.92l-11.83-21.33c-3-5.39-6.07-15.58-12.29-17.5a9.49,9.49,0,0,0-5.35-.25c-16,4.55-28.46,30.06-33.91,44.07-6.06,15.59-9.05,32.2-11,48.81a109.86,109.86,0,0,1,37.22-53.95c.11.9.21,1.73.3,2.45.66,5.89.35,12.25,1.47,18,1,9.24,3.21,19,9.91,25.42,8.81,8.46,22.83,8.64,34.58,5.31,10.34-2.93,20.19-6.35,28.38,2.74,3.62,4,6.31,8.72,9,13.4,1.76,3.13,5.3,12.29,8.89,13.26-2.59-5-3.32-9.57-3.5-15.24Q469.38,880.54,468.11,869.33Z"/><path class="cls-4" d="M362.54,814.36q7,7.79,13.55,16,1.5-1.31,3-2.57-7-8.74-14.52-17.06Q363.54,812.53,362.54,814.36Z"/><path class="cls-4" d="M371.7,834.38q1.43-1.39,2.9-2.74-6.38-7.78-13.16-15.21-1,1.93-1.92,3.82Q365.78,827.17,371.7,834.38Z"/><path class="cls-4" d="M451.48,877q8.24-4.05,16.61-7.81l-.06-.52q-8.61,3.84-17.06,8Z"/><path class="cls-4" d="M453.87,878.83q7.21-3.5,14.53-6.77l-.05-.52q-7.5,3.34-14.88,6.93Z"/><path class="cls-4" d="M420.06,830.2c-.74-1.18-1.42-2.4-2.09-3.62l-5.61-10.12a8,8,0,1,0,7.71,13.74Z"/><path class="cls-4" d="M427.92,837.85q-.46-.25-.91-.52a18,18,0,1,1-19.64-29.86l-.49-.87a19,19,0,1,0,21,31.25Z"/><path class="cls-4" d="M425.19,836.08q-.4-.31-.79-.65a15.23,15.23,0,1,1-15.85-25.85l-.49-.87a16.23,16.23,0,1,0,17.13,27.38Z"/><path class="cls-6" d="M465.13,792.22a.05.05,0,0,0,0-.1.05.05,0,0,0,0,.1Z"/><path class="cls-6" d="M371,753.73c5.16-8.58,18.06-9.48,25.18-2.86a23.54,23.54,0,0,1,4.15,5.4c2.25,3.83,3.06,8.11,5,12a16.24,16.24,0,0,1-2.65.56,16.06,16.06,0,0,1-6.18,13.84,14.84,14.84,0,0,1-14.78,1.61c-4.69-2.15-8-6.68-10.14-11.45C368.86,766.81,367.66,759.38,371,753.73Z"/><path class="cls-4" d="M371.51,767.52a30.66,30.66,0,0,0,2.1,6.32,27.89,27.89,0,0,0,5.12,7.79c7.9-6.57,16.5-12.3,24.46-18.8a37.14,37.14,0,0,0-2.82-6.56c-.21-.36-.44-.72-.67-1.08l-4.28,1.71A231.11,231.11,0,0,0,371.51,767.52Z"/><path d="M400,753a15.66,15.66,0,0,0,2.21-3.94,8.4,8.4,0,0,0-.67-7.64,8.92,8.92,0,0,1-.19,5.17,6.28,6.28,0,0,1-3.5,3.71,5.93,5.93,0,1,0-7.67-8.92,3.11,3.11,0,0,1,3.88-1.06,2.44,2.44,0,0,1,.59,3.73,4,4,0,0,1-2.88.71c-3.52-.11-6.62-.92-10.14-.21a22.19,22.19,0,0,0-8,3.51c-5.12,3.48-9.09,8.37-13.22,12.91-2.17,2.39-4.41,4.83-7.32,6.23-7,3.36-16,0-22.6,4,7.11,1,12.87,6,18.57,10.4,9.84,7.54,22.23,11.62,32.17,2.31q1.17-1.1,2.24-2.31a50.44,50.44,0,0,0,7.35-11.53c.92-1.9,1.92-3.77,2.73-5.72a60.23,60.23,0,0,1,2.5-5.91A52.15,52.15,0,0,1,400,753Z"/><path d="M491.23,811.24l0,.06a60.31,60.31,0,0,1-3.88,7.81A107.81,107.81,0,0,0,504.24,824l3.33.72a52.57,52.57,0,0,0,5.29,1c-.18,0-.57-.45-.73-.57a7.51,7.51,0,0,0-.94-.54,11.31,11.31,0,0,1-1.37-.92l-3.75-2.5-7.49-5Z"/><path class="cls-3" d="M583.26,789.54a44,44,0,0,0,16.18,23.73,50.71,50.71,0,0,1-9-12.89c-2.4-4.92-2.56-9.71-2.62-15.09a53,53,0,0,0-1.69-13.8,16.26,16.26,0,0,0-1.22-3.22,17.85,17.85,0,0,0-2.27-3.17c-1.63-1.91-3.82-4.52-6.32-5.25.25.49.57,1.09.87,1.6s.68,1.2,1,1.81c.59,1.15,1.15,2.37,1.63,3.56a21.69,21.69,0,0,1,.93,4.18c.54,3.08.57,6.18.89,9.28A58.26,58.26,0,0,0,583.26,789.54Z"/><path class="cls-4" d="M381.51,225.82a61.31,61.31,0,0,0,18.07,4.85c6.44.64,13.73.31,19.22-3.5,5.21-3.61,7.9-11.17,4.71-16.65a23.59,23.59,0,0,1,2,23.34,27.17,27.17,0,0,1-18.66,14.62,32.09,32.09,0,0,1-23.56-4.33,35.12,35.12,0,0,1-10.6-10.35c-1.3-2-5.3-7.09-3.79-9.58.86-1.42,2.91-1.44,4.55-1.13a36.9,36.9,0,0,1,7.8,2.6Z"/><path class="cls-2" d="M352.86,185.83l0,0L336.66,178,299,159.75c-1-.5-1.93,1-.9,1.54L350,186.41A4.45,4.45,0,0,1,352.86,185.83Z"/><path class="cls-2" d="M470.7,242.84,403.48,210.3l-35.19-17c-.63.36-1.27.71-1.91,1l65.81,31.85,37.61,18.2C470.83,244.87,471.73,243.34,470.7,242.84Z"/><path class="cls-2" d="M750.37,306.22c.53-1-.12-.77-1-.76a17.17,17.17,0,0,1-2.48-.13.53.53,0,0,1-.3-.11.54.54,0,0,1-.12-.28c-.27-1.16-.63-2.34-.78-3.52-3.43,2.21-6.05,6.57-7.48,10.3-.35.9-.46,2.07-.89,2.91a14.39,14.39,0,0,1-2.48,2.74q-2.64,2.82-5.26,5.66-9.8,10.61-19.35,21.44-4.26,4.83-8.46,9.71c-.37.43.25,1.07.62.63q14.61-16.95,29.84-33.35c1.19-1.29,2.35-2.6,3.53-3.91A11.45,11.45,0,0,1,738,315.3a23.92,23.92,0,0,1,3.08-1.13C745,312.54,748.4,310,750.37,306.22Z"/><path class="cls-2" d="M660,234.54c.82-.82.12-.77-.73-1a17.17,17.17,0,0,1-2.32-.89.53.53,0,0,1-.25-.2.54.54,0,0,1,0-.3c.1-1.19.12-2.42.34-3.59-3.95,1-7.78,4.39-10.29,7.49-.61.75-1.08,1.83-1.74,2.5a14.39,14.39,0,0,1-3.2,1.84q-3.38,1.87-6.75,3.76-12.59,7.07-25,14.44-5.54,3.29-11,6.63c-.49.3-.09,1.09.4.8q19.12-11.62,38.66-22.54c1.53-.86,3-1.75,4.56-2.63a11.45,11.45,0,0,1,2.86-1.44,23.92,23.92,0,0,1,3.28-.12C652.95,238.9,656.95,237.58,660,234.54Z"/><path class="cls-2" d="M654.18,210.92c.53-1-.12-.77-1-.76a17.17,17.17,0,0,1-2.48-.13.53.53,0,0,1-.3-.11.54.54,0,0,1-.12-.28c-.27-1.16-.63-2.34-.78-3.52-3.43,2.21-6.05,6.57-7.48,10.3-.35.9-.46,2.07-.89,2.91a14.39,14.39,0,0,1-2.48,2.74q-2.64,2.82-5.26,5.66-9.8,10.61-19.35,21.44-4.26,4.83-8.46,9.71c-.37.43.25,1.07.62.63q14.61-16.95,29.84-33.35c1.19-1.29,2.35-2.6,3.53-3.91a11.45,11.45,0,0,1,2.28-2.26,23.92,23.92,0,0,1,3.08-1.13C648.82,217.24,652.21,214.75,654.18,210.92Z"/><path class="cls-7" d="M562.43,196.86l14,2.88c2,.41,4.13.9,5.51,2.39,2.05,2.22,1.56,6-.4,8.28s-5,3.41-7.94,4"/><path class="cls-7" d="M331.15,331.65c-10.55,1.56-22.84,18.46-29.66,23-13.64,9.08-31.71,6-47.76,9.33-18.89,3.86-34.61,16.41-51.62,25.49A149.44,149.44,0,0,1,156.59,405a192.6,192.6,0,0,0,98.62-14.25c4.15-1.79,8.33-3.75,12.82-4.29s9,.39,13.51,1c25.2,3.45,49-.71,60.42-25.52,3.56-7.71,4.2-17.24-.28-24.45C338.64,332.56,335,331.08,331.15,331.65Z"/><path d="M593.25,259.13c8.15,1.56,16.15,5.93,24.28,4.29l.55-.13a38.45,38.45,0,0,0-4.07-5.48,34.6,34.6,0,0,0-5-4.51q.74-.84,1.44-1.71a55.68,55.68,0,0,1-8.84-6.57l-.08,0c-6.35,2.31-13.37,2-19.91,3.64-10.14,2.61-18.35,9.82-26.14,16.8l.38-.11C567.93,261.09,580.69,256.73,593.25,259.13Z"/><path class="cls-4" d="M640.7,359.39c12.08-1.21,24.33,1.1,36.15,3.45q26.73,5.32,53,12.77c12.61,3.58,25.44,7.69,35.73,15.8-10.91-23.63-36-37.3-60.8-45.3-9.31-3-18.79-5.45-28.24-8-5.23-2.34-10.87-4.24-15.95-6.7a59.32,59.32,0,0,1-27.62-28c-7-15-7.87-33.26-18.95-45.6a34.6,34.6,0,0,0-5-4.51q.74-.84,1.44-1.71a55.48,55.48,0,0,1-13.25-11.06c-2.35-2.69-4.54-6.44-3-9.65,1.32-2.69,5-4.38,4.68-7.35-.19-1.56-1.52-2.71-2.83-3.56-3.41-2.22-7.29-3.55-10.88-5.42-5.87-3.07-11.32-8.93-15.74-13.78s-7.74-10.08-12.31-14.57c-8.65-8.48-20.28-13.08-31.57-17.47l-14-5.46c-3.78-1.47-15.93-8.29-19.22-4.4l-.21-.43-.19.18a3.12,3.12,0,0,0-.5,2.34V161c-.54,2.59-.2,6.19-.25,8.44a96.12,96.12,0,0,0,.32,9.91c.19,2.24.38,3.31,2,4.9a31.09,31.09,0,0,0,4.84,3.55l6.92,4.42a52.55,52.55,0,0,1,5.23,4.18,22.25,22.25,0,0,1,4.25,4.13c2.42,3.52,1.78,9.09-1.11,12.16a10.08,10.08,0,0,1-9,2.68c-2.41-.42-5-1.18-6.15-3.55a9.31,9.31,0,0,1-.9-3.68c0-.44,0-3.33.26-3.44a21.52,21.52,0,0,0-4.21,2.64c-1.16.93-1.82,2.28-3.45,1.81-1.45-.42-2-2.28-2.19-3.65a6.45,6.45,0,0,1,1-4.44c-.16.24-.87.46-1.13.62a13.81,13.81,0,0,0-1.19.82,14.16,14.16,0,0,0-3.74,4.35,1.36,1.36,0,0,0-.19,1.3,18.4,18.4,0,0,0,1.27,2.56,19.51,19.51,0,0,1,1.12,2.85c.61,2,1,4,1.51,5.94,1.63,6.23,7.66,10.07,13,13.65,7.61,5.1,16.4,11.57,20,20.4a23.68,23.68,0,0,1,1.08,3.79,26.5,26.5,0,0,1,.35,7.37,44.87,44.87,0,0,1-1.2,7.59q-.32,1.34-.71,2.67a56,56,0,0,1-4.95,11.89,25,25,0,0,0,8.75-5.42v5.3a.88.88,0,0,0,.17.63c.28.28.75.08,1.07-.14a19.39,19.39,0,0,0,2.93-2.45A36.92,36.92,0,0,1,527,291c-3.72,33.29-50.13,31.81-73.87,26.91-20.91-4.32-40.7-14.54-62-15.19-25.67-.82-52.85,12.32-77,19.74-17,5.23-34.25,10.36-52,12.25s-36.19.38-52.33-7.2c-6.73-3.16-12.95-7.31-19.38-11.06A143.67,143.67,0,0,0,144,298.87a107.65,107.65,0,0,0-25.73-1.65c-4.73.29-18.28-.51-21.08,3.68l28.64,6.65c13.17,3.06,26.48,6.17,38.58,12.21,18.29,9.14,33.15,24.67,52.38,31.6,15.34,5.53,32.19,5.09,48.36,3,10.9-1.43,21.69-3.61,32.59-5.1,8.21-1.13,21.74-5.43,29,.08,4.08,3.1,5.6,8.59,5.65,13.71a33.14,33.14,0,0,1-12.76,26.18c-7,5.34-15,7.71-23.34,9.73-8.1,2-13.27,7-18.5,13.49-13.6,17-25.68,36.54-45.08,46.4-13.89,7.06-29.94,8.23-45.5,9.11,17.22,6,36.13,9.61,53.65,4.54,7.17-2.08,13.85-5.54,20.48-9l17.45-9a195.58,195.58,0,0,0,17.81-10c5.67-3.74,10-9.58,15.7-12.9,4.08-2.38,6.13-.63,10.43,1.14,4.94,2,9.93,4.08,15.2,4.95a65.22,65.22,0,0,0,13.84.39c7.81-.38,15.72-1,23.06-3.69,14-5.11,24.55-16.06,35.58-25.61s24.46-12.32,38.85-10.63c12.25,1.44,24,5.53,36,8.32a172.41,172.41,0,0,0,46.52,4.31c15-.66,27-9,42.2-8.64,49.76,1.29,92.2,48.62,110.62,91.2,2.77-34.21-17.67-68.78-40.06-93.15-5.22-5.68-10.88-11.18-14.3-18.09-3.71-7.51-4-13.68-.82-17.71C631.66,361.65,635.37,359.92,640.7,359.39Z"/><path d="M367.13,392.1c-10-9.77-20.85-20.35-22.83-34.17-3.21,5.93-2.07,13.16-.84,19.79,1.48,8,3,16.12,6.5,23.48,1.82,3.83,4.21,7.6,4.37,11.83.24,6.63-5,12.07-10,16.38a83.27,83.27,0,0,0-6.24,5.68,69.32,69.32,0,0,0,12.87.25c7.81-.38,15.72-1,23.06-3.69a60.51,60.51,0,0,0,13.55-7.18C386,411.78,376.43,401.2,367.13,392.1Z"/><path d="M594,236.52a4.76,4.76,0,0,0,.69.22,6.58,6.58,0,0,1-.39-5.88c1.1-2.25,3.87-3.8,4.54-6-2.65.36-5.85-.87-7.91.88-1.68,1.43-1.55,4.08-.8,6.15A7.61,7.61,0,0,0,594,236.52Z"/><path d="M522.49,242.1c-7.15-4.91-15.9-6.86-24.09-9.81l1.31.88c7.61,5.1,16.4,11.57,20,20.4a23.68,23.68,0,0,1,1.08,3.79,26.5,26.5,0,0,1,.35,7.37,44.87,44.87,0,0,1-1.2,7.59c-.18.73-.38,1.46-.58,2.18,1.94-2.37,3.81-4.79,5.61-7.27C528,263,531,258,530.24,252.78,529.58,248.3,526.22,244.66,522.49,242.1Z"/><path d="M577.5,254c-6.37,8.37-13.64,16.5-23.18,20.92-8.64,4-18.63,4.7-26.9,9.42v.41l-.29.55A36.47,36.47,0,0,1,527,291a31.17,31.17,0,0,1-2.15,8.54C549,295.78,570.32,277.41,577.5,254Z"/><path d="M627.73,362.54c2.14-2.67,5.86-4.4,11.19-4.93a91.4,91.4,0,0,1,23,1c-9.28-4.21-20.87-3-29-9.14-4.81-3.67-7.6-9.5-8.77-15.43s-.91-12-.63-18.09c-2.59,9.47-3,19.39-3,29.2,0,11.65.72,24.06,7.36,33.6C624.81,371.94,624.72,366.3,627.73,362.54Z"/><path d="M550.49,404.09a68,68,0,0,1,.55-8.4c.71-4.08,2.65-7.83,4.23-11.66a71.74,71.74,0,0,0,1.42-50.53,62.39,62.39,0,0,1-6,39c-6.45,12.48-17.25,23.18-22.87,35.67,1.34,0,2.68,0,4-.11C538.48,407.75,544.51,406,550.49,404.09Z"/><path class="cls-3" d="M492.84,159.49a3.12,3.12,0,0,0-.5,2.34c.21,3.69.24,9,1,13.91l9.61-15.42C498.64,158.85,494.32,157.89,492.84,159.49Z"/><path d="M145.64,299.67c-1.38-.25-2.77-.47-4.16-.67A48.67,48.67,0,0,0,140,310.7q3.45-5.51,7.4-10.68Z"/><path d="M165.26,320.18c-.18-5.24-1.3-10.66-1-15.65l-1-.34.06,15.06Q164.28,319.7,165.26,320.18Z"/><path d="M184.84,313.37q-2.62-1.36-5.29-2.62a49,49,0,0,1,.61,5.34c.47,3.92,2.09,7.59,3.69,11.2l2.74,6.17L190.2,336A98.39,98.39,0,0,0,184.84,313.37Z"/><path d="M177.45,310.25l.15-.41-.31-.14A1.59,1.59,0,0,0,177.45,310.25Z"/><path d="M221.1,332.12c-1.79-.56-3.56-1.19-5.31-1.88a33,33,0,0,0,.35,11.81A65.18,65.18,0,0,0,221.1,332.12Z"/><path d="M230.82,354.56q3.09.52,6.23.81a35.2,35.2,0,0,0-1.29-8.24A22.73,22.73,0,0,0,230.82,354.56Z"/><path d="M247.7,355c.75-5.11,0-10.34.69-15.46a20.9,20.9,0,0,1,1-4.12q-2.16,0-4.32-.11A46.48,46.48,0,0,0,247.7,355Z"/><path d="M266.79,353.54c6.94-.91,13.84-2.12,20.74-3.27-3.76-4.67-4.79-11.6-2-17-2.9-.48-4.91,2.66-6.5,5.13-2.54,4-6,7.27-9.41,10.53l-5.09,4.84Z"/><path d="M367,314.3c.27,6.63-1,13.21-2.24,19.72l-4.27,22.11c6.87-15.48,13.84-31.3,15.38-48.17a23.34,23.34,0,0,0,.09-4c-3.41.56-6.83,1.28-10.25,2.12A35.52,35.52,0,0,1,367,314.3Z"/><path d="M472.92,320.14a79,79,0,0,0-13.16,17.07c-5.93,10.15-10,21.23-14.08,32.27L461,342.88c3.06-5.31,6.21-10.72,10.84-14.74,3.49-3,7.79-5.24,11.39-8.08Q478.1,320.34,472.92,320.14Z"/><path d="M511.88,351.9c6.65-11.61,4.48-26,2.07-39.21q-1.33.64-2.67,1.26c1.59,4.82,1.59,10.43,1.4,15.62Z"/><path d="M481.43,364a95.21,95.21,0,0,0,4.27-21.44,306.43,306.43,0,0,0-20.16,38,25.56,25.56,0,0,0-2.32,7.09c-.43,3.47.36,10.06,4,11.66,4.7,2.08,10.48,3.23,15.54,4.09a3.63,3.63,0,0,0,1.57,0c2.88-.8-1.27-6.79-2.06-8.17-1.68-2.93-3.52-5.85-4.41-9.14C475.87,378.8,479.1,371.23,481.43,364Z"/><path d="M400.14,329.13A41.13,41.13,0,0,0,391.48,361c.66,4.28,2,8.44,2.6,12.73,1.37,9.81-1.14,20.13,2,29.53a73.07,73.07,0,0,0,.55-33.82,81.6,81.6,0,0,1-2.07-10.22c-.55-6,1-12.06,2.57-17.93l3.08-11.66"/><path d="M503.23,347.37a38.5,38.5,0,0,0-1.74,17.37q2.05-7.22,3.41-14.61c.29-1.57-.19-3.93-1.75-3.62"/><path class="cls-5" d="M359.29,465.64a3.44,3.44,0,0,1,.66-1.49,2.56,2.56,0,0,1,.87-.59"/><path class="cls-7" d="M510.59,196.35c-.91-.73-1.79-1.5-2.71-2.22-.41-.32-.85-.58-1.28-.88s-1-.65-1.44-1a.21.21,0,0,0-.09,0c0,.14.29.48.39.59s.32.39.47.59c.3.4.59.81.87,1.23,1.76,2.68,3.08,5.57,2.79,8.87a10.57,10.57,0,0,1-7.38,8.69,10.32,10.32,0,0,1-1.92.41,8.42,8.42,0,0,0-1.82.13c.24.33.69.4,1,.61l.9.54a12.22,12.22,0,0,0,11.5.58,10.48,10.48,0,0,0,1.64-1A6.22,6.22,0,0,0,515,212a10.93,10.93,0,0,0,1.35-6.41,10.38,10.38,0,0,0-2.18-6.13,18.16,18.16,0,0,0-3-2.74Z"/><path class="cls-3" d="M547.85,193.38a39.06,39.06,0,0,0-3.4-2.77l-1.07-.71c-.26-.17-.68-.54-1-.55.05.28.5.68.68.93s.46.64.7.94c.44.54.89,1.05,1.29,1.63,2.38,3.44,3.72,7.48,4.91,11.45,1.65,5.45,2.3,11.21,4.73,16.41,2.91,6.22,8.28,10.88,13.5,15.34-.41-7.82-.87-15.86-4.11-23-2.54-5.59-6.65-10.32-11-14.61C551.34,196.73,549.65,195,547.85,193.38Z"/><path class="cls-2" d="M551.42,197.73a5.43,5.43,0,0,0,6,6.1"/><path class="cls-6" d="M441.76,295.88c-.5-4.39-1.13-8.83-2.87-12.88a18,18,0,0,0-7.53-8.79,13.11,13.11,0,0,0-1.31-.62c-9.52-3.9-21.54-1-29-9.62a35.64,35.64,0,0,1-4-6.16l-10.54-19c-2.66-4.8-5.41-13.88-10.95-15.59a8.46,8.46,0,0,0-4.76-.22c-14.28,4.05-25.35,26.77-30.2,39.25-5.4,13.88-8.06,28.68-9.82,43.47a97.85,97.85,0,0,1,33.15-48c.1.8.19,1.54.26,2.19.59,5.24.31,10.91,1.31,16.05.88,8.23,2.86,16.91,8.83,22.64,7.85,7.53,20.33,7.7,30.8,4.73,9.21-2.61,18-5.65,25.27,2.44a65,65,0,0,1,8,11.94c1.57,2.78,4.72,10.95,7.91,11.81-2.31-4.41-3-8.52-3.12-13.57Q442.89,305.87,441.76,295.88Z"/><path class="cls-4" d="M347.73,246.93q6.23,6.94,12.07,14.22,1.33-1.17,2.71-2.28-6.25-7.78-12.93-15.19Q348.62,245.3,347.73,246.93Z"/><path class="cls-4" d="M355.89,264.75q1.27-1.24,2.58-2.44-5.68-6.93-11.72-13.55-.9,1.72-1.71,3.4Q350.62,258.33,355.89,264.75Z"/><path class="cls-4" d="M427,302.72q7.34-3.61,14.8-7l-.05-.46q-7.67,3.42-15.2,7.14Z"/><path class="cls-4" d="M429.08,304.35q6.42-3.12,12.94-6l0-.46q-6.68,3-13.26,6.18Z"/><path class="cls-4" d="M399,261c-.66-1.05-1.26-2.14-1.86-3.22l-5-9A7.12,7.12,0,1,0,399,261Z"/><path class="cls-4" d="M406,267.84l-.81-.46a16,16,0,1,1-17.5-26.6l-.43-.78A16.91,16.91,0,1,0,406,267.84Z"/><path class="cls-4" d="M403.53,266.27q-.36-.28-.71-.58a13.57,13.57,0,1,1-14.12-23l-.43-.78a14.46,14.46,0,1,0,15.26,24.38Z"/><path class="cls-6" d="M439.11,227.21a.05.05,0,0,0,0-.1.05.05,0,0,0,0,.1Z"/><path class="cls-6" d="M355.32,192.93c4.59-7.64,16.09-8.45,22.43-2.55a21,21,0,0,1,3.69,4.81c2,3.41,2.73,7.22,4.44,10.69a14.47,14.47,0,0,1-2.36.5,14.3,14.3,0,0,1-5.5,12.33,13.21,13.21,0,0,1-13.17,1.43c-4.18-1.92-7.1-6-9-10.2C353.37,204.57,352.29,198,355.32,192.93Z"/><path class="cls-4" d="M355.73,205.21a27.31,27.31,0,0,0,1.87,5.63,24.84,24.84,0,0,0,4.56,6.94c7-5.86,14.69-11,21.79-16.75a33.08,33.08,0,0,0-2.51-5.84c-.19-.33-.39-.64-.6-1L377,195.75A205.84,205.84,0,0,0,355.73,205.21Z"/><path d="M381.13,192.29a14,14,0,0,0,2-3.51,7.48,7.48,0,0,0-.59-6.81,8,8,0,0,1-.17,4.61,5.6,5.6,0,0,1-3.12,3.3,5.28,5.28,0,1,0-6.83-7.94,2.77,2.77,0,0,1,3.46-.94,2.18,2.18,0,0,1,.53,3.32,3.56,3.56,0,0,1-2.56.63c-3.14-.1-5.9-.82-9-.19a19.76,19.76,0,0,0-7.15,3.13c-4.56,3.1-8.1,7.45-11.78,11.5-1.93,2.13-3.93,4.3-6.52,5.55-6.21,3-14.27,0-20.13,3.6,6.33.9,11.46,5.37,16.54,9.26,8.76,6.71,19.8,10.35,28.65,2.06q1-1,2-2.05a44.93,44.93,0,0,0,6.55-10.27c.82-1.69,1.71-3.36,2.43-5.09a53.64,53.64,0,0,1,2.23-5.27A46.45,46.45,0,0,1,381.13,192.29Z"/><path class="cls-2" d="M462.36,235.24l0,.06a53.72,53.72,0,0,1-3.46,7,96,96,0,0,0,15.08,4.35l3,.65a46.82,46.82,0,0,0,4.71.86c-.16,0-.5-.4-.65-.5a6.69,6.69,0,0,0-.84-.49,10.07,10.07,0,0,1-1.22-.82l-3.34-2.23-6.67-4.46Z"/><path class="cls-3" d="M544.32,224.82A39.19,39.19,0,0,0,558.74,246a45.17,45.17,0,0,1-8-11.48c-2.14-4.38-2.28-8.65-2.34-13.44a47.24,47.24,0,0,0-1.51-12.29,14.48,14.48,0,0,0-1.09-2.87,15.9,15.9,0,0,0-2-2.82c-1.45-1.7-3.41-4-5.63-4.67.23.44.51,1,.78,1.43s.6,1.07.88,1.61c.52,1,1,2.11,1.45,3.17a19.32,19.32,0,0,1,.83,3.72c.48,2.74.51,5.5.79,8.27A51.89,51.89,0,0,0,544.32,224.82Z"/><path class="cls-2" d="M353.39,221.78c3.12-3.12,6.19-6.28,9.18-9.56l9.19-10.06,4.59-5c.64-.7,3.41-4.64,4.24-4.64a27.35,27.35,0,0,0-5.72-5.54,17.93,17.93,0,0,0-1.68-1c-.78-.42-15.56,15.35-17.17,16.88-3,2.82-6.06,5.51-9,8.32-1.5,1.42-3,2.86-4.38,4.37a12.53,12.53,0,0,0-2,2.28c-.39.75,0,2.18.1,3,0,.26.07.53.11.79l.82,5.74a31.62,31.62,0,0,0,.61,3.39c.12.47.12,1.07.68,1s1-.63,1.3-.92C347.27,227.81,350.35,224.81,353.39,221.78Z"/><path class="cls-2" d="M335.83,175.51c-12.23-.72-24.49.17-36.71,1.05-3.57.26-7.61.16-11,.95,18.29,7.11,38.63,8.75,58,9.75,7.34.38,14.64.26,22,.4a4,4,0,0,0,1.22-.1,4.13,4.13,0,0,0,1.92-1.66,2.24,2.24,0,0,0,.57-1.19c.08-1.62-6.49-3.41-7.8-3.87a85.43,85.43,0,0,0-9.26-2.71A111.92,111.92,0,0,0,335.83,175.51Z"/><path class="cls-2" d="M363.64,189.69a423.83,423.83,0,0,0-65.16,1.85,5.49,5.49,0,0,0-1.9.38,112.85,112.85,0,0,0,38.79,4.21c7.36-.38,14.79-.29,22.1-1.41,2.66-.41,5.44-1,7.45-2.8a2.1,2.1,0,0,0,.7-1c.23-.86-.5-1.19-1.2-1.2"/><path class="cls-2" d="M322.68,199.89c3.49-.29,7-.54,10.45-.93l25.15-2.41a5.36,5.36,0,0,1-2.67,3.83,18,18,0,0,1-4.5,1.74c-5.62,1.67-11.13,3.56-16.94,4.56-9.34,1.6-20.56-.78-29.14-4.57,2.29-1.7,8.49-1.26,11.74-1.64C318.75,200.23,320.71,200.05,322.68,199.89Z"/><path class="cls-2" d="M348.85,205.7q-15.06,7-30,14.12a34.11,34.11,0,0,0,6.62,1.88,12.31,12.31,0,0,0,4.22.16,11.88,11.88,0,0,0,4.56-2.06,56.51,56.51,0,0,0,7.63-6.64l7-6.87"/></svg>